<svg width="216" height="62" viewBox="0 0 216 62" xmlns="http://www.w3.org/2000/svg"><title>Group 2</title><g fill="none" fill-rule="evenodd"><rect fill="#3B3B3B" width="216" height="62" rx="5"/><path d="M56.9 31.4c0 10.2-8.2 18.5-18.4 18.5S20 41.7 20 31.5 28.2 13 38.4 13h.1c10.1 0 18.3 8.2 18.4 18.4" fill="#13B2F3"/><path d="M77.822 43.3v-4.698l4.392-7.434H79.73l-3.078 5.652-3.06-5.652h-2.538l4.374 7.452v4.68h2.394zm9.72.216c2.79 0 4.518-1.818 4.518-4.86 0-3.06-1.728-4.86-4.518-4.86s-4.536 1.8-4.536 4.86c0 3.042 1.746 4.86 4.536 4.86zm0-1.764c-1.422 0-2.142-1.116-2.142-3.096s.72-3.114 2.142-3.114 2.124 1.134 2.124 3.114-.702 3.096-2.124 3.096zm9.612 1.764c1.368 0 2.43-.648 3.096-2.07V43.3h2.232v-9.306h-2.34v4.86c0 1.71-.846 2.736-2.088 2.736-1.116 0-1.62-.72-1.62-1.98v-5.616h-2.34v6.516c0 2.142 1.44 3.006 3.06 3.006zm10.26-.216v-4.806c0-1.746.864-2.592 2.124-2.592h1.008v-1.998c-.234-.09-.558-.108-.756-.108-.99 0-1.908.576-2.484 2.106v-1.908h-2.232V43.3h2.34zm9.108 0c3.906 0 6.246-2.808 6.246-6.156 0-3.456-2.34-5.976-6.3-5.976h-4.428V43.3h4.482zm-.072-1.98h-2.016v-8.244h1.962c2.592 0 3.942 1.674 3.942 4.068 0 2.322-1.332 4.176-3.888 4.176zm10.764 1.98v-4.806c0-1.746.864-2.592 2.124-2.592h1.008v-1.998c-.234-.09-.558-.108-.756-.108-.99 0-1.908.576-2.484 2.106v-1.908h-2.232V43.3h2.34zm6.966-10.764V30.52h-2.448v2.016h2.448zm-.054 10.764v-9.306h-2.34V43.3h2.34zm7.668 0l3.492-9.306h-2.43l-2.34 7.182-2.34-7.182h-2.484l3.474 9.306h2.628zm9.216.216c2.322 0 3.762-1.188 4.158-3.15h-2.34c-.198.846-.774 1.386-1.89 1.386-1.332 0-2.07-.918-2.142-2.592h6.408l.054-.774c0-3.006-1.638-4.59-4.248-4.59-2.808 0-4.626 1.818-4.626 4.932 0 3.006 1.764 4.788 4.626 4.788zm1.836-5.796h-4.014c.198-1.386.9-2.178 2.106-2.178 1.296 0 1.8.81 1.908 2.178zm6.876 5.58v-4.806c0-1.746.864-2.592 2.124-2.592h1.008v-1.998c-.234-.09-.558-.108-.756-.108-.99 0-1.908.576-2.484 2.106v-1.908h-2.232V43.3h2.34zm6.138 0l1.044-3.042h4.824l1.08 3.042h2.52L170.9 31.168h-3.096L163.358 43.3h2.502zm5.256-4.95h-3.618l1.818-5.13 1.8 5.13zm8.208 8.766v-4.032l-.072-1.44c.648 1.35 1.728 1.872 3.006 1.872 2.016 0 3.654-1.458 3.654-4.86 0-3.492-1.656-4.86-3.654-4.86-1.314 0-2.394.576-3.042 1.998v-1.8h-2.232v13.122h2.34zm2.16-5.364c-1.332 0-2.178-.882-2.178-3.096 0-2.268.864-3.114 2.178-3.114 1.152 0 2.034.936 2.034 3.114 0 2.16-.882 3.096-2.034 3.096zm8.802 5.364v-4.032l-.072-1.44c.648 1.35 1.728 1.872 3.006 1.872 2.016 0 3.654-1.458 3.654-4.86 0-3.492-1.656-4.86-3.654-4.86-1.314 0-2.394.576-3.042 1.998v-1.8h-2.232v13.122h2.34zm2.16-5.364c-1.332 0-2.178-.882-2.178-3.096 0-2.268.864-3.114 2.178-3.114 1.152 0 2.034.936 2.034 3.114 0 2.16-.882 3.096-2.034 3.096zM73.366 26.3v-4.186h3.836v-.98h-3.836v-3.192h4.102v-.98h-5.264V26.3h1.162zm7.14 0v-3.934c0-1.47.742-2.296 1.736-2.296h.7v-.966a1.998 1.998 0 0 0-.644-.098c-.686 0-1.442.448-1.876 1.708V19.16h-1.05v7.14h1.134zm6.79.168c1.624 0 2.618-.798 2.954-2.142h-1.106c-.21.784-.798 1.232-1.876 1.232-1.358 0-2.114-.924-2.156-2.548h5.18l.028-.532c0-2.17-1.022-3.472-3.024-3.472-2.03 0-3.36 1.414-3.36 3.752s1.246 3.71 3.36 3.71zm1.862-4.298h-4.032c.14-1.442.854-2.268 2.142-2.268 1.33 0 1.848.854 1.89 2.268zm6.174 4.298c1.624 0 2.618-.798 2.954-2.142H97.18c-.21.784-.798 1.232-1.876 1.232-1.358 0-2.114-.924-2.156-2.548h5.18l.028-.532c0-2.17-1.022-3.472-3.024-3.472-2.03 0-3.36 1.414-3.36 3.752s1.246 3.71 3.36 3.71zm1.862-4.298h-4.032c.14-1.442.854-2.268 2.142-2.268 1.33 0 1.848.854 1.89 2.268zm8.848 4.298c1.022 0 1.862-.448 2.45-1.596V26.3h1.05V16.206h-1.134v3.248l.056 1.078c-.546-1.092-1.4-1.526-2.422-1.526-1.568 0-2.884 1.12-2.884 3.724 0 2.66 1.33 3.738 2.884 3.738zm.252-.896c-1.12 0-1.974-.84-1.974-2.842 0-1.974.854-2.828 1.974-2.828 1.316 0 2.128.798 2.128 2.828 0 2.044-.826 2.842-2.128 2.842zm8.512.896c2.044 0 3.318-1.4 3.318-3.724 0-2.338-1.274-3.738-3.318-3.738s-3.318 1.4-3.318 3.738c0 2.324 1.274 3.724 3.318 3.724zm0-.91c-1.428 0-2.156-1.022-2.156-2.814s.728-2.842 2.156-2.842c1.428 0 2.156 1.05 2.156 2.842s-.728 2.814-2.156 2.814zm7.882.742l1.736-5.81 1.708 5.81h1.204l2.338-7.14h-1.162l-1.778 5.866-1.666-5.866h-1.232l-1.694 5.866-1.792-5.866h-1.218l2.352 7.14h1.204zm9.674 0v-4.074c0-1.358.826-2.268 2.072-2.268 1.064 0 1.652.658 1.652 1.624V26.3h1.134v-5.012c0-1.596-1.19-2.282-2.45-2.282-1.064 0-1.946.448-2.492 1.61V19.16h-1.05v7.14h1.134zm8.442 0V16.206h-1.134V26.3h1.134zm5.264.168c2.044 0 3.318-1.4 3.318-3.724 0-2.338-1.274-3.738-3.318-3.738s-3.318 1.4-3.318 3.738c0 2.324 1.274 3.724 3.318 3.724zm0-.91c-1.428 0-2.156-1.022-2.156-2.814s.728-2.842 2.156-2.842c1.428 0 2.156 1.05 2.156 2.842s-.728 2.814-2.156 2.814zm10.654.91c.224 0 .574-.042.91-.154v-.756h-.518c-.47 0-.55-.195-.56-.824v-3.558c0-1.288-.812-2.17-2.786-2.17-1.092 0-2.646.476-2.772 2.016l1.064.098c.112-1.022.98-1.26 1.708-1.26 1.358 0 1.652.616 1.652 1.47v.798l-1.582.07c-1.638.07-3.094.392-3.094 2.24 0 1.596 1.344 2.03 2.324 2.03.84 0 1.82-.322 2.408-1.456 0 1.092.35 1.456 1.246 1.456zm-3.304-.896c-.518 0-1.54-.112-1.54-1.19 0-1.092.854-1.386 1.932-1.428l1.61-.056v.406c0 1.498-.994 2.268-2.002 2.268zm8.05.896c1.022 0 1.862-.448 2.45-1.596V26.3h1.05V16.206h-1.134v3.248l.056 1.078c-.546-1.092-1.4-1.526-2.422-1.526-1.568 0-2.884 1.12-2.884 3.724 0 2.66 1.33 3.738 2.884 3.738zm.252-.896c-1.12 0-1.974-.84-1.974-2.842 0-1.974.854-2.828 1.974-2.828 1.316 0 2.128.798 2.128 2.828 0 2.044-.826 2.842-2.128 2.842z" fill="#FFF" fill-rule="nonzero"/><path d="M30.1 26.8c.4-1.4 1.8-2.2 3.2-1.8 1.4.4 2.2 1.8 1.8 3.2l3.1 2 3.1-2c-.1-.3-.1-.5-.1-.8 0-1.4 1.2-2.5 2.6-2.5 1.5 0 2.6 1.1 2.8 2.6 0 .6-.2 1.2-.6 1.7-1 1.1-2.6 1.2-3.7.3l-3.2 2.1v3.3c.8.2 1.4.9 1.7 1.7.5 1.4-.3 2.8-1.7 3.3s-2.8-.3-3.3-1.7.3-2.9 1.7-3.3v-3.3l-3.2-2.1c-.5.4-1.1.6-1.7.6-.2 0-.5 0-.7-.1-1.4-.4-2.2-1.8-1.8-3.2zm8.1 9.2l-.13.007c-.643.068-1.17.637-1.17 1.293 0 .7.6 1.3 1.3 1.3.7 0 1.3-.6 1.3-1.3 0-.7-.6-1.3-1.3-1.3zm-5.6-9.8c-.7 0-1.3.6-1.3 1.3 0 .7.6 1.3 1.3 1.3.7 0 1.3-.6 1.3-1.3 0-.7-.6-1.3-1.3-1.3zm11.2-.1h-.2c-.7.1-1.3.7-1.2 1.4.1.7.7 1.3 1.4 1.2.7 0 1.3-.5 1.3-1.3 0-.7-.6-1.3-1.3-1.3z" fill="#FFF"/></g></svg>