<svg width="1440" height="152" viewBox="0 0 1440 152" xmlns="http://www.w3.org/2000/svg"><title>Group 2</title><g fill="#AAC7CC" fill-rule="evenodd" opacity=".251"><path d="M597.11 39.833h6.155V28.32h-6.155v11.513zm-.016 18.124h6.255V46.51h-6.255v11.446zm89.396 72.434h6.418v-11.393h-6.418v11.393zm-15.544 20.544h6.196v-11.536h-6.196v11.536zM596.518 22.768h6.398V11.376h-6.398v11.392zm64.561 88.054h6.299V99.34h-6.299v11.482zm25.423.015h6.397V99.323h-6.397v11.514zM575.587 39.82h6.31V28.264h-6.31v11.555zm-1.276 53.509h6.446v-11.5h-6.446v11.5zm86.821-.073h6.235V81.79h-6.235v11.464zm25.36-.04h6.379V81.81h-6.378v11.404zm-25.345-17.691h6.28V64h-6.28v11.524zm25.384.012h6.344v-11.5h-6.344v11.5zm-25.419 55.889h6.287v-11.512h-6.287v11.512zM595.35 135.7h6.262v-11.482h-6.262V135.7zm-21.553-.056h6.288v-11.43h-6.288v11.43zm-22.558-.02h6.423v-11.422h-6.423v11.422zm-21.322.032h6.275v-11.453h-6.275v11.453zM575.09 22.832h6.348v-11.45h-6.348v11.45zm.458 35.13h6.388V46.454h-6.388v11.51zm85.567-.03h6.345V46.395h-6.345v11.537zm25.416-.052h6.335V46.344h-6.335V57.88zm-7.76 93.077h6.31v-11.553h-6.31v11.553zM661.126 38.38h6.305V26.785h-6.305v11.594zm-87.328 74.912h6.279v-11.54h-6.279v11.54zm-43.884.022h6.246V101.74h-6.246v11.574zm21.344.01h6.418V101.76h-6.418v11.563zm44.086.023h6.274v-11.605h-6.274v11.605zm91.179-74.936h6.396V26.76h-6.396v11.65zm-60.358 66.03h6.982V93.1h-6.982v11.34zM595.82 93.37h6.398V81.858h-6.398V93.37zm30.346-7.45h6.886V74.388h-6.886V85.92zm-.017 55.816h6.953v-11.558h-6.953v11.558zm-.014-18.623h6.977v-11.574h-6.977v11.574zM519.562 53.29h7.043V41.78h-7.043v11.51zm.004 18.606h7.003V60.428h-7.003v11.468zm-.043 18.704h7.052V79.073h-7.052V90.6zm-118.319 27.718h7.56v-11.672h-7.56v11.672zm26.317 18.63h7.476v-11.556h-7.476v11.555zm-26.296-.155h7.554v-11.405h-7.554v11.405zm26.28-18.528h7.51v-11.527h-7.51v11.527zm.011-17.65h7.536V89.147h-7.536v11.468zm-13.098 17.698h7.613v-11.635h-7.613v11.635zm-.044 18.475h7.673v-11.437h-7.673v11.437zm-13.151-36.156h7.498v-11.69h-7.498v11.69zm13.145.006H422v-11.65h-7.632v11.65zm26.477 17.68h7.633v-11.634h-7.633v11.633zm.01 18.531h7.647v-11.504h-7.647v11.504zm.017-36.21h7.578V88.933h-7.578v11.704zm26.03 48.593h9.434V134.95h-9.434v14.283zm-90.636-22.663h17.569v-44h60.986v39.479h27.176v-24.44h32.024V33.797h41.787v57.56h11.228V0h43.289v83.908h12.743V70.304h9.613V42.832h4.695V26.198l.202-.001.679 16.808h5.651V79.37h11.111V20.123h44.993v48.53h9.578V47.622h9.424V151.11c-122.026.235-243.906.467-365.867.7v-25.06h8.487v-21.442h-8.484V91.572h8.472V70.33h-8.47V53.453h4.447V30.96c.168 0 .334.002.502.004v22.573h6.958v12.234h11.207v60.798z"/><path d="M107.749 39.833h6.156V28.32h-6.156v11.513zm-.082 18.124h6.255V46.51h-6.255v11.446zm-89.56 72.434h6.417v-11.393h-6.418v11.393zm15.766 20.544h6.195v-11.536h-6.195v11.536zm74.225-128.167h6.399V11.376h-6.399v11.392zm-64.462 88.054h6.299V99.34h-6.299v11.482zm-25.52.015h6.396V99.323h-6.395v11.514zM129.12 39.82h6.309V28.264h-6.31v11.555zm1.137 53.508h6.446v-11.5h-6.446v11.5zm-86.61-.072h6.235V81.79h-6.235v11.464zm-25.502-.04h6.378V81.81h-6.378v11.404zm25.442-17.691h6.281V64h-6.28v11.524zm-25.447.012h6.344v-11.5H18.14v11.5zm25.476 55.889h6.287v-11.512h-6.287v11.512zm65.789 4.276h6.262V124.22h-6.262v11.482zm21.527-.056h6.286v-11.43h-6.286v11.43zm22.422-.02h6.423v-11.423h-6.423v11.422zm21.47.032h6.275v-11.453h-6.274v11.453zM129.577 22.832h6.349v-11.45h-6.349v11.45zm-.496 35.13h6.387V46.454h-6.387v11.51zm-85.524-.03H49.9V46.395h-6.345v11.537zm-25.408-.052h6.335V46.344h-6.335V57.88zm7.787 93.077h6.309v-11.553h-6.31v11.553zm17.65-112.579h6.304V26.784h-6.304v11.594zm87.355 74.913h6.278v-11.54h-6.278v11.54zm43.916.022h6.246V101.74h-6.246v11.574zm-21.517.01h6.42v-11.564h-6.42v11.563zm-43.94.023h6.274v-11.605H109.4v11.605zM18.097 38.41h6.395V26.76h-6.395v11.65zm59.771 66.03h6.982V93.1h-6.982v11.34zm30.93-11.07h6.397V81.858h-6.397V93.37zm-30.834-7.45h6.886V74.388h-6.886V85.92zm-.05 55.815h6.953v-11.558h-6.953v11.558zm-.01-18.62h6.977V111.54h-6.978v11.574zM184.408 53.29h7.043V41.78h-7.043v11.51zm.038 18.606h7.003V60.428h-7.003v11.468zM184.44 90.6h7.05V79.073h-7.05V90.6zm117.81 27.718h7.56v-11.672h-7.56v11.672zm-26.232 18.63h7.475v-11.556h-7.475v11.555zm26.216-.155h7.554v-11.405h-7.554v11.405zM276 118.265h7.51v-11.527H276v11.527zm-.038-17.65h7.536V89.15h-7.536v11.467zm13.022 17.698h7.613v-11.635h-7.613v11.635zm-.016 18.475h7.673v-11.437h-7.673v11.437zm13.325-36.156h7.499v-11.69h-7.499v11.69zm-13.279.007h7.633V88.99h-7.633v11.65zm-26.477 17.678h7.633v-11.633h-7.633v11.633zm-.023 18.532h7.647v-11.504h-7.647v11.504zm.05-36.21h7.578V88.933h-7.578v11.704zm-27.885 48.593h9.435V134.95h-9.435v14.283zm100.07-83.46h11.207V53.536h6.958V30.964l.502-.004v22.493h4.448V70.33h-8.471v21.243h8.472v13.736h-8.484v21.441h8.488v25.061c-121.963-.233-243.842-.465-365.869-.7V47.622h9.425v21.031h9.577v-48.53h44.993V79.37h11.111V43.005h5.653c.23-5.737.455-11.272.679-16.808l.201.001v16.634h4.695v27.472h9.612v13.604h12.745V0h43.288v91.357h11.228V33.796h41.787v63.813h32.024v24.439h27.175V82.569h60.988v44h17.567V65.77zM1323.077 39.833h6.156V28.32h-6.156v11.513zm-.016 18.124h6.255V46.51h-6.255v11.446zm89.396 72.434h6.418v-11.393h-6.418v11.393zm-15.543 20.544h6.195v-11.536h-6.195v11.536zm-74.429-128.167h6.398V11.376h-6.398v11.392zm64.562 88.054h6.298V99.34h-6.298v11.482zm25.422.015h6.397V99.323h-6.397v11.514zM1301.554 39.82h6.31V28.264h-6.31v11.555zm-1.276 53.509h6.446v-11.5h-6.446v11.5zm86.821-.073h6.236V81.79h-6.236v11.464zm25.36-.04h6.379V81.81h-6.378v11.404zm-25.344-17.691h6.28V64h-6.28v11.524zm25.383.012h6.345v-11.5h-6.345v11.5zm-25.418 55.889h6.286v-11.512h-6.286v11.512zm-65.764 4.276h6.262V124.22h-6.262v11.482zm-21.553-.056h6.288v-11.43h-6.288v11.43zm-22.557-.02h6.422v-11.422h-6.422v11.422zm-21.323.032h6.275v-11.453h-6.275v11.453zm45.174-112.825h6.349v-11.45h-6.35v11.45zm.458 35.13h6.388V46.454h-6.388v11.51zm85.567-.03h6.345V46.395h-6.345v11.537zm25.416-.052h6.335V46.344h-6.335V57.88zm-7.76 93.077h6.31v-11.553h-6.31v11.553zM1387.093 38.38h6.305V26.785h-6.305v11.594zm-87.328 74.912h6.279v-11.54h-6.279v11.54zm-43.883.022h6.245V101.74h-6.245v11.574zm21.343.01h6.418V101.76h-6.418v11.563zm44.086.023h6.274v-11.605h-6.274v11.605zm91.18-74.936h6.395V26.76h-6.396v11.65zm-60.359 66.03h6.983V93.1h-6.983v11.34zm-30.345-11.07h6.398V81.858h-6.398V93.37zm30.347-7.45h6.886V74.388h-6.886V85.92zm-.018 55.816h6.953v-11.558h-6.953v11.558zm-.014-18.623h6.977V111.54h-6.977v11.574zM1245.529 53.29h7.043V41.78h-7.043v11.51zm.004 18.606h7.003V60.428h-7.003v11.468zm-.042 18.704h7.051V79.073h-7.051V90.6zm-118.32 27.718h7.56v-11.672h-7.56v11.672zm26.317 18.63h7.476v-11.556h-7.476v11.555zm-26.296-.155h7.555v-11.405h-7.555v11.405zm26.28-18.528h7.51v-11.527h-7.51v11.527zm.012-17.65h7.535V89.147h-7.535v11.468zm-13.1 17.698h7.614v-11.635h-7.613v11.635zm-.042 18.475h7.672v-11.437h-7.672v11.437zm-13.152-36.156h7.498v-11.69h-7.498v11.69zm13.146.006h7.631v-11.65h-7.631v11.65zm26.476 17.68h7.633v-11.634h-7.633v11.633zm.01 18.531h7.647v-11.504h-7.647v11.504zm.017-36.21h7.578V88.933h-7.578v11.704zm26.03 48.593h9.434V134.95h-9.434v14.283zm-90.636-22.663h17.57v-44h60.985v39.479h27.176v-24.44h32.024V33.797h41.788v57.56h11.227V0h43.29v83.908h12.743V70.304h9.612V42.832h4.695V26.198l.202-.001.68 16.808h5.65V79.37h11.111V20.123h44.994v48.53h9.577V47.622h9.425V151.11c-122.027.235-243.906.467-365.868.7v-25.06h8.488v-21.442h-8.485V91.572h8.472V70.33h-8.47V53.453h4.447V30.96c.168 0 .335.002.502.004v22.573h6.958v12.234h11.207v60.798z"/><path d="M833.716 39.833h6.157V28.32h-6.157v11.513zm-.082 18.124h6.255V46.51h-6.255v11.446zm-89.56 72.434h6.417v-11.393h-6.418v11.393zm15.766 20.544h6.195v-11.536h-6.195v11.536zm74.226-128.167h6.398V11.376h-6.398v11.392zm-64.462 88.054h6.298V99.34h-6.298v11.482zm-25.52.015h6.396V99.323h-6.396v11.514zM855.087 39.82h6.309V28.264h-6.309v11.555zm1.138 53.508h6.446v-11.5h-6.446v11.5zm-86.61-.072h6.234V81.79h-6.235v11.464zm-25.503-.04h6.378V81.81h-6.378v11.404zm25.442-17.691h6.281V64h-6.28v11.524zm-25.447.012h6.345v-11.5h-6.345v11.5zm25.477 55.889h6.286v-11.512h-6.286v11.512zm65.788 4.276h6.262V124.22h-6.262v11.482zm21.527-.056h6.287v-11.43h-6.287v11.43zm22.423-.02h6.422v-11.423h-6.422v11.422zm21.47.032h6.274v-11.453h-6.274v11.453zM855.543 22.832h6.349v-11.45h-6.349v11.45zm-.496 35.13h6.388V46.454h-6.388v11.51zm-85.524-.03h6.345V46.395h-6.345v11.537zm-25.407-.052h6.334V46.344h-6.334V57.88zm7.786 93.077h6.31v-11.553h-6.31v11.553zm17.65-112.579h6.304V26.784h-6.304v11.594zm87.355 74.913h6.279v-11.54h-6.279v11.54zm43.917.022h6.245V101.74h-6.245v11.574zm-21.518.01h6.42v-11.564h-6.42v11.563zm-43.94.023h6.274v-11.605h-6.274v11.605zM744.064 38.41h6.396V26.76h-6.396v11.65zm59.771 66.03h6.982V93.1h-6.982v11.34zm30.93-11.07h6.398V81.858h-6.397V93.37zm-30.834-7.45h6.886V74.388h-6.886V85.92zm-.05 55.815h6.953v-11.558h-6.953v11.558zm-.01-18.62h6.977V111.54h-6.978v11.574zM910.375 53.29h7.043V41.78h-7.043v11.51zm.038 18.606h7.003V60.428h-7.003v11.468zm-.006 18.704h7.05V79.073h-7.05V90.6zm117.81 27.718h7.56v-11.672h-7.56v11.672zm-26.232 18.63h7.476v-11.556h-7.476v11.555zm26.216-.155h7.554v-11.405h-7.554v11.405zm-26.235-18.528h7.51v-11.527h-7.51v11.527zm-.038-17.65h7.536V89.15h-7.536v11.467zm13.022 17.698h7.613v-11.635h-7.613v11.635zm-.015 18.475h7.672v-11.437h-7.672v11.437zm13.325-36.156h7.498v-11.69h-7.498v11.69zm-13.28.007h7.633V88.99h-7.633v11.65zm-26.476 17.678h7.633v-11.633h-7.633v11.633zm-.024 18.532h7.647v-11.504h-7.647v11.504zm.05-36.21h7.578V88.933h-7.577v11.704zm-27.884 48.593h9.434V134.95h-9.434v14.283zm100.069-83.46h11.207V53.536h6.959V30.964l.502-.004v22.493h4.447V70.33h-8.47v21.243h8.472v13.736h-8.485v21.441h8.488v25.061c-121.963-.233-243.841-.465-365.869-.7V47.622h9.425v21.031h9.577v-48.53h44.993V79.37h11.112V43.005h5.652c.23-5.737.455-11.272.679-16.808l.202.001v16.634h4.694v27.472h9.612v13.604h12.745V0h43.288v91.357h11.228V33.796h41.787v63.813h32.024v24.439h27.175V82.569h60.988v44h17.568V65.77z"/></g></svg>