<svg width="1440" height="157" viewBox="0 0 1440 157" xmlns="http://www.w3.org/2000/svg"><title>Page 1 Copy</title><path d="M1436.391 39.533h6.615v-11.99h-6.615v11.99zm-.032 94.67h6.637v-11.726h-6.637v11.726zm-7.983 21.168h6.525V143.48h-6.525v11.89zm-8.092-.023h6.407v-11.872h-6.407v11.872zm-10.168-95.722h6.562V47.752h-6.562v11.874zm.033 18.106h6.495v-11.86h-6.495v11.86zm-.037 57.534h6.502v-11.849h-6.502v11.849zm.022-39.286h6.448V84.181h-6.448v11.8zm-.054 18.082h6.513v-11.82h-6.513v11.82zm.046-74.56h6.52V27.567h-6.52V39.5zm26.246 74.576h6.614v-11.851h-6.614v11.85zm.029-54.506h6.551V47.698h-6.551v11.874zm0 18.172h6.56V65.91h-6.56v11.835zm-.04 18.196h6.596V84.203h-6.596V95.94zm-62.39 11.553h7.221V95.82h-7.22v11.672zm-.03 19.22h7.216v-11.911h-7.216v11.911zm.013 19.167h7.19v-11.897h-7.19v11.897zm.017-57.448h7.122v-11.87h-7.122v11.87zm-30.065-28.78h6.47V47.87h-6.47v11.78zm-1.316 36.447h6.616V84.25h-6.616V96.1zm-.494 20.56h6.488v-11.945h-6.488v11.945zm.006 23.009h6.476V127.85h-6.476v11.818zm-20.476-80.01h6.606V47.81h-6.606v11.846zm-1.28 36.397h6.667V84.22h-6.667v11.836zm-.53 43.555h6.5v-11.764h-6.5v11.764zm0-23.007h6.492v-11.878h-6.493v11.878zm1.85-75.62h6.524V29.09h-6.524v11.893zm-.514-17.484h6.565V11.715h-6.565V23.5zm22.772 17.5h6.366V29.15h-6.366V41zm-.612-17.565h6.617V11.709h-6.617v11.725zm-46.807 93.202h6.637v-11.902h-6.637v11.902zm-.02 22.954h6.642v-11.756h-6.643v11.756zm-22.052.033h6.49v-11.788h-6.49v11.788zm-.002-22.997h6.459v-11.913h-6.46v11.913zm-10.704-61.78h7.284V43.001h-7.284v11.845zm.002 19.15h7.243V62.194h-7.243v11.804zm-.04 19.253h7.29V81.385h-7.29v11.864zm-54.421 60.346h9.756v-14.7h-9.756v14.7zm-26.94-12.745h7.91v-11.84h-7.91v11.84zm-.008-19.074h7.894v-11.973h-7.894v11.973zm-13.784-18.219h7.793V91.755h-7.793v11.802zm-.012 18.166h7.767v-11.865h-7.767v11.865zm.016 19.228h7.731v-11.893h-7.731v11.893zm-13.595-.164h7.935v-11.772h-7.935v11.772zm.045-19.015h7.873v-11.975h-7.873v11.975zm-.052-18.19h7.894v-11.99h-7.894v11.99zm-13.591 37.21h7.812v-11.737h-7.812v11.737zm-.022-19.013h7.818v-12.015h-7.818v12.015zm.018-18.203h7.754V91.544h-7.754v12.032zm41.005.006h7.838V91.537h-7.838v12.045zm-81.946 26.872h-12.672v-22.068h12.672v22.068zm-12.659-58.069h12.647V94.25h-12.647V72.385zm-48.753 49.394h7.818v-12.015h-7.818v12.015zm-.016 19.013h7.813v-11.737h-7.813v11.737zm-13.672-37.212h7.893V91.59h-7.893v11.99zm-.049 37.207h7.935v-11.772h-7.935v11.772zm-13.41-19.064h7.766v-11.865h-7.766v11.865zm.019 19.228h7.731v-11.893h-7.731v11.893zm-.058-37.395h7.793V91.754h-7.793v11.802zm-13.884 18.22h7.894v-11.973h-7.894v11.973zm-.024 19.074h7.908v-11.84h-7.908v11.84zm.051-37.268h7.838V91.537h-7.838v12.045zm27.324 18.19h7.873v-11.975h-7.873v11.975zm13.764-18.196h7.755V91.544h-7.755v12.032zm-69.926 50.02h9.757v-14.702h-9.757v14.701zm-51.954-60.347h7.291V81.385h-7.29v11.864zm.006-19.251h7.243V62.194h-7.243v11.804zm-.038-19.152h7.283V43.001h-7.283v11.845zm-9.88 61.78h6.458v-11.913h-6.457v11.913zm-.032 22.997h6.49v-11.788h-6.49v11.788zm-22.204-.033h6.642v-11.756h-6.642v11.756zm-.016-22.956h6.638v-11.902h-6.638v11.902zm-23.173 22.976h6.501v-11.764h-6.501v11.764zm.008-23.007h6.493v-11.878h-6.493v11.878zm-.706-20.548h6.667V84.22h-6.667v11.836zm-1.218-36.398h6.606V47.811h-6.606v11.846zm-20.353 57.002h6.489v-11.945h-6.489v11.945zm.007 23.009h6.476V127.85h-6.476v11.818zm-.629-43.568h6.616V84.252h-6.616V96.1zm-1.17-36.449h6.469v-11.78h-6.469v11.78zm.086-18.653h6.367v-11.85h-6.367v11.85zm.363-17.564h6.615V11.709h-6.615v11.725zm21.737 17.55h6.524V29.09h-6.524v11.893zm.474-17.485h6.565V11.715h-6.565V23.5zm-53.44 103.214h7.216v-11.911h-7.215v11.911zm.012 19.167h7.19v-11.897h-7.19v11.897zm-.048-38.387h7.22V95.82h-7.22v11.672zm.1-19.061h7.12v-11.87h-7.12v11.87zm-35.501 25.63h6.514v-11.82h-6.514v11.82zm-.02 21.204h6.5v-11.849h-6.5v11.849zm.032-39.285H778V84.183h-6.448V95.98zm-.063-18.249h6.496v-11.86h-6.496v11.86zm-.033-18.106h6.562V47.752h-6.562v11.874zm-10.013 95.722h6.407v-11.872h-6.407v11.872zm-8.21.023h6.525V143.48h-6.524v11.89zm-8.096-21.168h6.638v-11.726h-6.638v11.726zm-.01-94.67h6.615v-11.99h-6.614v11.99zm.021 74.545h6.615v-11.851h-6.615v11.85zm.03-18.138h6.596V84.203h-6.597V95.94zm.003-36.368h6.551V47.698h-6.551v11.874zm-.01 18.172h6.561V65.91h-6.56v11.835zm26.316-38.243h6.52V27.568h-6.52v11.933zm-84.235.032h6.614v-11.99h-6.614v11.99zm-.033 94.67h6.638v-11.726h-6.638v11.726zm-7.982 21.168h6.524V143.48h-6.524v11.89zm-8.093-.023h6.407v-11.872h-6.407v11.872zm-10.167-95.722h6.562V47.752h-6.562v11.874zm.034 18.106h6.494v-11.86h-6.494v11.86zm-.037 57.534h6.502v-11.849h-6.502v11.849zm.02-39.286h6.449V84.181h-6.448v11.8zm-.054 18.082h6.514v-11.82h-6.514v11.82zm.048-74.56h6.52V27.567h-6.52V39.5zm26.243 74.576h6.616v-11.851h-6.616v11.85zm.03-54.506h6.552V47.698h-6.551v11.874zm0 18.172h6.562V65.91h-6.561v11.835zm-.04 18.196h6.597V84.203h-6.596V95.94zm-62.389 11.553h7.22V95.82h-7.22v11.672zm-.031 19.22h7.215v-11.911h-7.215v11.911zm.014 19.167h7.19v-11.897h-7.19v11.897zm.018-57.448h7.122v-11.87h-7.122v11.87zm-30.066-28.78h6.47V47.87h-6.47v11.78zm-1.317 36.447h6.617V84.25h-6.617V96.1zm-.492 20.56h6.488v-11.945h-6.488v11.945zm.006 23.009h6.476V127.85h-6.476v11.818zm-20.478-80.01h6.606V47.81h-6.606v11.846zm-1.279 36.397h6.666V84.22h-6.666v11.836zm-.532 43.555h6.502v-11.764h-6.502v11.764zm0-23.007h6.494v-11.878h-6.493v11.878zm1.851-75.62h6.526V29.09h-6.526v11.893zm-.514-17.484h6.566V11.715h-6.566V23.5zM594.785 41h6.366V29.15h-6.366V41zm-.612-17.565h6.616V11.709h-6.616v11.725zm-46.807 93.202h6.637v-11.902h-6.637v11.902zm-.02 22.954h6.641v-11.756h-6.642v11.756zm-22.051.033h6.49v-11.788h-6.49v11.788zm-.002-22.997h6.459v-11.913h-6.46v11.913zm-10.705-61.78h7.283V43.001h-7.283v11.845zm.003 19.15h7.243V62.194h-7.243v11.804zm-.043 19.253h7.292V81.385h-7.292v11.864zm-54.42 60.346h9.757v-14.7h-9.757v14.7zm-26.937-12.745h7.908v-11.84h-7.908v11.84zm-.01-19.074h7.894v-11.973h-7.894v11.973zm-13.784-18.219h7.793V91.755h-7.793v11.802zm-.012 18.166h7.766v-11.865h-7.766v11.865zm.017 19.228h7.731v-11.893h-7.731v11.893zm-13.596-.164h7.935v-11.772h-7.935v11.772zm.045-19.015h7.873v-11.975h-7.873v11.975zm-.051-18.19h7.892v-11.99H405.8v11.99zm-13.593 37.21h7.813v-11.737h-7.813v11.737zm-.022-19.013h7.819v-12.015h-7.819v12.015zm.02-18.203h7.754V91.544h-7.754v12.032zm41.004.006h7.837V91.537h-7.837v12.045zm-81.945 26.872h-12.672v-22.068h12.672v22.068zm-12.66-58.069h12.647V94.25h-12.647V72.385zm-48.752 49.394h7.818v-12.015h-7.818v12.015zm-.016 19.013h7.813v-11.737h-7.813v11.737zm-13.674-37.212h7.894V91.59h-7.894v11.99zm-.047 37.207h7.935v-11.772h-7.935v11.772zm-13.412-19.064h7.767v-11.865h-7.767v11.865zm.02 19.228h7.731v-11.893h-7.731v11.893zm-.058-37.395h7.793V91.754h-7.793v11.802zm-13.884 18.22h7.894v-11.973h-7.894v11.973zm-.024 19.074h7.908v-11.84h-7.908v11.84zm.052-37.268h7.838V91.537h-7.838v12.045zm27.322 18.19h7.873v-11.975h-7.873v11.975zm13.766-18.196h7.754V91.544h-7.754v12.032zm-69.926 50.02h9.757v-14.702h-9.757v14.701zM168.016 93.25h7.291V81.385h-7.291v11.864zm.006-19.251h7.243V62.194h-7.243v11.804zm-.039-19.152h7.284V43.001h-7.284v11.845zm-9.879 61.78h6.46v-11.913h-6.46v11.913zm-.033 22.997h6.489v-11.788h-6.489v11.788zm-22.204-.033h6.643v-11.756h-6.643v11.756zm-.014-22.956h6.638v-11.902h-6.638v11.902zm-23.174 22.976h6.501v-11.764h-6.501v11.764zm.008-23.007h6.493v-11.878h-6.493v11.878zm-.706-20.548h6.667V84.22h-6.667v11.836zm-1.217-36.398h6.605V47.811h-6.605v11.846zM90.41 116.66h6.488v-11.945H90.41v11.945zm.006 23.009h6.476V127.85h-6.476v11.818zM89.79 96.1h6.616V84.252H89.79V96.1zm-1.17-36.449h6.469v-11.78h-6.47v11.78zm.085-18.653h6.367v-11.85h-6.367v11.85zm.361-17.564h6.617V11.709h-6.617v11.725zm21.739 17.55h6.524V29.09h-6.524v11.893zm.473-17.485h6.565V11.715h-6.565V23.5zm-53.44 103.214h7.216v-11.911h-7.216v11.911zm.011 19.167h7.19v-11.897h-7.19v11.897zm-.047-38.387h7.22V95.82h-7.22v11.672zm.1-19.061h7.12v-11.87h-7.12v11.87zM22.4 114.062h6.513v-11.82H22.4v11.82zm-.022 21.204h6.503v-11.849h-6.503v11.849zm.033-39.285h6.448V84.183h-6.448V95.98zm-.062-18.249h6.494v-11.86H22.35v11.86zm-.033-18.106h6.562V47.752h-6.562v11.874zm-10.012 95.722h6.407v-11.872h-6.407v11.872zm-8.212.023h6.526V143.48H4.093v11.89zm-8.095-21.168h6.637v-11.726h-6.637v11.726zm-.01-94.67h6.615v-11.99h-6.615v11.99zm.02 74.545h6.615v-11.851h-6.615v11.85zm.03-18.138h6.596V84.203h-6.596V95.94zm.004-36.368h6.551V47.698h-6.551v11.874zm-.009 18.172h6.561V65.91h-6.56v11.835zm26.314-38.243h6.52V27.568h-6.52v11.933zm1447.647 9.513h-9.747V70.66h-9.904V20.711h-46.53v60.98h-11.492V44.262h-5.845l-.701-17.3-.21.001v17.12h-4.854V72.36h-9.941v14h-13.18V0h-44.768v94.028h-11.612V34.784h-43.213v65.677h-33.12v25.155h-28.103V84.982h-63.07v45.287h-18.17V67.693h-11.59v-12.59h-7.195V31.867l-.519-.003v23.151h-4.327v-23.15l-.519.003v23.234h-7.194v12.59h-11.591v62.577h-18.168V84.982h-63.072v40.634h-28.104V100.46h-33.119V34.784h-43.213v59.244H875.31V0h-44.769v86.36h-13.178v-14h-9.941V44.084h-4.855v-17.12l-.21-.001-.7 17.3h-5.845V81.69H784.32V20.711h-46.53V70.66h-9.905V49.014H711.11V70.66h-9.906V20.711h-46.53v60.98h-11.49V44.262h-5.845l-.702-17.3-.209.001v17.12h-4.856V72.36h-9.94v14h-13.18V0h-44.768v94.028h-11.61V34.784h-43.216v65.677H475.74v25.155h-28.104V84.982h-63.07v45.287h-18.17V67.693h-11.59v-12.59h-7.195V31.867l-.52-.003v23.151h-4.325v-23.15c-.173.001-.347.001-.52.003v23.234h-7.194v12.59H323.46v62.577h-18.168V84.982h-63.07v40.634h-28.105V100.46h-33.118V34.784h-43.214v59.244h-11.612V0H81.404v86.36h-13.18v-14h-9.94V44.084h-4.855v-17.12l-.209-.001-.702 17.3h-5.844V81.69H35.182V20.711h-46.53V70.66h-9.905V49.014H-31v106.514c124.567.238 248.987.474 373.486.71v.01c.814 0 1.628-.003 2.441-.004l2.442.005v-.01c124.046-.235 248.015-.47 372.129-.707l372.127.707v.01l2.442-.005 2.44.005v-.01l373.487-.71V49.013z" fill="#636363" fill-rule="evenodd" opacity=".584"/></svg>