<?xml version="1.0" encoding="UTF-8"?>
<svg width="47px" height="44px" viewBox="0 0 47 44" version="1.1" xmlns="http://www.w3.org/2000/svg" xmlns:xlink="http://www.w3.org/1999/xlink">
    <title>Group 6</title>
    <defs>
        <polygon id="path-1" points="0.187775998 0.265931997 33.2710556 0.265931997 33.2710556 30.5999996 0.187775998 30.5999996"></polygon>
    </defs>
    <g id="Page-1" stroke="none" stroke-width="1" fill="none" fill-rule="evenodd">
        <g id="Cloud-Connect---Webbooker" transform="translate(-1093.000000, -567.000000)">
            <g id="Group-6" transform="translate(1093.000000, 567.000000)">
                <g id="Group-3" transform="translate(6.840000, 12.111120)">
                    <mask id="mask-2" fill="white">
                        <use xlink:href="#path-1"></use>
                    </mask>
                    <g id="Clip-2"></g>
                    <path d="M5.44485594,22.7677317 C6.86505592,22.7677317 8.02029591,23.9229717 8.02029591,25.3431717 C8.02029591,26.7633717 6.86505592,27.9186117 5.44485594,27.9186117 C4.02465595,27.9186117 2.86941597,26.7633717 2.86941597,25.3431717 C2.86941597,23.9229717 4.02465595,22.7677317 5.44485594,22.7677317 M14.1539758,5.52301194 C14.1539758,4.10281195 15.3095758,2.94721197 16.7297758,2.94721197 C18.1499758,2.94721197 19.3052158,4.10281195 19.3052158,5.52301194 C19.3052158,6.94321192 18.1499758,8.09845191 16.7297758,8.09845191 C15.3095758,8.09845191 14.1539758,6.94321192 14.1539758,5.52301194 M28.0139757,22.7677317 C29.4341757,22.7677317 30.5897756,23.9229717 30.5897756,25.3431717 C30.5897756,26.7633717 29.4341757,27.9186117 28.0139757,27.9186117 C26.5941357,27.9186117 25.4388957,26.7633717 25.4388957,25.3431717 C25.4388957,23.9229717 26.5941357,22.7677317 28.0139757,22.7677317 M5.44485594,30.6002516 C8.3435759,30.6002516 10.7019359,28.2418917 10.7019359,25.3431717 C10.7019359,24.8600517 10.6310159,24.3942117 10.5082559,23.9492517 L16.7294158,19.8322918 L22.9505757,23.9492517 C22.8281757,24.3942117 22.7572557,24.8600517 22.7572557,25.3431717 C22.7572557,28.2418917 25.1156157,30.6002516 28.0139757,30.6002516 C30.9130556,30.6002516 33.2710556,28.2418917 33.2710556,25.3431717 C33.2710556,22.4444517 30.9130556,20.0864518 28.0139757,20.0864518 C26.7078957,20.0864518 25.5141357,20.5681318 24.5936157,21.3594118 L18.2626558,17.1693718 L18.2626558,10.5504119 C20.4154558,9.89269189 21.9864957,7.88857191 21.9864957,5.52301194 C21.9864957,2.62429197 19.6284958,0.265931997 16.7297758,0.265931997 C13.8306958,0.265931997 11.4726959,2.62429197 11.4726959,5.52301194 C11.4726959,7.88821191 13.0433758,9.89233189 15.1961758,10.5504119 L15.1961758,17.1693718 L8.8652159,21.3597718 C7.94505591,20.5681318 6.75129592,20.0864518 5.44485594,20.0864518 C2.54613597,20.0864518 0.187775998,22.4444517 0.187775998,25.3431717 C0.187775998,28.2418917 2.54613597,30.6002516 5.44485594,30.6002516" id="Fill-1" fill="#13B2F3" mask="url(#mask-2)"></path>
                </g>
                <path d="M43.7908675,10.6642799 C41.7590275,8.8052399 39.3315475,7.99811991 36.5761076,8.2663199 C36.3961076,8.2839599 36.2215076,8.3077199 36.0512276,8.3347199 C35.0029076,6.14951993 33.1971476,4.44455995 30.9557876,3.56399996 C28.7788677,2.70827997 26.3787477,2.71295997 24.2025477,3.54743996 C22.8057477,1.78811998 20.8041478,0.571319993 18.5854678,0.159839998 C16.0327078,-0.314279996 13.4763478,0.275399997 11.3883479,1.81799998 C9.16354789,3.46103996 7.87006791,5.68295993 7.53418791,8.4319199 C7.24186792,8.4898799 6.94414792,8.5615199 6.64606792,8.6558399 C2.20870797,10.0547999 -0.547811994,14.4745198 0.0919079989,19.1642398 C0.748187991,23.9799597 4.70854795,27.4795197 9.50878789,27.4859997 C12.6703079,27.4895997 15.8311078,27.4899597 18.9926278,27.4906797 L18.9926278,24.6077997 C15.8325478,24.6070797 12.6724679,24.6095997 9.51238789,24.6059997 C6.16726793,24.6016797 3.40534796,22.1493597 2.94562797,18.7754398 C2.49598797,15.4792798 4.41658795,12.3785999 7.51294791,11.4022799 C7.90606791,11.2780799 8.3557079,11.2042799 8.7833879,11.1434399 C9.71254789,11.0105999 10.2935879,10.3769999 10.3371479,9.44891989 C10.4444279,7.16651992 11.3480279,5.42807994 13.0994278,4.13423995 C14.2143478,3.31091996 15.5225878,2.88179997 16.8733078,2.88179997 C17.2667878,2.88179997 17.6635078,2.91779997 18.0602278,2.99195997 C19.8375478,3.32135996 21.3542278,4.34591995 22.3312677,5.87735993 C22.3759077,5.94755993 22.4230677,6.01703993 22.4695077,6.08579993 L23.2525077,7.25291992 L24.4077477,6.61967992 C26.1184677,5.68187993 28.1211477,5.54507994 29.9027877,6.24491993 C31.7330276,6.96383992 33.1503476,8.4833999 33.7911476,10.4147999 L34.1810276,11.5891199 L35.4010676,11.3803199 C35.5749476,11.3507999 35.7484676,11.3173199 35.9216276,11.2845599 C36.2524676,11.2211999 36.5645876,11.1610799 36.8554676,11.1329999 C38.7904676,10.9465199 40.4230675,11.4861599 41.8465075,12.7889999 C43.4578675,14.2635598 44.2534675,16.3609198 44.0295475,18.5428798 C43.8056275,20.7262798 42.5996275,22.6195197 40.7215075,23.7369597 C39.7354675,24.3230397 38.6608676,24.6081597 37.4361476,24.6085197 L31.4212676,24.6103197 C30.1832277,24.6106797 28.9455477,24.6092397 27.7075077,24.6095997 L27.7075077,27.4910397 C28.9459077,27.4906797 30.1843077,27.4906797 31.4223476,27.4903197 L37.4368676,27.4885197 C39.1699075,27.4881597 40.7704675,27.0586797 42.1939075,26.2119597 C44.8633075,24.6239997 46.5761875,21.9362397 46.8944275,18.8366398 C47.2123075,15.7395598 46.0811875,12.7605599 43.7908675,10.6642799" id="Fill-4" fill="#13B2F3"></path>
            </g>
        </g>
    </g>
</svg>