<?xml version="1.0" encoding="UTF-8"?>
<svg width="106px" height="91px" viewBox="0 0 106 91" version="1.1" xmlns="http://www.w3.org/2000/svg" xmlns:xlink="http://www.w3.org/1999/xlink">
    <!-- Generator: Sketch 50.2 (55047) - http://www.bohemiancoding.com/sketch -->
    <title>Group</title>
    <desc>Created with Sketch.</desc>
    <defs>
        <polygon id="path-1" points="0.948914286 0.446228916 91.4079143 0.446228916 91.4079143 90.9996711 0.948914286 90.9996711"></polygon>
        <polygon id="path-3" points="0 0.468030769 30.8847464 0.468030769 30.8847464 27.8358769 0 27.8358769"></polygon>
        <polygon id="path-5" points="0 91 106 91 106 0 0 0"></polygon>
    </defs>
    <g id="Symbols" stroke="none" stroke-width="1" fill="none" fill-rule="evenodd">
        <g id="Footer-YDA" transform="translate(-302.000000, -79.000000)">
            <g id="Group-2" transform="translate(302.000000, 79.000000)">
                <g id="Group">
                    <g id="Group-3" transform="translate(14.000000, 0.000000)">
                        <mask id="mask-2" fill="white">
                            <use xlink:href="#path-1"></use>
                        </mask>
                        <g id="Clip-2"></g>
                        <path d="M91.4079143,45.7233337 C91.4079143,70.7296952 71.1580571,90.9996711 46.1789619,90.9996711 C21.1987714,90.9996711 0.948914286,70.7296952 0.948914286,45.7233337 C0.948914286,20.7169723 21.1987714,0.4459 46.1789619,0.4459 C71.1580571,0.4459 91.4079143,20.7169723 91.4079143,45.7233337" id="Fill-1" fill="#13B2F3" mask="url(#mask-2)"></path>
                    </g>
                    <g id="Group-6" transform="translate(0.000000, 55.000000)">
                        <mask id="mask-4" fill="white">
                            <use xlink:href="#path-3"></use>
                        </mask>
                        <g id="Clip-5"></g>
                        <polygon id="Fill-4" fill="#13B2F3" mask="url(#mask-4)" points="30.8847464 17.4091077 -0.000110714286 27.8358769 23.3783179 0.468030769"></polygon>
                    </g>
                    <polygon id="Fill-7" fill="#231F20" points="88 33.4141836 61 11 34 33.4141836 61 54"></polygon>
                    <polygon id="Fill-9" fill="#231F20" points="34 33 34 33.413 34.234 33.178"></polygon>
                    <polygon id="Fill-11" fill="#231F20" points="87.235 33 87 33.178 87.235 33.413"></polygon>
                    <mask id="mask-6" fill="white">
                        <use xlink:href="#path-5"></use>
                    </mask>
                    <g id="Clip-14"></g>
                    <polygon id="Fill-13" fill="#FFFFFF" mask="url(#mask-6)" points="42 63 82 63 82 19 42 19"></polygon>
                    <polygon id="Fill-15" fill="#231F20" mask="url(#mask-6)" points="34.0727326 33 34 33.0658561 53 46"></polygon>
                    <polygon id="Fill-16" fill="#414042" mask="url(#mask-6)" points="88 70 88 36.3629442 88 33.2566801 87.7462203 33 61 53.4354331 82.8768898 70"></polygon>
                    <polygon id="Fill-17" fill="#231F20" mask="url(#mask-6)" points="61 54.9695805 52 48 60.9602423 55"></polygon>
                    <polygon id="Fill-18" fill="#58595B" mask="url(#mask-6)" points="34 36.2975584 34 70 84 70 61.6549746 53.4021441 61.6163689 53.4315672 52.9157291 46.9105528 34.1864108 33 34 33.1852561"></polygon>
                </g>
            </g>
        </g>
    </g>
</svg>