<?xml version="1.0" encoding="UTF-8"?>
<svg width="50px" height="51px" viewBox="0 0 50 51" version="1.1" xmlns="http://www.w3.org/2000/svg" xmlns:xlink="http://www.w3.org/1999/xlink">
    <title>Group 6 Copy</title>
    <defs>
        <polygon id="path-1" points="0 0.289547999 49.2284518 0.289547999 49.2284518 49.517962 0 49.517962"></polygon>
    </defs>
    <g id="Page-1" stroke="none" stroke-width="1" fill="none" fill-rule="evenodd">
        <g id="iPhone-8" transform="translate(-14.000000, -44.000000)">
            <g id="Group-6-Copy" transform="translate(14.000000, 44.000000)">
                <g id="Group-3" transform="translate(0.000000, 0.088452)">
                    <mask id="mask-2" fill="white">
                        <use xlink:href="#path-1"></use>
                    </mask>
                    <g id="Clip-2"></g>
                    <path d="M49.2286786,24.9037361 C49.2286786,38.4977501 38.2084667,49.517962 24.6144527,49.517962 C11.0200608,49.517962 -0.000151199999,38.4977501 -0.000151199999,24.9037361 C-0.000151199999,11.3097222 11.0200608,0.289510199 24.6144527,0.289510199 C38.2084667,0.289510199 49.2286786,11.3097222 49.2286786,24.9037361" id="Fill-1" fill="#13B2F3" mask="url(#mask-2)"></path>
                </g>
                <path d="M32.8142933,21.1909445 C31.7823533,21.1909445 30.9428153,20.3514065 30.9428153,19.3194665 C30.9428153,18.2875265 31.7823533,17.4479885 32.8142933,17.4479885 C33.8462333,17.4479885 34.6857713,18.2875265 34.6857713,19.3194665 C34.6857713,20.3514065 33.8462333,21.1909445 32.8142933,21.1909445 M26.4858173,33.5054285 C26.4858173,34.5373685 25.6462793,35.3765285 24.6143393,35.3765285 C23.5823993,35.3765285 22.7424833,34.5373685 22.7424833,33.5054285 C22.7424833,32.4734885 23.5823993,31.6335725 24.6143393,31.6335725 C25.6462793,31.6335725 26.4858173,32.4734885 26.4858173,33.5054285 M16.4143853,21.1909445 C15.3824453,21.1909445 14.5429073,20.3514065 14.5429073,19.3194665 C14.5429073,18.2875265 15.3824453,17.4479885 16.4143853,17.4479885 C17.4463253,17.4479885 18.2858633,18.2875265 18.2858633,19.3194665 C18.2858633,20.3514065 17.4463253,21.1909445 16.4143853,21.1909445 M32.8142933,15.4993985 C30.7080773,15.4993985 28.9946033,17.2132505 28.9946033,19.3194665 C28.9946033,19.6706285 29.0460113,20.0089385 29.1348413,20.3321285 L24.6143393,23.3239985 L20.0938373,20.3321285 C20.1826673,20.0089385 20.2340753,19.6706285 20.2340753,19.3194665 C20.2340753,17.2132505 18.5206013,15.4993985 16.4143853,15.4993985 C14.3081693,15.4993985 12.5943174,17.2132505 12.5943174,19.3194665 C12.5943174,21.4256825 14.3081693,23.1391565 16.4143853,23.1391565 C17.3635433,23.1391565 18.2310533,22.7891285 18.8997353,22.2141905 L23.5003733,25.2589805 L23.5003733,29.8520585 C21.9358313,30.3298505 20.7942713,31.7862845 20.7942713,33.5054285 C20.7942713,35.6116445 22.5077453,37.3251185 24.6143393,37.3251185 C26.7205553,37.3251185 28.4340293,35.6116445 28.4340293,33.5054285 C28.4340293,31.7862845 27.2928473,30.3302285 25.7283053,29.8520585 L25.7283053,25.2589805 L30.3285653,22.2141905 C30.9976253,22.7891285 31.8651353,23.1391565 32.8142933,23.1391565 C34.9205093,23.1391565 36.6339833,21.4256825 36.6339833,19.3194665 C36.6339833,17.2132505 34.9205093,15.4993985 32.8142933,15.4993985" id="Fill-4" fill="#FFFFFF"></path>
            </g>
        </g>
    </g>
</svg>