<?xml version="1.0" encoding="UTF-8"?>
<svg width="20px" height="20px" viewBox="0 0 20 20" version="1.1" xmlns="http://www.w3.org/2000/svg" xmlns:xlink="http://www.w3.org/1999/xlink">
    <title>whatsapp [#128]</title>
    <g id="Page-1" stroke="none" stroke-width="1" fill="none" fill-rule="evenodd">
        <g id="1" transform="translate(-270.000000, -934.000000)" fill="#FFFFFF">
            <g id="Group-2" transform="translate(187.000000, 934.000000)">
                <path d="M98.821,14.1212364 C98.58,14.803441 97.622,15.3676103 96.858,15.5326598 C96.335,15.6436931 95.653,15.7317195 93.355,14.7794338 C90.774,13.710113 87.19,9.90097029 87.19,7.36620986 C87.19,6.07582275 87.934,4.57337201 89.235,4.57337201 C89.861,4.57337201 89.999,4.58537561 90.205,5.07952386 C90.446,5.66169851 91.034,7.09612884 91.104,7.24317295 C91.393,7.84635391 90.81,8.19945984 90.387,8.72461739 C90.252,8.8826648 90.099,9.05371611 90.27,9.34780434 C90.44,9.63589077 91.028,10.5941783 91.892,11.363409 C93.008,12.3577073 93.913,12.6748024 94.237,12.809843 C94.478,12.909873 94.766,12.8868661 94.942,12.6988096 C95.165,12.4577373 95.442,12.0576173 95.724,11.663499 C95.923,11.3814144 96.176,11.3464039 96.441,11.4464339 C96.62,11.5084525 98.895,12.5647694 98.991,12.7338201 C99.062,12.8568571 99.062,13.4390317 98.821,14.1212364 M93.002,0 L92.997,0 L92.997,0 C87.484,0 83,4.4853456 83,10 C83,12.186656 83.705,14.2152646 84.904,15.8607582 L83.658,19.5768731 L87.501,18.3485046 C89.082,19.3948184 90.969,20 93.002,20 C98.515,20 103,15.5146544 103,10 C103,4.4853456 98.515,0 93.002,0" id="whatsapp-[#128]"></path>
            </g>
        </g>
    </g>
</svg>