<svg width="23" height="28" viewBox="0 0 23 28" xmlns="http://www.w3.org/2000/svg"><title>Page 1</title><path d="M1.5 9C.672 9 0 9.794 0 10.774v7.452C0 19.206.672 20 1.5 20S3 19.206 3 18.226v-7.452C3 9.794 2.328 9 1.5 9M23 10.774C23 9.794 22.328 9 21.5 9s-1.5.794-1.5 1.774v7.452c0 .98.672 1.774 1.5 1.774s1.5-.794 1.5-1.774v-7.452zM4.082 9H4v11.502c0 .96.746 1.745 1.657 1.745h1.397v4.009c0 .963.743 1.744 1.658 1.744.915 0 1.657-.78 1.657-1.744v-4.009h2.262v4.009c0 .963.742 1.744 1.657 1.744s1.657-.78 1.658-1.744v-4.009h1.397c.911 0 1.657-.785 1.657-1.745V9H4.083zm4-4.288c.39 0 .706.333.706.744 0 .41-.316.744-.706.744-.39 0-.706-.333-.706-.744 0-.41.316-.744.706-.744zm6.836 0c.39 0 .706.333.706.744 0 .41-.316.744-.706.744-.39 0-.706-.333-.706-.744 0-.41.316-.744.706-.744zM19 9v-.844a6.662 6.662 0 0 0-.102-.707c-.412-2.052-1.77-3.79-3.634-4.8L16.411.42a.292.292 0 0 0-.109-.386.263.263 0 0 0-.366.115l-1.16 2.257a7.89 7.89 0 0 0-3.262-.697 7.89 7.89 0 0 0-3.284.707L7.064.15a.263.263 0 0 0-.366-.115.292.292 0 0 0-.109.386l1.153 2.24c-1.777.97-3.09 2.604-3.557 4.539a6.659 6.659 0 0 0-.18 1.8H19z" fill="#FFF" fill-rule="evenodd"/></svg>