<?xml version="1.0" encoding="UTF-8"?>
<svg width="20px" height="20px" viewBox="0 0 20 20" version="1.1" xmlns="http://www.w3.org/2000/svg" xmlns:xlink="http://www.w3.org/1999/xlink">
    <title>linkedin [#161]</title>
    <g id="Page-1" stroke="none" stroke-width="1" fill="none" fill-rule="evenodd">
        <g id="1" transform="translate(-229.000000, -934.000000)" fill="#FFFFFF">
            <g id="Group-2" transform="translate(187.000000, 934.000000)">
                <path d="M62,20 L58,20 L58,13.001 C58,11.081 57.153,10.01 55.634,10.01 C53.981,10.01 53,11.126 53,13.001 L53,20 L49,20 L49,7 L53,7 L53,8.462 C53,8.462 54.255,6.26 57.083,6.26 C59.912,6.26 62,7.986 62,11.558 L62,20 L62,20 Z M44.442,4.921 C43.093,4.921 42,3.819 42,2.46 C42,1.102 43.093,0 44.442,0 C45.79,0 46.883,1.102 46.883,2.46 C46.884,3.819 45.79,4.921 44.442,4.921 L44.442,4.921 Z M42,20 L47,20 L47,7 L42,7 L42,20 Z" id="linkedin-[#161]"></path>
            </g>
        </g>
    </g>
</svg>