<?xml version="1.0" encoding="UTF-8"?>
<svg width="111px" height="104px" viewBox="0 0 111 104" version="1.1" xmlns="http://www.w3.org/2000/svg" xmlns:xlink="http://www.w3.org/1999/xlink">
    <!-- Generator: Sketch 50.2 (55047) - http://www.bohemiancoding.com/sketch -->
    <title>Page 1</title>
    <desc>Created with Sketch.</desc>
    <defs>
        <polygon id="path-1" points="5.40451614e-15 21.00744 5.40451614e-15 0.00090213152 68.1587755 0.00090213152 68.1587755 21.00744"></polygon>
        <polygon id="path-3" points="5.01700281 4.74310667 0.281451732 4.74310667 0.281451732 0.113058415 5.01700281 0.113058415 5.01700281 4.74310667"></polygon>
        <polygon id="path-5" points="0 104 111 104 111 0 0 0"></polygon>
    </defs>
    <g id="Page-1" stroke="none" stroke-width="1" fill="none" fill-rule="evenodd">
        <g id="Mobile-Dispatchers" transform="translate(-547.000000, -992.000000)">
            <g id="Page-1" transform="translate(547.000000, 992.000000)">
                <path d="M111,41.8885238 C111,48.4067363 106.324423,53.8274807 100.152207,54.9732994 L100.152207,55.0252991 L99.8605239,55.0252991 C99.1633966,55.1384214 98.4494326,55.2 97.7204522,55.2 C96.9919268,55.2 96.2775078,55.1384214 95.5808355,55.0252991 L40.1564814,55.0252991 C39.3988332,55.1397898 38.6234383,55.2 37.833482,55.2 C29.2877565,55.2 22.3597122,48.2548423 22.3597122,39.6885701 C22.3597122,31.1218417 29.2877565,24.1766841 37.833482,24.1766841 C38.5178681,24.1766841 39.1899681,24.225947 39.8506919,24.3121571 C39.5840361,22.999848 39.4434275,21.6410128 39.4434275,20.2497918 C39.4434275,9.06619951 48.4878812,0 59.644649,0 C70.700397,0 79.6770492,8.90381437 79.8385898,19.9482845 C81.1254541,19.3379718 82.5629379,18.9958683 84.0814196,18.9958683 C89.5687947,18.9958683 94.0173044,23.4550737 94.0173044,28.9551861 C94.0173044,29.0062736 94.0141191,29.0559926 94.0136641,29.1066239 C95.1904078,28.7640643 96.4335879,28.5765915 97.7204522,28.5765915 C105.054851,28.5765915 111,34.5369472 111,41.8885238 Z" id="Fill-1" fill="#C6EBF4"></path>
                <g id="Group-5" transform="translate(0.000000, 24.000000)">
                    <mask id="mask-2" fill="white">
                        <use xlink:href="#path-1"></use>
                    </mask>
                    <g id="Clip-4"></g>
                    <path d="M38.0836539,9.16879818 C36.043252,8.28774456 34.0119753,8.1605215 32.0354501,9.47938543 C31.6207083,8.97728447 31.2671056,8.47020325 30.8350258,8.04054246 C28.9442777,6.15800342 26.1683822,6.09642928 24.2279016,7.950445 C23.6502744,8.50189583 23.1447366,8.69340954 22.3494726,8.53811591 C20.9108798,8.25786299 19.5480264,8.71287783 18.8056887,9.91764849 C18.2239552,10.8620873 17.6130209,11.2102529 16.5900824,11.153659 C16.2437799,11.1341907 15.8897209,11.2568862 15.5242553,11.3171021 C14.9233588,10.3124474 14.4442841,9.24621862 13.730691,8.366976 C11.442539,5.54588395 7.59853506,4.77575434 4.38827844,6.31329705 C0.804799836,8.03012919 -0.518815065,11.4302899 0.179721444,15.1011957 C0.816662638,18.4465736 4.17566054,20.9647751 7.74545129,20.9656806 C25.5428475,20.9697554 43.3402437,20.9149725 61.1367274,21.0073337 C64.7599008,21.0263493 67.5472029,18.4895849 68.0157836,15.9754581 C68.5669476,13.0153715 67.591004,9.8194015 63.9272234,8.29906334 C63.3801657,8.07178229 62.9366795,7.23872028 62.7409432,6.59717198 C61.7531369,3.35456866 59.6602649,1.25063434 56.400732,0.320230847 C53.0754975,-0.628735441 49.4272297,0.580109974 47.312001,3.37811172 C46.6020579,4.31621198 46.0732507,4.77937635 44.7218039,4.34156604 C42.5025474,3.62259731 39.8042163,5.08634159 38.8191476,7.21970473 C38.5449343,7.81326141 38.354217,8.44394369 38.0836539,9.16879818" id="Fill-3" fill="#AAC7CC" mask="url(#mask-2)"></path>
                </g>
                <path d="M3.99280576,77.6 C13.5732411,78.3895575 21.3999927,84.0537542 28.4957016,89.4643439 C35.5909557,94.8744774 43.3522,100.576533 52.9185331,101.475105 C62.4038919,102.365923 71.4243312,98.3264536 79.8561151,94.6044496" id="Stroke-6" stroke="#BFBFBF" stroke-width="1.0079999" stroke-dasharray="1.007999932289124,2.519999735355384,1.007999932289124,2.519999735355384,1.007999932289124,2.519999735355384"></path>
                <path d="M90.2374101,20.8 C82.2991663,20.8 75.8633094,27.1546699 75.8633094,34.9927743 C75.8633094,37.3289237 76.4453068,39.5271738 77.458193,41.4708754 L90.2222992,64 L102.806449,41.8710093 C103.953501,39.833265 104.611511,37.4898815 104.611511,34.9927743 C104.611511,27.1546699 98.1756538,20.8 90.2374101,20.8" id="Fill-8" fill="#00ADF3"></path>
                <path d="M92.6330935,91.2 C92.6330935,92.5253865 91.5604128,93.6 90.2374101,93.6 C88.9144074,93.6 87.8417266,92.5253865 87.8417266,91.2 C87.8417266,89.8741665 88.9144074,88.8 90.2374101,88.8 C91.5604128,88.8 92.6330935,89.8741665 92.6330935,91.2" id="Fill-10" fill="#626262"></path>
                <path d="M89.4388489,67.2 L89.4388489,74.4" id="Stroke-12" stroke="#BFBFBF" stroke-width="0.503999948"></path>
                <path d="M50.3093525,52.8 C45.8990997,52.8 42.323741,56.447854 42.323741,60.9475306 C42.323741,62.2887275 42.6466506,63.5506531 43.2093844,64.666408 L50.3008194,77.6 L57.2921031,64.8964322 C57.9293891,63.7266079 58.294964,62.3812871 58.294964,60.9475306 C58.294964,56.447854 54.7196053,52.8 50.3093525,52.8" id="Fill-14" fill="#626262"></path>
                <g id="Group-18" transform="translate(47.913669, 98.400000)">
                    <mask id="mask-4" fill="white">
                        <use xlink:href="#path-3"></use>
                    </mask>
                    <g id="Clip-17"></g>
                    <path d="M5.01700281,2.42812566 C5.01700281,3.70660851 3.95681798,4.74319291 2.64922727,4.74319291 C1.34163657,4.74319291 0.281451732,3.70660851 0.281451732,2.42812566 C0.281451732,1.14921163 1.34163657,0.113058415 2.64922727,0.113058415 C3.95681798,0.113058415 5.01700281,1.14921163 5.01700281,2.42812566" id="Fill-16" fill="#626262" mask="url(#mask-4)"></path>
                </g>
                <path d="M50.3093525,80.8 L50.3093525,96" id="Stroke-19" stroke="#BFBFBF" stroke-width="0.503999948"></path>
                <path d="M15.9710017,38.4 C12.4428682,38.4 9.58273381,41.3416987 9.58273381,44.9709017 C9.58273381,46.0522412 9.84125702,47.0698386 10.2914593,47.9699684 L15.9643615,58.4 L21.557582,48.1552758 C22.0671029,47.2118925 22.3597122,46.1269106 22.3597122,44.9709017 C22.3597122,41.3416987 19.4995779,38.4 15.9710017,38.4" id="Fill-21" fill="#626262"></path>
                <path d="M18.3669065,81.6 C18.3669065,82.9253865 17.2943256,84 15.9714461,84 C14.6485666,84 13.5755396,82.9253865 13.5755396,81.6 C13.5755396,80.2741665 14.6485666,79.2 15.9714461,79.2 C17.2943256,79.2 18.3669065,80.2741665 18.3669065,81.6" id="Fill-23" fill="#626262"></path>
                <path d="M15.971223,61.6 L15.971223,76.8" id="Stroke-25" stroke="#BFBFBF" stroke-width="0.503999948"></path>
                <path d="M20.7625899,45.2002379 C20.7625899,47.6296448 18.7962534,49.6 16.3702662,49.6 C13.9452286,49.6 11.9784173,47.6296448 11.9784173,45.2002379 C11.9784173,42.7703552 13.9452286,40.8 16.3702662,40.8 C18.7962534,40.8 20.7625899,42.7703552 20.7625899,45.2002379" id="Fill-27" fill="#FFFFFF"></path>
                <path d="M55.8992806,61.2 C55.8992806,64.0719551 53.5754228,66.4 50.7086331,66.4 C47.8418434,66.4 45.5179856,64.0719551 45.5179856,61.2 C45.5179856,58.3280449 47.8418434,56 50.7086331,56 C53.5754228,56 55.8992806,58.3280449 55.8992806,61.2" id="Fill-29" fill="#FFFFFF"></path>
                <path d="M100.618705,35.1997717 C100.618705,40.9435767 95.9707586,45.6 90.2374101,45.6 C84.5040615,45.6 79.8561151,40.9435767 79.8561151,35.1997717 C79.8561151,29.4559666 84.5040615,24.8 90.2374101,24.8 C95.9707586,24.8 100.618705,29.4559666 100.618705,35.1997717" id="Fill-31" fill="#FFFFFF"></path>
                <mask id="mask-6" fill="white">
                    <use xlink:href="#path-5"></use>
                </mask>
                <g id="Clip-34"></g>
                <polygon id="Fill-33" fill="#626262" mask="url(#mask-6)" points="84.647482 32 95.028777 32 95.028777 30.4 84.647482 30.4"></polygon>
                <polygon id="Fill-35" fill="#626262" mask="url(#mask-6)" points="84.647482 36 95.028777 36 95.028777 34.4 84.647482 34.4"></polygon>
                <polygon id="Fill-36" fill="#626262" mask="url(#mask-6)" points="84.647482 39.2 90.2374101 39.2 90.2374101 37.6 84.647482 37.6"></polygon>
                <polygon id="Fill-37" fill="#EDD000" mask="url(#mask-6)" points="93.4316547 92.8 99.0215827 92.8 99.0215827 89.6 93.4316547 89.6"></polygon>
                <polygon id="Fill-38" fill="#FFFFFF" mask="url(#mask-6)" points="99.8201439 88 79.8561151 88 82.6686251 80.8 97.6324314 80.8"></polygon>
                <polygon id="Fill-39" fill="#EDD000" mask="url(#mask-6)" points="80.6546763 92.8 86.2446043 92.8 86.2446043 89.6 80.6546763 89.6"></polygon>
                <polygon id="Fill-40" fill="#000000" mask="url(#mask-6)" points="79.8561151 99.2 83.4694393 99.2 83.8489209 96.8 79.8561151 96.8"></polygon>
                <polygon id="Fill-41" fill="#000000" mask="url(#mask-6)" points="96.0635092 99.2 99.0215827 99.2 99.0215827 96.8 95.8273381 96.8"></polygon>
                <polygon id="Fill-42" fill="#4B4B4B" mask="url(#mask-6)" points="83.8489209 96.8 83.8489209 96.8 96.6258993 96.8"></polygon>
                <path d="M98.8303354,93.2915928 L94.1763611,93.2915928 L94.1763611,90.4801235 L99.1465398,90.4801235 L98.8303354,93.2915928 Z M80.9451702,87.9797221 L83.0224252,81.7227889 C83.0727409,81.5704478 83.1184405,81.4285972 83.340476,81.4217556 L96.5421237,81.4222117 C96.7526188,81.4340706 96.7973952,81.5731845 96.8301697,81.6744411 L98.9240427,87.9801782 C96.0551228,87.872992 93.0398718,87.8146098 89.924451,87.8146098 C86.8168776,87.8146098 83.8085508,87.8725359 80.9451702,87.9797221 Z M85.8853441,93.2915928 L81.2313698,93.2915928 L80.9151654,90.4801235 L85.8853441,90.4801235 L85.8853441,93.2915928 Z M99.9081999,96.8 L100.793111,89.9291412 L103.014388,89.6837534 L103.014388,86.8973702 L100.341192,87.2098064 L98.2454727,81.2534505 C97.810634,79.9640242 96.541662,80.0360898 96.541662,80.0360898 L94.1075808,80.0360898 L93.6058084,77.6 L86.4305081,77.6 L85.9287357,80.0360898 L83.4152572,80.0360898 C83.4152572,80.0360898 82.1462852,79.9640242 81.7114465,81.2534505 L79.6018787,87.249032 L76.6618705,86.8973702 L76.6618705,89.6837534 L79.169348,89.9715596 L80.0307164,96.6631666 L80.0307164,96.8 L83.7176132,96.8 L96.298854,96.8 L99.9012757,96.8 L99.9081999,96.8 Z" id="Fill-43" fill="#626262" mask="url(#mask-6)"></path>
                <path d="M94.2220366,84 C92.618419,84 91.2909719,84.9999314 91.0359712,86.3098456 C91.3790193,86.3110806 91.7235108,86.3119039 92.0646344,86.3139623 C92.3032766,85.4819897 93.1770148,84.8603774 94.2220366,84.8603774 C95.2944829,84.8603774 96.1917967,85.5120412 96.4030142,86.3765352 C96.7441378,86.3843568 97.0862237,86.3917667 97.4244604,86.4 C97.2142051,85.0456261 95.8622203,84 94.2220366,84" id="Fill-44" fill="#4B4B4B" mask="url(#mask-6)"></path>
            </g>
        </g>
    </g>
</svg>