<svg width="26" height="26" viewBox="0 0 26 26" xmlns="http://www.w3.org/2000/svg" xmlns:xlink="http://www.w3.org/1999/xlink"><title>Page 1</title><defs><path id="a" d="M0 26h26V0H0z"/></defs><g fill="none" fill-rule="evenodd"><mask id="b" fill="#fff"><use xlink:href="#a"/></mask><path d="M8.209 9.059c.814-.002 1.439-.432 1.616-1.114.212-.818-.225-1.615-1.017-1.857-.92-.28-1.865.123-2.149.914-.379 1.058.375 2.059 1.55 2.057zm-1.45 10.054H9.66V10.29h-2.9v8.823zm13.52.005c.008-.096.017-.161.017-.226 0-1.626.009-3.251-.007-4.876a6.405 6.405 0 0 0-.137-1.292c-.286-1.312-1.008-2.258-2.375-2.556-1.378-.301-2.57-.004-3.424 1.212-.014.02-.038.033-.1.085v-1.168h-2.919v8.816h2.923v-.324c0-1.568.003-3.137 0-4.706-.002-.58.226-1.048.683-1.394.846-.642 2-.27 2.284.748.094.34.124.708.128 1.063.014 1.427.006 2.854.006 4.281v.337h2.922zM12.993 0C20.15-.016 25.978 5.792 26 12.964c.022 7.186-5.803 13.03-12.994 13.036C5.826 26.006.01 20.194 0 13.006-.01 5.826 5.795.016 12.992 0z" fill="#FFF" mask="url(#b)"/></g></svg>