<?xml version="1.0" encoding="UTF-8"?>
<svg width="102px" height="106px" viewBox="0 0 102 106" version="1.1" xmlns="http://www.w3.org/2000/svg" xmlns:xlink="http://www.w3.org/1999/xlink">
    <!-- Generator: Sketch 50.2 (55047) - http://www.bohemiancoding.com/sketch -->
    <title>Page 1</title>
    <desc>Created with Sketch.</desc>
    <defs>
        <polygon id="path-1" points="0.246967238 3.31220525 9.08256846 3.31220525 9.08256846 0.0995869713 0.246967238 0.0995869713 0.246967238 3.31220525"></polygon>
        <polygon id="path-3" points="0.237341848 3.31220525 9.07294307 3.31220525 9.07294307 0.0995869713 0.237341848 0.0995869713"></polygon>
        <polygon id="path-5" points="36.9380235 0.434918028 36.9380235 37.5244829 0.125633687 37.5244829 0.125633687 0.434918028 36.9380235 0.434918028"></polygon>
        <polygon id="path-7" points="0 105.203008 101.203125 105.203008 101.203125 0 0 0"></polygon>
    </defs>
    <g id="Page-1" stroke="none" stroke-width="1" fill="none" fill-rule="evenodd">
        <g id="Mobile-Dispatchers" transform="translate(-817.000000, -991.000000)">
            <g id="Page-1" transform="translate(817.000000, 991.000000)">
                <path d="M56.7941062,9.73894822 C58.9172094,8.80298405 61.0312696,8.66811156 63.0875549,10.0682407 C63.5191085,9.53587606 63.8873609,8.99689506 64.3364982,8.54036441 C66.3043627,6.54017996 69.192607,6.475034 71.2117153,8.44468129 C71.8125746,9.03048594 72.3385777,9.23406706 73.1665176,9.06967531 C74.6631396,8.77193793 76.0813886,9.25442517 76.8540655,10.5344414 C77.4594464,11.5380963 78.0949706,11.908105 79.1595366,11.8475396 C79.5192483,11.8271815 79.8875008,11.9569645 80.2683129,12.0210925 C80.893287,10.9538185 81.3916586,9.82088962 82.1341921,8.88696126 C84.5155241,5.89024725 88.5155591,5.07236013 91.8554526,6.70558962 C95.5841966,8.5296764 96.961752,12.1417143 96.2347926,16.0408016 C95.5721392,19.5948189 92.0765046,22.2698748 88.3623299,22.2708927 C69.8437053,22.2754732 51.3245784,22.2174526 32.8064562,22.3156805 C29.0365162,22.3355297 26.1362145,19.6401157 25.6488955,16.9696405 C25.0751653,13.8248212 26.090497,10.4295972 29.9031402,8.81519891 C30.4723489,8.57395529 30.934046,7.6888864 31.1375142,7.00739862 C32.1654056,3.56280616 34.3432694,1.32748553 37.7349092,0.339099217 C41.1948742,-0.668627299 44.9904361,0.614951627 47.1919123,3.58774485 C47.9299242,4.5842744 48.4810469,5.0759228 49.8867361,4.6112489 C52.1962263,3.84781972 55.0040881,5.40216153 56.0289651,7.66852829 C56.3143231,8.29861184 56.5127674,8.96890266 56.7941062,9.73894822 Z" id="Fill-1" fill="#EAF7F9"></path>
                <path d="M37.4014564,20.2012549 C35.3976235,19.3323782 33.4023176,19.206896 31.4616844,20.5072115 C31.0543972,20.0122817 30.7067987,19.5123527 30.2829592,19.0879129 C28.4255892,17.2311765 25.6994736,17.170685 23.7939514,18.9994255 C23.2266585,19.5438482 22.7300891,19.7328214 21.949121,19.5798431 C20.5361554,19.3028824 19.1979261,19.7518187 18.4686212,20.9406499 C17.8973157,21.8720178 17.2974198,22.2149691 16.2927446,22.158977 C15.9526698,22.1399797 15.6050713,22.2609625 15.2464379,22.3204541 C14.6560721,21.3295947 14.1855851,20.2772441 13.4848706,19.4098672 C11.2377689,16.6277621 7.46233703,15.86787 4.309874,17.3846547 C0.790250608,19.0784143 -0.509858248,22.4324382 0.1768119,26.0529243 C0.802288653,29.3534559 4.10071297,31.8371033 7.60679357,31.8381032 C25.0850317,31.8426026 42.5637714,31.7886102 60.0420095,31.8795973 C63.5997534,31.8980947 66.3374054,29.3959498 66.7968575,26.9158019 C67.3385695,23.9957163 66.3805418,20.8426639 62.7821695,19.3433767 C62.2449717,19.1194084 61.8090942,18.2970252 61.6169871,17.6646149 C60.6469213,14.4660689 58.5919267,12.3903635 55.3903083,11.4729937 C52.1249886,10.5366267 48.5421655,11.7294573 46.464098,14.4890657 C45.7673961,15.4149342 45.2477538,15.8713695 43.921061,15.4399307 C41.7411717,14.7305314 39.091297,16.1743265 38.1237391,18.2785278 C37.8543879,18.8639447 37.6672966,19.4863564 37.4014564,20.2012549" id="Fill-3" fill="#C6EBF4"></path>
                <path d="M42.5191208,41.443609 L40.640625,54.0947929 C40.640625,54.0947929 43.4299369,56.6720475 43.4299369,56.584274 C43.4299369,56.5817076 43.4299369,56.5657954 43.4299369,56.5380775 L43.4299369,56.584274 C43.4299369,56.6720475 46.21875,54.0947929 46.21875,54.0947929 L44.340753,41.443609 L42.5191208,41.443609 Z" id="Fill-5" fill="#FEBE1C"></path>
                <polygon id="Fill-7" fill="#FEBE1C" points="42.5207211 40.6466165 44.3386539 40.6466165 44.625 39.0526316 43.4559055 39.3185184 42.234375 39.0526316"></polygon>
                <path d="M54.1660283,67.7443609 C54.1660283,67.7443609 54.603404,70.9939202 51.5301416,73.3233083 L50.203125,69.3102133 L54.1660283,67.7443609 Z" id="Fill-9" fill="#DDC2B8"></path>
                <path d="M32.6933442,67.7443609 C32.6933442,67.7443609 32.2560195,70.9939202 35.3289231,73.3233083 L36.65625,69.3102133 L32.6933442,67.7443609 Z" id="Fill-11" fill="#DDC2B8"></path>
                <path d="M47.0994808,39.0526316 L52.7614615,40.9218808 C52.7614615,40.9218808 54.7872404,41.6795471 54.6391442,44.2749355 L54.984375,68.5883961 L51.7934423,69.6643839 L48.7682596,102.81203 L44.7000288,102.81203 L43.03125,75.2894205 L43.03125,55.4944987 L47.0994808,39.0526316 Z" id="Fill-13" fill="#231F20"></path>
                <path d="M39.7692193,39.0526316 L34.120706,40.9218808 C34.120706,40.9218808 32.0452627,41.928204 32.246838,44.2749355 L31.875,68.5883961 L35.0860171,69.6643839 L38.1042656,102.81203 L42.1631713,102.81203 L43.828125,75.2894205 L43.828125,55.4944987 L39.7692193,39.0526316 Z" id="Fill-15" fill="#231F20"></path>
                <path d="M49.3674385,32.4196771 C49.2320334,33.0753713 48.7832475,33.5432364 48.3647226,33.4651776 C47.9461977,33.3866309 47.7159064,32.792408 47.8513115,32.1367139 C47.9867166,31.4810197 48.4355025,31.0131545 48.8540274,31.0912134 C49.2725523,31.1692722 49.5028436,31.7639829 49.3674385,32.4196771" id="Fill-17" fill="#DDC2B8"></path>
                <path d="M38.2886221,32.4196771 C38.4240434,33.0753713 38.8728829,33.5432364 39.2919707,33.4651776 C39.7100326,33.3866309 39.9403513,32.792408 39.8049301,32.1367139 C39.6695088,31.4810197 39.2206693,31.0131545 38.8020945,31.0912134 C38.3835196,31.1692722 38.1537138,31.7639829 38.2886221,32.4196771" id="Fill-19" fill="#DDC2B8"></path>
                <path d="M48.609375,31.8796992 C48.609375,35.4007183 46.46875,38.2556391 43.828125,38.2556391 C41.1875,38.2556391 39.046875,35.4007183 39.046875,31.8796992 C39.046875,28.3581802 41.1875,25.5037594 43.828125,25.5037594 C46.46875,25.5037594 48.609375,28.3581802 48.609375,31.8796992" id="Fill-21" fill="#DDC2B8"></path>
                <path d="M47.229014,26.085061 C47.653532,25.754754 47.8915193,25.3412658 47.8915193,25.3412658 C47.2394043,25.7204175 46.5798676,25.6657694 46.0539204,25.4950544 C46.1093354,25.2421253 46.1627712,24.9969341 46.2261026,24.7067669 C45.9658503,24.7464231 45.7684345,24.7938171 45.5695345,24.8030057 C44.861015,24.8354077 44.1520006,24.8740966 43.4434811,24.873613 C42.7745436,24.8731294 42.1234181,24.9263267 41.5113799,25.2140758 C40.9542619,25.4761935 40.5257857,25.866952 40.2388155,26.4056957 C40.2081394,26.4637291 40.1443132,26.5295003 40.0839505,26.5444923 C38.5427226,26.929931 38.3002822,27.8405723 38.254268,28.8532557 C38.2196337,29.6163954 38.4027009,30.3553544 38.5531129,31.0962479 C38.5610293,31.1339696 38.5818099,31.1832981 38.612486,31.1997409 C39.0533316,31.4391288 39.1582242,31.876314 39.2918138,32.2956055 L39.3239742,32.6612161 L39.5006094,32.6766917 L39.3675145,30.9057048 C39.3882952,30.4602982 39.4100653,29.9926454 39.4313407,29.6415432 C39.4481631,29.3571794 39.5357385,29.07475 39.6094601,28.7957059 C39.7306803,28.3391762 40.060696,28.1210672 40.5233118,28.0635174 C41.1229806,27.9885576 41.7087956,28.0494927 42.2589868,28.2898478 C42.7903765,28.5224651 43.9921879,28.4629809 44.4790477,28.1921582 C44.6373761,28.1041408 44.7947149,28.0088693 44.9352314,27.8957041 C45.3265994,27.5808727 45.0564516,27.5320279 45.5185726,27.6809804 C46.5976795,28.0282137 47.1953692,28.776845 47.4115864,29.8538488 C47.4803603,30.1996314 47.5135103,30.5458975 47.5283536,30.8926473 L47.3937744,32.6766917 L47.5709043,32.6612161 L47.60257,32.2956055 L47.7133999,31.9004946 C47.8232402,31.6253194 47.9602932,31.369005 48.239347,31.2108639 C48.2804134,31.1876506 48.3125739,31.1238138 48.3195008,31.074969 C48.4234038,30.362125 48.5891538,29.6497646 48.6079553,28.9345025 C48.639621,27.7124151 48.1403918,26.7297157 47.229014,26.085061" id="Fill-23" fill="#000000"></path>
                <g id="Group-27" transform="translate(44.625000, 102.015038)">
                    <mask id="mask-2" fill="white">
                        <use xlink:href="#path-1"></use>
                    </mask>
                    <g id="Clip-26"></g>
                    <path d="M9.08256846,3.31242607 C8.97871557,1.52880354 6.32058819,0.0995869713 3.04795567,0.0995869713 C2.03627654,0.0995869713 1.08386955,0.237043489 0.246967238,0.477730405 L0.246967238,3.31242607 L9.08256846,3.31242607 Z" id="Fill-25" fill="#000000" mask="url(#mask-2)"></path>
                </g>
                <g id="Group-30" transform="translate(33.468750, 102.015038)">
                    <mask id="mask-4" fill="white">
                        <use xlink:href="#path-3"></use>
                    </mask>
                    <g id="Clip-29"></g>
                    <path d="M0.237341848,3.31242607 C0.341194738,1.52880354 2.99932212,0.0995869713 6.27195465,0.0995869713 C7.28363377,0.0995869713 8.23604076,0.237043489 9.07294307,0.477730405 L9.07294307,3.31242607 L0.237341848,3.31242607 Z" id="Fill-28" fill="#000000" mask="url(#mask-4)"></path>
                </g>
                <path d="M34.6846147,73.1940096 L34.6846147,71.7333111 C34.6846147,71.2926728 34.3164817,70.9323308 33.8669347,70.9323308 C33.4173876,70.9323308 33.0497603,71.2926728 33.0497603,71.7333111 L33.0497603,73.1940096 L31.078125,73.1940096 L31.078125,88.4661654 L36.65625,88.4661654 L36.65625,73.1940096 L34.6846147,73.1940096 Z" id="Fill-31" fill="#594A42"></path>
                <path d="M42.234375,35.5313779 C42.234375,35.5313779 43.3158934,36.1281269 44.625,35.0676692" id="Stroke-33" stroke="#9B7A73" stroke-width="0.5"></path>
                <g id="Group-37" transform="translate(64.546875, 12.751880)">
                    <mask id="mask-6" fill="white">
                        <use xlink:href="#path-5"></use>
                    </mask>
                    <g id="Clip-36"></g>
                    <path d="M36.9382258,18.9797005 C36.9382258,29.2215487 28.6976878,37.5244829 18.5316769,37.5244829 C8.36617176,37.5244829 0.125633687,29.2215487 0.125633687,18.9797005 C0.125633687,8.73734268 8.36617176,0.434918028 18.5316769,0.434918028 C28.6976878,0.434918028 36.9382258,8.73734268 36.9382258,18.9797005" id="Fill-35" fill="#13B2F3" mask="url(#mask-6)"></path>
                </g>
                <mask id="mask-8" fill="white">
                    <use xlink:href="#path-7"></use>
                </mask>
                <g id="Clip-39"></g>
                <polygon id="Fill-38" fill="#EDD000" mask="url(#mask-8)" points="86.0625 34.2706767 90.84375 34.2706767 90.84375 31.8796992 86.0625 31.8796992"></polygon>
                <polygon id="Fill-40" fill="#FFFFFF" mask="url(#mask-8)" points="90.84375 31.0827068 74.109375 31.0827068 76.4669831 24.7067669 89.0099427 24.7067669"></polygon>
                <polygon id="Fill-41" fill="#EDD000" mask="url(#mask-8)" points="74.90625 34.2706767 79.6875 34.2706767 79.6875 31.8796992 74.90625 31.8796992"></polygon>
                <polygon id="Fill-42" fill="#000000" mask="url(#mask-8)" points="74.109375 39.8496241 76.9938748 39.8496241 77.296875 37.4586466 74.109375 37.4586466"></polygon>
                <polygon id="Fill-43" fill="#000000" mask="url(#mask-8)" points="87.8916297 39.8496241 90.84375 39.8496241 90.84375 37.4586466 87.65625 37.4586466"></polygon>
                <polygon id="Fill-44" fill="#4B4B4B" mask="url(#mask-8)" points="77.296875 37.4586466 77.296875 37.4586466 87.65625 37.4586466"></polygon>
                <path d="M90.4888457,34.5456501 L86.5486423,34.5456501 L86.5486423,32.2114929 L90.7564282,32.2114929 L90.4888457,34.5456501 Z M75.3459228,30.1360818 L77.1046139,24.9418647 C77.1469982,24.814718 77.1858078,24.6974659 77.3737284,24.6915291 L88.5514258,24.6915291 C88.7296439,24.7024133 88.7674323,24.8171916 88.7955183,24.9017912 L90.567997,30.1365766 C88.1388177,30.0470296 85.5860602,29.9990404 82.9480235,29.9990404 C80.3171359,29.9990404 77.7699956,30.0470296 75.3459228,30.1360818 Z M79.5281761,34.5456501 L75.5879726,34.5456501 L75.3203901,32.2114929 L79.5281761,32.2114929 L79.5281761,34.5456501 Z M91.4013838,37.4586466 L92.1505127,31.7538635 L94.03125,31.5505277 L94.03125,29.2376441 L91.7680331,29.4968849 L89.9935117,24.552014 C89.6253304,23.4814086 88.5509152,23.5407767 88.5509152,23.5407767 L86.4899171,23.5407767 L86.0650533,21.518797 L79.989807,21.518797 L79.5649431,23.5407767 L77.4370494,23.5407767 C77.4370494,23.5407767 76.3626342,23.4814086 75.9944529,24.552014 L74.2081865,29.5290427 L71.71875,29.2376441 L71.71875,31.5505277 L73.8420478,31.7894844 L74.5717719,37.344363 L74.5717719,37.4586466 L77.6928869,37.4586466 L88.3456324,37.4586466 L91.3952559,37.4586466 L91.4013838,37.4586466 Z" id="Fill-45" fill="#626262" mask="url(#mask-8)"></path>
                <path d="M86.0563835,27.0977444 C84.8561307,27.0977444 83.8624287,28.0933598 83.671875,29.3992343 C83.9287696,29.400306 84.1861346,29.4013777 84.4411472,29.4035211 C84.6204088,28.5740202 85.2739372,27.9551096 86.0563835,27.9551096 C86.8590613,27.9551096 87.5304689,28.6045639 87.6885579,29.4656801 C87.9440409,29.4731821 88.200465,29.4801482 88.453125,29.4887218 C88.295977,28.1394432 87.2839254,27.0977444 86.0563835,27.0977444" id="Fill-46" fill="#4B4B4B" mask="url(#mask-8)"></path>
                <polygon id="Fill-47" fill="#13B2F3" mask="url(#mask-8)" points="67.418352 33.4736842 54.984375 30.6975614 68.53125 26.3007519"></polygon>
            </g>
        </g>
    </g>
</svg>