<?xml version="1.0" encoding="UTF-8"?>
<svg width="20px" height="20px" viewBox="0 0 20 20" version="1.1" xmlns="http://www.w3.org/2000/svg" xmlns:xlink="http://www.w3.org/1999/xlink">
    <title>instagram [#167]</title>
    <g id="Page-1" stroke="none" stroke-width="1" fill="none" fill-rule="evenodd">
        <g id="1" transform="translate(-312.000000, -934.000000)" fill="#FFFFFF">
            <g id="Group-2" transform="translate(187.000000, 934.000000)">
                <path d="M130.869652,0.122726886 C129.241769,0.19617738 127.830805,0.594199654 126.691486,1.72871202 C125.548187,2.86917983 125.155147,4.28558328 125.081514,5.89653128 C125.035742,6.902009 124.768077,14.4981797 125.544207,16.4902762 C126.067597,17.8342218 127.098457,18.8674916 128.454694,19.3925633 C129.087538,19.6387217 129.809936,19.8054742 130.869652,19.8541104 C139.730467,20.2551103 143.015089,20.036744 144.400182,16.4902762 C144.645956,15.858999 144.815113,15.1373975 144.86188,14.080306 C145.26686,5.19676644 144.796207,3.2711724 143.251908,1.72871202 C142.027016,0.50685312 140.5862,-0.3249241 130.869652,0.122726886 M130.951245,18.0674767 C129.981083,18.0238034 129.454707,17.8620138 129.103459,17.7260312 C128.219865,17.3826005 127.556174,16.721546 127.214876,15.8431178 C126.623823,14.3294421 126.819846,7.14022682 126.872583,5.9769298 C126.924325,4.83745456 127.155174,3.79624418 127.959165,2.99225904 C128.954203,1.99968479 130.239792,1.51332341 138.993144,1.90836796 C140.135448,1.95998182 141.179243,2.19025904 141.985224,2.99225904 C142.980262,3.98483328 143.473801,5.28014268 143.071806,13.9999074 C143.028024,14.9676673 142.865833,15.4927391 142.729513,15.8431178 C141.829003,18.1508529 139.757333,18.4714544 130.951245,18.0674767 M139.089663,4.689561 C139.089663,5.34664515 139.623998,5.8806501 140.283709,5.8806501 C140.943419,5.8806501 141.47875,5.34664515 141.47875,4.689561 C141.47875,4.03247685 140.943419,3.4984719 140.283709,3.4984719 C139.623998,3.4984719 139.089663,4.03247685 139.089663,4.689561 M129.862673,9.98792233 C129.862673,12.8028629 132.150266,15.0847911 134.972194,15.0847911 C137.794123,15.0847911 140.081716,12.8028629 140.081716,9.98792233 C140.081716,7.17298177 137.794123,4.89204615 134.972194,4.89204615 C132.150266,4.89204615 129.862673,7.17298177 129.862673,9.98792233 M131.655732,9.98792233 C131.655732,8.16158572 133.140329,6.67967237 134.972194,6.67967237 C136.80406,6.67967237 138.288657,8.16158572 138.288657,9.98792233 C138.288657,11.8152515 136.80406,13.2971649 134.972194,13.2971649 C133.140329,13.2971649 131.655732,11.8152515 131.655732,9.98792233" id="instagram-[#167]"></path>
            </g>
        </g>
    </g>
</svg>