<svg id="Layer_1" xmlns="http://www.w3.org/2000/svg" width="26" height="26" viewBox="0 0 26 26"><style>.st0{fill:#fff}</style><path class="st0" d="M13 0C5.9 0 0 5.9 0 13c0 7.2 5.8 13 13 13s13-5.8 13-13c0-7.1-5.8-13-13-13zm7 8.8c-.3.5-.7.9-1.2 1.3-.1.1-.2.2-.2.4 0 1-.2 2-.5 2.9-.4 1-.9 1.9-1.6 2.7-.7.8-1.6 1.5-2.6 2-1.1.5-2.3.8-3.6.8-1.5 0-2.9-.4-4.2-1.1 0-.1-.1-.2-.1-.3 0-.1.1-.2.2-.2h.3c1.1 0 2.2-.3 3.1-.9-1.1-.2-2-1-2.4-2.1 0-.1.1-.2.2-.2H8c-1.1-.5-1.8-1.6-1.8-2.8 0-.1.1-.2.2-.1.2.1.4.2.7.3-.6-.6-.9-1.3-.9-2.2 0-.5.1-1.1.4-1.5.2-.1.4-.1.4 0 1.4 1.7 3.3 2.7 5.4 2.9h.1v-.1c0-.4 0-.7.1-1.1.2-1 1-1.8 2-2.1.3-.1.6-.1 1-.1.7 0 1.4.3 2 .8.1.1.2.1.3.1h.1c.5-.1 1-.3 1.5-.6.1-.1.3 0 .2.2-.2.5-.4.9-.8 1.3.3-.1.7-.2 1-.3.1-.3.2-.1.1 0z"/></svg>