<?xml version="1.0" encoding="UTF-8"?>
<svg width="110px" height="99px" viewBox="0 0 110 99" version="1.1" xmlns="http://www.w3.org/2000/svg" xmlns:xlink="http://www.w3.org/1999/xlink">
    <!-- Generator: Sketch 50.2 (55047) - http://www.bohemiancoding.com/sketch -->
    <title>Page 1</title>
    <desc>Created with Sketch.</desc>
    <defs>
        <path d="M79.8453489,0.0268853842 C83.4247465,6.26716838 85.4712597,13.4991293 85.4712597,21.2090997 C85.4712597,44.7545257 66.3855987,63.8416559 42.8423925,63.8416559 C19.2991863,63.8416559 0.213117849,44.7545257 0.213117849,21.2090997 C0.213117849,13.4991293 2.25967477,6.26716838 5.83913113,0.0268853842 L79.8453552,0.0268964833 L79.8453489,0.0268853842 Z" id="path-1"></path>
        <polygon id="path-3" points="0 98.5942623 131.713185 98.5942623 131.713185 0.0981885246 0 0.0981885246"></polygon>
    </defs>
    <g id="Page-1" stroke="none" stroke-width="1" fill="none" fill-rule="evenodd">
        <g id="Mobile-Dispatchers" transform="translate(-277.000000, -995.000000)">
            <g id="Page-1" transform="translate(255.000000, 995.000000)">
                <path d="M115.2,54.2901201 C115.2,77.6601434 96.2169418,96.6048387 72.8,96.6048387 C49.3830582,96.6048387 30.4,77.6601434 30.4,54.2901201 C30.4,30.9205018 49.3830582,11.9758065 72.8,11.9758065 C96.2169418,11.9758065 115.2,30.9205018 115.2,54.2901201" id="Fill-1" fill="#C6EBF4"></path>
                <g id="Group-6" transform="translate(30.400000, 33.532258)">
                    <mask id="mask-2" fill="white">
                        <use xlink:href="#path-1"></use>
                    </mask>
                    <g id="Clip-4"></g>
                    <path d="M54.620108,13.8036013 L56.7590288,13.8036013 L56.7590288,9.82169917 L54.620108,9.82169917 L54.620108,13.8036013 Z M54.6144031,20.0717045 L56.7879607,20.0717045 L56.7879607,16.1130311 L54.6144031,16.1130311 L54.6144031,20.0717045 Z M85.6786727,45.1237411 L87.9088715,45.1237411 L87.9088715,41.1834063 L85.6786727,41.1834063 L85.6786727,45.1237411 Z M80.277378,52.2288954 L82.4301535,52.2288954 L82.4301535,48.2392504 L80.277378,48.2392504 L80.277378,52.2288954 Z M54.414325,7.90186079 L56.6375964,7.90186079 L56.6375964,3.9619335 L54.414325,3.9619335 L54.414325,7.90186079 Z M76.8487479,38.3556078 L79.0373826,38.3556078 L79.0373826,34.3843013 L76.8487479,34.3843013 L76.8487479,38.3556078 Z M85.6831551,38.3609056 L87.9056116,38.3609056 L87.9056116,34.378596 L85.6831551,34.378596 L85.6831551,38.3609056 Z M47.1410162,13.7991185 L49.3333184,13.7991185 L49.3333184,9.80254561 L47.1410162,9.80254561 L47.1410162,13.7991185 Z M46.6976659,32.3051216 L48.9376445,32.3051216 L48.9376445,28.3277023 L46.6976659,28.3277023 L46.6976659,32.3051216 Z M76.867085,32.2798552 L79.0337152,32.2798552 L79.0337152,28.3150691 L76.867085,28.3150691 L76.867085,32.2798552 Z M85.6794876,32.2659995 L87.8958318,32.2659995 L87.8958318,28.321997 L85.6794876,28.321997 L85.6794876,32.2659995 Z M76.8719748,26.147457 L79.0544972,26.147457 L79.0544972,22.1618872 L76.8719748,22.1618872 L76.8719748,26.147457 Z M85.6929348,26.1515323 L87.8974617,26.1515323 L87.8974617,22.1745204 L85.6929348,22.1745204 L85.6929348,26.1515323 Z M76.8597501,45.4811383 L79.0443099,45.4811383 L79.0443099,41.4996437 L76.8597501,41.4996437 L76.8597501,45.4811383 Z M54.0076488,46.9600373 L56.1836513,46.9600373 L56.1836513,42.9891384 L54.0076488,42.9891384 L54.0076488,46.9600373 Z M46.5191848,46.9408838 L48.7037446,46.9408838 L48.7037446,42.9875083 L46.5191848,42.9875083 L46.5191848,46.9408838 Z M38.6798709,46.9339559 L40.9116996,46.9339559 L40.9116996,42.983433 L38.6798709,42.983433 L38.6798709,46.9339559 Z M31.2708675,46.944959 L33.4513525,46.944959 L33.4513525,42.9838406 L31.2708675,42.9838406 L31.2708675,46.944959 Z M46.9686475,7.92345948 L49.1743968,7.92345948 L49.1743968,3.96356359 L46.9686475,3.96356359 L46.9686475,7.92345948 Z M47.127569,20.0737421 L49.347173,20.0737421 L49.347173,16.0930625 L47.127569,16.0930625 L47.127569,20.0737421 Z M76.8609726,20.0631465 L79.065907,20.0631465 L79.065907,16.0730939 L76.8609726,16.0730939 L76.8609726,20.0631465 Z M85.6929348,20.0452155 L87.8942018,20.0452155 L87.8942018,16.0551629 L85.6929348,16.0551629 L85.6929348,20.0452155 Z M82.9961587,52.2370459 L85.1884608,52.2370459 L85.1884608,48.241288 L82.9961587,48.241288 L82.9961587,52.2370459 Z M76.86464,13.3007185 L79.0553122,13.3007185 L79.0553122,9.29069738 L76.86464,9.29069738 L76.86464,13.3007185 Z M46.5191848,39.2093674 L48.7008922,39.2093674 L48.7008922,35.2180923 L46.5191848,35.2180923 L46.5191848,39.2093674 Z M31.2696451,39.2171103 L33.4399427,39.2171103 L33.4399427,35.2140171 L31.2696451,35.2140171 L31.2696451,39.2171103 Z M38.6867982,39.2203705 L40.916997,39.2203705 L40.916997,35.2209449 L38.6867982,35.2209449 L38.6867982,39.2203705 Z M54.0060189,39.228521 L56.1860963,39.228521 L56.1860963,35.2148321 L54.0060189,35.2148321 L54.0060189,39.228521 Z M85.6900824,13.3113141 L87.9125389,13.3113141 L87.9125389,9.28173189 L85.6900824,9.28173189 L85.6900824,13.3113141 Z M64.7161076,36.1480586 L67.1423097,36.1480586 L67.1423097,32.2264698 L64.7161076,32.2264698 L64.7161076,36.1480586 Z M54.1718678,32.3197924 L56.3947317,32.3197924 L56.3947317,28.3382979 L54.1718678,28.3382979 L54.1718678,32.3197924 Z M64.7161076,29.7430278 L67.1088954,29.7430278 L67.1088954,25.7546054 L64.7161076,25.7546054 L64.7161076,29.7430278 Z M64.7104028,49.047775 L67.1264175,49.047775 L67.1264175,45.0499795 L64.7104028,45.0499795 L64.7104028,49.047775 Z M64.7059204,42.6064747 L67.1304924,42.6064747 L67.1304924,38.6033815 L64.7059204,38.6033815 L64.7059204,42.6064747 Z M27.6731286,18.4575079 L30.1205202,18.4575079 L30.1205202,14.4768284 L27.6731286,14.4768284 L27.6731286,18.4575079 Z M27.674351,24.8926953 L30.1078879,24.8926953 L30.1078879,20.9262791 L27.674351,20.9262791 L27.674351,24.8926953 Z M27.6600888,31.3617071 L30.1099254,31.3617071 L30.1099254,27.3749147 L27.6600888,27.3749147 L27.6600888,31.3617071 Z M-13.4549489,40.9482658 L-10.8278537,40.9482658 L-10.8278537,36.9113482 L-13.4549489,36.9113482 L-13.4549489,40.9482658 Z M-4.31044093,47.3911961 L-1.71268512,47.3911961 L-1.71268512,43.3946232 L-4.31044093,43.3946232 L-4.31044093,47.3911961 Z M-13.447614,47.3378107 L-10.8225563,47.3378107 L-10.8225563,43.3934006 L-13.447614,43.3934006 L-13.447614,47.3378107 Z M-4.31573831,40.9299273 L-1.70616526,40.9299273 L-1.70616526,36.9431349 L-4.31573831,36.9431349 L-4.31573831,40.9299273 Z M-4.3116634,34.8252406 L-1.69312555,34.8252406 L-1.69312555,30.8592319 L-4.3116634,30.8592319 L-4.3116634,34.8252406 Z M-8.86333907,40.9462282 L-6.2179068,40.9462282 L-6.2179068,36.9223513 L-8.86333907,36.9223513 L-8.86333907,40.9462282 Z M-8.87841624,47.3361806 L-6.21220193,47.3361806 L-6.21220193,43.3803599 L-8.87841624,43.3803599 L-8.87841624,47.3361806 Z M-13.448429,34.831761 L-10.8429309,34.831761 L-10.8429309,30.7887305 L-13.448429,30.7887305 L-13.448429,34.831761 Z M-8.88086118,34.8333911 L-6.22850157,34.8333911 L-6.22850157,30.8046239 L-8.88086118,30.8046239 L-8.88086118,34.8333911 Z M0.319880519,40.9478583 L2.97224013,40.9478583 L2.97224013,36.9243889 L0.319880519,36.9243889 L0.319880519,40.9478583 Z M0.322732957,47.3573718 L2.97998246,47.3573718 L2.97998246,43.3783223 L0.322732957,43.3783223 L0.322732957,47.3573718 Z M0.329252814,34.8333911 L2.96286784,34.8333911 L2.96286784,30.7854703 L0.329252814,30.7854703 L0.329252814,34.8333911 Z M9.37433291,51.6400254 L12.6525989,51.6400254 L12.6525989,46.700038 L9.37433291,46.700038 L9.37433291,51.6400254 Z M-22.1206547,43.8017382 L-16.015623,43.8017382 L-16.015623,28.5840339 L5.17635953,28.5840339 L5.17635953,42.238482 L14.6195584,42.238482 L14.6195584,33.7856508 L25.7477331,33.7856508 L25.7477331,11.7154561 L40.2678637,11.7154561 L40.2678637,31.6233365 L44.169591,31.6233365 L44.169591,0.0268964833 L59.2121253,0.0268964833 L59.2121253,29.0469794 L63.6403311,29.0469794 L63.6403311,24.3421325 L66.9805357,24.3421325 L66.9805357,14.840746 L68.6117226,14.840746 L68.6117226,9.08775119 C68.6353571,9.08775119 68.6585841,9.08734367 68.6822186,9.08734367 C68.7596419,11.0018843 68.8374727,12.9164248 68.9177484,14.9006518 L70.8818556,14.9006518 L70.8818556,27.4776104 L74.7428338,27.4776104 L74.7428338,6.98656531 L90.3774526,6.98656531 L90.3774526,23.7711935 L93.7054325,23.7711935 L93.7054325,16.4973248 L96.980846,16.4973248 L96.980846,52.2896163 C54.5777289,52.3707132 12.2259557,52.4509952 -30.1543419,52.5316846 L-30.1543419,43.8640891 L-27.2053288,43.8640891 L-27.2053288,36.4484026 L-30.1535269,36.4484026 L-30.1535269,31.6979131 L-27.2094037,31.6979131 L-27.2094037,24.3506904 L-30.1527119,24.3506904 L-30.1527119,18.5145611 L-28.6070982,18.5145611 L-28.6070982,10.7345495 C-28.5492344,10.734957 -28.4909632,10.7353646 -28.432692,10.7361796 L-28.432692,18.5430877 L-26.0150472,18.5430877 L-26.0150472,22.7743935 L-22.1206547,22.7743935 L-22.1206547,43.8017382 Z" id="Fill-3" fill="#AAC7CC" mask="url(#mask-2)"></path>
                    <polygon id="Fill-5" fill="#8D8D8D" mask="url(#mask-2)" points="10.8368185 65.1697716 74.6588906 65.1697716 74.6588906 52.4399921 10.8368185 52.4399921"></polygon>
                </g>
                <g id="Group-51">
                    <path d="M95.4759667,24.9627283 C97.0127074,24.2961012 98.5429296,24.2003471 100.031596,25.1968389 C100.34367,24.8178799 100.610522,24.4344578 100.935633,24.1090561 C102.35993,22.6865398 104.450744,22.6394742 105.912522,24.041298 C106.347226,24.4583963 106.728152,24.6032447 107.327041,24.4859865 C108.411152,24.2741914 109.437411,24.6174455 109.996781,25.5287324 C110.434744,26.242425 110.894707,26.5057488 111.665522,26.4627406 C111.925856,26.448134 112.192707,26.541048 112.468115,26.5864906 C112.920337,25.8269496 113.281707,25.0211545 113.81867,24.3561504 C115.542411,22.2239988 118.437856,21.6413594 120.855411,22.8042037 C123.554893,24.1017529 124.551819,26.6721012 124.025856,29.4469414 C123.54593,31.9759045 121.01593,33.8796258 118.327041,33.8804373 C104.922115,33.8832775 91.5167815,33.842298 78.1118556,33.9120848 C75.3830407,33.9262857 73.2836704,32.0083635 72.9308556,30.1082939 C72.5157074,27.8702447 73.2506704,25.4540766 76.0104481,24.3050275 C76.422337,24.1334004 76.7564111,23.5032898 76.9038926,23.0184332 C77.6478185,20.5673717 79.2240778,18.9768799 81.6795222,18.2737365 C84.1838556,17.5559865 86.9318185,18.4701135 88.5251889,20.5852242 C89.0597074,21.2944537 89.4581519,21.6441996 90.476263,21.3135234 C92.1478556,20.7702406 94.1800037,21.8766873 94.9223,23.4890889 C95.1284481,23.9378348 95.272263,24.4145766 95.4759667,24.9627283 Z" id="Fill-7" fill="#EAF7F9"></path>
                    <path d="M44.1465852,28.7712664 C43.0669556,28.3034508 41.9914,28.2360984 40.9459926,28.9359959 C40.7264,28.669832 40.5389926,28.4004221 40.310437,28.1715861 C39.309437,27.1722541 37.8403259,27.1393893 36.8136593,28.1241148 C36.5081037,28.4170574 36.240437,28.5188975 35.8195852,28.4365328 C35.0581407,28.2880328 34.3366222,28.529041 33.9438815,29.1688893 C33.6358815,29.6707869 33.3128074,29.8558033 32.771363,29.8257787 C32.5880296,29.8152295 32.4006222,29.8805533 32.2075111,29.9126066 C31.8893259,29.3786557 31.6359185,28.8126516 31.2582519,28.3452418 C30.047437,26.8472582 28.0128444,26.4378689 26.3139556,27.2550246 C24.4170667,28.1667172 23.7167333,29.9726557 24.0866593,31.9222254 C24.4235852,33.6993566 26.2011037,35.036668 28.0902519,35.0370738 C37.5095111,35.0395082 46.9287704,35.0107008 56.3472148,35.0597951 C58.2644741,35.0695328 59.7396963,33.7220779 59.9878074,32.3867951 C60.2795111,30.8141557 59.7633259,29.1169549 57.8240667,28.3091311 C57.5344,28.188627 57.2997333,27.746373 57.1962519,27.4055533 C56.6735481,25.6836025 55.5658074,24.5657951 53.840437,24.0716066 C52.0808444,23.5672746 50.1501407,24.2095574 49.0305852,25.6957746 C48.6549556,26.1940205 48.3750667,26.4398975 47.6600667,26.2074098 C46.4851037,25.8256107 45.0571407,26.6030041 44.5360667,27.7362295 C44.3910296,28.0514877 44.2899926,28.386627 44.1465852,28.7712664" id="Fill-9" fill="#EAF7F9"></path>
                    <mask id="mask-4" fill="white">
                        <use xlink:href="#path-3"></use>
                    </mask>
                    <g id="Clip-12"></g>
                    <polygon id="Fill-11" fill="#FFFFFF" mask="url(#mask-4)" points="58.3733333 89.429459 88.429 89.429459 88.429 41.7682623 58.3733333 41.7682623"></polygon>
                    <polygon id="Fill-13" fill="#FFFFFF" mask="url(#mask-4)" points="67.8447407 39.9947828 79.5014815 39.9947828 79.5014815 32.728832 67.8447407 32.728832"></polygon>
                    <path d="M88.0443259,88.3556742 L58.7435852,88.3556742 L58.7435852,42.5060963 L88.0589926,42.5060963 L88.0589926,88.3556742 L88.0443259,88.3556742 Z M73.4012889,96.5665881 C71.7435481,96.5665881 70.3909556,95.2199447 70.3909556,93.5694037 C70.3909556,91.9180512 71.7435481,90.5714078 73.4012889,90.5714078 C75.0586222,90.5714078 76.4112148,91.9180512 76.4112148,93.5694037 C76.3965481,95.2199447 75.044363,96.5665881 73.4012889,96.5665881 Z M70.3909556,38.1326496 C70.3909556,37.8141455 70.6529185,37.5532561 70.9727333,37.5532561 L75.8005111,37.5532561 C76.1203259,37.5532561 76.3822889,37.8141455 76.3822889,38.1326496 L76.3822889,38.2048709 C76.3822889,38.5237807 76.1203259,38.7842643 75.8005111,38.7842643 L70.9727333,38.7842643 C70.6529185,38.7842643 70.3909556,38.5237807 70.3909556,38.2048709 L70.3909556,38.1326496 Z M73.4012889,34.8887766 C73.7500296,34.8887766 74.0262519,35.1634611 74.0262519,35.5111783 C74.0262519,35.8588955 73.7500296,36.1339857 73.4012889,36.1339857 C73.0521407,36.1339857 72.7759185,35.8588955 72.7759185,35.5111783 C72.7612519,35.1634611 73.0521407,34.8887766 73.4012889,34.8887766 Z M85.2376963,32.0648422 L84.5980667,32.0648422 L84.5980667,31.7025184 L78.9705481,31.7025184 L78.9705481,32.0648422 L61.375437,32.0648422 C58.5834741,32.0648422 56.300363,34.512252 56.300363,37.5098422 L56.300363,38.6248094 L56.300363,41.9989242 L55.7768444,41.9989242 L55.7768444,45.1705758 L56.300363,45.1705758 L56.300363,46.1699078 L56.300363,48.834793 L55.864437,48.834793 L55.864437,51.3252111 L56.300363,51.3252111 L56.300363,52.5274119 L56.300363,54.7573463 L55.864437,54.7573463 L55.864437,57.2485758 L56.300363,57.2485758 L56.300363,93.163666 C56.300363,96.1612561 58.5834741,98.5940594 61.375437,98.5940594 L85.252363,98.5940594 C88.0443259,98.5940594 90.327437,96.1466496 90.327437,93.163666 L90.327437,37.5098422 C90.327437,34.5264529 88.0296593,32.0648422 85.2376963,32.0648422 Z" id="Fill-14" fill="#231F20" mask="url(#mask-4)"></path>
                    <polygon id="Fill-15" fill="#BFBFBF" mask="url(#mask-4)" points="60.766037 47.1540246 80.0983333 47.1540246 80.0983333 46.3904262 60.766037 46.3904262"></polygon>
                    <path d="M85.9822333,46.7723066 C85.9822333,47.8045033 85.1417519,48.6411344 84.1057148,48.6411344 C83.068863,48.6411344 82.2287889,47.8045033 82.2287889,46.7723066 C82.2287889,45.7397041 83.068863,44.903073 84.1057148,44.903073 C85.1417519,44.903073 85.9822333,45.7397041 85.9822333,46.7723066" id="Fill-16" fill="#01BF00" mask="url(#mask-4)"></path>
                    <polygon id="Fill-17" fill="#FFFFFF" mask="url(#mask-4)" points="85.2384296 46.2544635 84.9434667 45.9607094 83.9045778 46.996152 83.2673926 46.361984 82.9724296 46.6549266 83.6096148 47.2895004 83.6092074 47.2899061 83.9041704 47.5832545 83.9045778 47.5828488 83.9045778 47.5832545 84.1995407 47.2899061 84.1991333 47.2895004"></polygon>
                    <polygon id="Fill-18" fill="#BFBFBF" mask="url(#mask-4)" points="60.766037 53.1999221 80.0983333 53.1999221 80.0983333 52.4363238 60.766037 52.4363238"></polygon>
                    <path d="M85.9822333,52.8179607 C85.9822333,53.8505631 85.1417519,54.6871943 84.1057148,54.6871943 C83.068863,54.6871943 82.2287889,53.8505631 82.2287889,52.8179607 C82.2287889,51.7857639 83.068863,50.9491328 84.1057148,50.9491328 C85.1417519,50.9491328 85.9822333,51.7857639 85.9822333,52.8179607" id="Fill-19" fill="#01BF00" mask="url(#mask-4)"></path>
                    <polygon id="Fill-20" fill="#FFFFFF" mask="url(#mask-4)" points="85.2384296 52.3004828 84.9434667 52.0067287 83.9045778 53.0417656 83.2673926 52.4075975 82.9724296 52.7009459 83.6096148 53.3355197 83.6092074 53.3359254 83.9041704 53.6292738 83.9045778 53.628868 83.9045778 53.6292738 84.1995407 53.3359254 84.1991333 53.3355197"></polygon>
                    <polygon id="Fill-21" fill="#BFBFBF" mask="url(#mask-4)" points="60.766037 59.2454139 80.0983333 59.2454139 80.0983333 58.4822213 60.766037 58.4822213"></polygon>
                    <path d="M85.9822333,58.8640205 C85.9822333,59.8962172 85.1417519,60.7328484 84.1057148,60.7328484 C83.068863,60.7328484 82.2287889,59.8962172 82.2287889,58.8640205 C82.2287889,57.8318238 83.068863,56.9951926 84.1057148,56.9951926 C85.1417519,56.9951926 85.9822333,57.8318238 85.9822333,58.8640205" id="Fill-22" fill="#C6EBF4" mask="url(#mask-4)"></path>
                    <polygon id="Fill-23" fill="#BFBFBF" mask="url(#mask-4)" points="60.766037 65.2917172 80.0983333 65.2917172 80.0983333 64.5285246 60.766037 64.5285246"></polygon>
                    <path d="M85.9822333,64.9100398 C85.9822333,65.9422365 85.1417519,66.7788676 84.1057148,66.7788676 C83.068863,66.7788676 82.2287889,65.9422365 82.2287889,64.9100398 C82.2287889,63.877843 83.068863,63.0412119 84.1057148,63.0412119 C85.1417519,63.0412119 85.9822333,63.877843 85.9822333,64.9100398" id="Fill-24" fill="#01BF00" mask="url(#mask-4)"></path>
                    <polygon id="Fill-25" fill="#FFFFFF" mask="url(#mask-4)" points="85.2384296 64.3921967 84.9434667 64.0988484 83.9045778 65.1338852 83.2673926 64.4997172 82.9724296 64.7930656 83.6096148 65.4276393 83.6092074 65.4276393 83.9041704 65.7209877 83.9045778 65.720582 83.9045778 65.7209877 84.1995407 65.4276393 84.1991333 65.4276393"></polygon>
                    <polygon id="Fill-26" fill="#BFBFBF" mask="url(#mask-4)" points="60.766037 71.3376148 80.0983333 71.3376148 80.0983333 70.5740164 60.766037 70.5740164"></polygon>
                    <path d="M85.9822333,70.9560996 C85.9822333,71.9882963 85.1417519,72.8249275 84.1057148,72.8249275 C83.068863,72.8249275 82.2287889,71.9882963 82.2287889,70.9560996 C82.2287889,69.9234971 83.068863,69.0872717 84.1057148,69.0872717 C85.1417519,69.0872717 85.9822333,69.9234971 85.9822333,70.9560996" id="Fill-27" fill="#C6EBF4" mask="url(#mask-4)"></path>
                    <polygon id="Fill-28" fill="#BFBFBF" mask="url(#mask-4)" points="60.766037 77.383918 80.0983333 77.383918 80.0983333 76.6203197 60.766037 76.6203197"></polygon>
                    <path d="M85.9822333,77.0017537 C85.9822333,78.0343561 85.1417519,78.8709873 84.1057148,78.8709873 C83.068863,78.8709873 82.2287889,78.0343561 82.2287889,77.0017537 C82.2287889,75.969557 83.068863,75.1329258 84.1057148,75.1329258 C85.1417519,75.1329258 85.9822333,75.969557 85.9822333,77.0017537" id="Fill-29" fill="#C6EBF4" mask="url(#mask-4)"></path>
                    <polygon id="Fill-30" fill="#13B2F3" mask="url(#mask-4)" points="60.766037 86.0849631 85.9821111 86.0849631 85.9821111 81.2002869 60.766037 81.2002869"></polygon>
                    <path d="M131.712941,16.853898 C131.712941,26.1079635 124.180385,33.6092422 114.888644,33.6092422 C105.596496,33.6092422 98.0639407,26.1079635 98.0639407,16.853898 C98.0639407,7.59983238 105.596496,0.0981479508 114.888644,0.0981479508 C124.180385,0.0981479508 131.712941,7.59983238 131.712941,16.853898" id="Fill-31" fill="#13B2F3" mask="url(#mask-4)"></path>
                    <polygon id="Fill-32" fill="#13B2F3" mask="url(#mask-4)" points="103.779663 27.1847914 92.4146259 31.1131439 101.017441 20.8021316"></polygon>
                    <polygon id="Fill-33" fill="#231F20" mask="url(#mask-4)" points="125.231619 12.6154807 115.1271 4.30394385 105.022581 12.6154807 115.1271 20.2490299"></polygon>
                    <polygon id="Fill-34" fill="#231F20" mask="url(#mask-4)" points="104.926881 12.5433406 104.926881 12.7109102 105.022215 12.6155619"></polygon>
                    <polygon id="Fill-35" fill="#231F20" mask="url(#mask-4)" points="125.327319 12.5433406 125.231578 12.6155619 125.327319 12.7109102"></polygon>
                    <polygon id="Fill-36" fill="#FFFFFF" mask="url(#mask-4)" points="107.893704 23.3473648 122.735556 23.3473648 122.735556 6.85656148 107.893704 6.85656148"></polygon>
                    <polygon id="Fill-37" fill="#231F20" mask="url(#mask-4)" points="105.022378 12.6154807 104.995896 12.6418537 111.913674 17.8215012"></polygon>
                    <polygon id="Fill-38" fill="#414042" mask="url(#mask-4)" points="125.327319 26.4180689 125.327319 13.8698189 125.327319 12.711032 125.231578 12.6152779 115.141319 20.2386836 123.394578 26.4180689"></polygon>
                    <polygon id="Fill-39" fill="#231F20" mask="url(#mask-4)" points="115.141319 20.2384807 111.91343 17.8215012 115.127059 20.2490299"></polygon>
                    <polygon id="Fill-40" fill="#58595B" mask="url(#mask-4)" points="104.926881 13.8699 104.926881 26.41815 123.394659 26.41815 115.1414 20.238359 115.127141 20.2493139 111.913511 17.8213795 104.995733 12.6421377 104.926881 12.7111131"></polygon>
                    <path d="M48.1050778,24.0197127 C48.1050778,30.9484955 42.4649296,36.5655283 35.5080407,36.5655283 C28.550337,36.5655283 22.9105963,30.9484955 22.9105963,24.0197127 C22.9105963,17.0913357 28.550337,11.4743029 35.5080407,11.4743029 C42.4649296,11.4743029 48.1050778,17.0913357 48.1050778,24.0197127" id="Fill-41" fill="#13B2F3" mask="url(#mask-4)"></path>
                    <polygon id="Fill-42" fill="#13B2F3" mask="url(#mask-4)" points="43.6942407 31.7552643 52.2037593 34.696457 45.7622407 26.9760799"></polygon>
                    <polygon id="Fill-43" fill="#231F20" mask="url(#mask-4)" points="43.2522037 20.8463164 35.6862407 14.6227057 28.1202778 20.8463164 35.6862407 26.5623492"></polygon>
                    <polygon id="Fill-44" fill="#231F20" mask="url(#mask-4)" points="28.0490222 20.7924344 28.0490222 20.9178074 28.1203185 20.8463975"></polygon>
                    <polygon id="Fill-45" fill="#231F20" mask="url(#mask-4)" points="43.3238259 20.7924344 43.2521222 20.8463975 43.3238259 20.9178074"></polygon>
                    <polygon id="Fill-46" fill="#FFFFFF" mask="url(#mask-4)" points="30.2703704 28.881627 41.3832222 28.881627 41.3832222 16.5342172 30.2703704 16.5342172"></polygon>
                    <polygon id="Fill-47" fill="#231F20" mask="url(#mask-4)" points="28.1204407 20.8463164 28.1008852 20.8661975 33.2802556 24.7442385"></polygon>
                    <polygon id="Fill-48" fill="#414042" mask="url(#mask-4)" points="43.3238259 31.1811455 43.3238259 21.7858832 43.3238259 20.9176045 43.2521222 20.8461947 35.6971593 26.5541127 41.8767148 31.1811455"></polygon>
                    <polygon id="Fill-49" fill="#231F20" mask="url(#mask-4)" points="35.6970778 26.553991 33.2799296 24.7444008 35.6864852 26.5625115"></polygon>
                    <polygon id="Fill-50" fill="#58595B" mask="url(#mask-4)" points="28.0490222 21.7857615 28.0490222 31.1810238 41.8764296 31.1810238 35.6968741 26.553991 35.6862815 26.5621057 33.2801333 24.7444008 28.100763 20.8659541 28.0490222 20.9174828"></polygon>
                </g>
            </g>
        </g>
    </g>
</svg>