<svg width="23" height="16" viewBox="0 0 23 16" xmlns="http://www.w3.org/2000/svg" xmlns:xlink="http://www.w3.org/1999/xlink"><title>Group 3</title><defs><path id="a" d="M0 0h23v15.923H0z"/></defs><g fill="none" fill-rule="evenodd"><mask id="b" fill="#fff"><use xlink:href="#a"/></mask><path d="M8.625 12.304V3.62l7.188 4.343-7.188 4.342zm13.398-10.77c-.624-1.117-1.301-1.323-2.68-1.4C17.966.038 14.503 0 11.503 0c-3.006 0-6.47.04-7.846.132C2.281.212 1.603.415.973 1.534.331 2.65 0 4.573 0 7.957v.012c0 3.37.33 5.307.973 6.411.63 1.117 1.307 1.32 2.683 1.414 1.377.081 4.841.13 7.847.13 3 0 6.463-.049 7.841-.128 1.379-.094 2.056-.297 2.68-1.415.648-1.104.976-3.04.976-6.41v-.012c0-3.386-.328-5.309-.977-6.425z" fill="#FFF" mask="url(#b)"/></g></svg>