<svg width="50" height="71" viewBox="0 0 50 71" xmlns="http://www.w3.org/2000/svg"><title>Group 8</title><g fill="none" fill-rule="evenodd"><path fill="#797979" d="M22.544 41.951l12.327-5.66 9.481 20.884-8.25-1.765-4.077 7.428z"/><path fill="#797979" d="M28.294 41.832l-12.55-5.144L4.012 65.357l8.17-2.107 4.379 7.25z"/><path d="M49.636 30.906l-.313-.784c-.84-2.11-.898-5.584-.13-7.72l.286-.795c.768-2.137-.168-4.875-2.08-6.085l-.711-.45c-1.913-1.21-3.99-3.986-4.618-6.169l-.232-.812a4.912 4.912 0 0 0-1.196-2.023c-1.05-1.092-2.569-1.77-4.043-1.67l-.839.057c-2.25.152-5.547-.863-7.331-2.255a.1.1 0 0 1-.009-.006l-.662-.519C25.974.28 23.096.33 21.36 1.785l-.645.54c-1.735 1.456-5.002 2.585-7.26 2.51l-.84-.027c-2.257-.074-4.557 1.667-5.11 3.87l-.206.82c-.553 2.203-2.535 5.049-4.406 6.322l-.695.475C.329 17.569-.514 20.338.325 22.447l.313.784c.84 2.11.898 5.584.13 7.72l-.286.795c-.768 2.137.168 4.875 2.08 6.085l.712.45c1.912 1.21 3.99 3.986 4.616 6.169l.234.812c.318 1.106 1.08 2.078 2.048 2.748.942.653 2.078 1.02 3.19.945l.84-.057c2.253-.151 5.556.866 7.34 2.26l.662.52c.065.051.135.097.203.144 1.792 1.242 4.522 1.15 6.193-.253l.645-.542c1.735-1.454 5.002-2.584 7.26-2.51l.84.028c2.257.074 4.557-1.667 5.11-3.87l.206-.82c.553-2.202 2.536-5.048 4.406-6.323l.696-.474c1.87-1.274 2.713-4.043 1.873-6.152" fill="#00ADF3"/><path d="M24.592 7.922c-10.38.177-18.68 8.815-18.504 19.255.177 10.44 8.764 18.79 19.144 18.612 10.38-.177 18.68-8.815 18.503-19.255-.176-10.44-8.763-18.79-19.143-18.612m.672 39.761C13.846 47.878 4.4 38.693 4.205 27.21 4.011 15.725 13.142 6.223 24.56 6.028c11.418-.195 20.865 8.99 21.059 20.473.193 11.485-8.938 20.987-20.355 21.182" fill="#FFF"/><path fill="#FFF" d="M25.446 33.097l-7.61 4.027 1.454-8.53-6.156-6.04 8.508-1.244 3.804-7.76 3.805 7.76 8.508 1.244-6.156 6.04 1.453 8.53z"/></g></svg>