<svg width="24" height="21" viewBox="0 0 24 21" xmlns="http://www.w3.org/2000/svg" xmlns:xlink="http://www.w3.org/1999/xlink"><title>Group</title><defs><path id="a" d="M0 .087h23.827v20.685H0z"/><path id="c" d="M.357.001h9.108V4H.357z"/></defs><g fill="none" fill-rule="evenodd"><g><mask id="b" fill="#fff"><use xlink:href="#a"/></mask><path d="M8.18 7.254c.013-.027.028-.051.043-.077a2.93 2.93 0 0 1 .129-.22C9.12 5.695 10 5.122 10.338 4.935c.375-.237.796-.416 1.24-.462.312-.04.743-.048 1.192.096.274.085.534.213.777.366.337.187 1.216.76 1.986 2.022.05.074.09.148.128.22.016.026.03.05.044.077l-.004.003c.17.356.227.69.231.977.026.88-.33 2.095-.587 2.849a10.032 10.032 0 0 1-.613 1.52c-.05.088-.1.173-.153.253-.471.714-1.036 1.072-1.036 1.072v.008c-.56.341-1.093.473-1.58.48h-.04c-.488-.007-1.022-.139-1.58-.48v-.008s-.567-.358-1.038-1.072a4.321 4.321 0 0 1-.153-.254c-.19-.377-.418-.893-.613-1.519-.255-.754-.614-1.97-.587-2.85.003-.286.062-.62.232-.976l-.005-.003zM4.153 16.04c.053-.204.708-1.073.708-1.073.473-.377 1.089-.674 1.688-.902a13.068 13.068 0 0 1 1.492-.463l.002.006.022.044a5.353 5.353 0 0 0 1.482 1.684c.046.04.096.075.148.107.69.424 1.42.647 2.169.664h.155c.75-.017 1.479-.24 2.168-.664.053-.032.103-.067.149-.107a5.325 5.325 0 0 0 1.503-1.728c0-.002 0-.004.002-.006a13.248 13.248 0 0 1 1.492.462c.6.229 1.699.909 1.698.907.476.389.645.865.696 1.07.059.325.142.847.223 1.475l.288 3.24a12.082 12.082 0 0 0 3.588-8.616c0-6.657-5.334-12.053-11.914-12.053C5.334.087 0 5.483 0 12.14c0 3.385 1.381 6.443 3.602 8.632l.331-3.256a32.4 32.4 0 0 1 .221-1.476z" fill="#00ACF3" mask="url(#b)"/></g><g transform="translate(7 17)"><mask id="d" fill="#fff"><use xlink:href="#c"/></mask><path d="M4.9 1.435A3.182 3.182 0 0 1 8.007 3.96c.487.013.975.025 1.457.04a4.608 4.608 0 0 0-4.566-4 4.607 4.607 0 0 0-4.542 3.85c.49.001.981.002 1.466.006A3.175 3.175 0 0 1 4.9 1.435" fill="#00ACF3" mask="url(#d)"/></g></g></svg>