<svg width="210" height="45" viewBox="0 0 210 45" xmlns="http://www.w3.org/2000/svg" xmlns:xlink="http://www.w3.org/1999/xlink"><title>Group 6</title><defs><path id="a" d="M43.832 44.118H0V.452h43.832v43.666z"/></defs><g fill="none" fill-rule="evenodd"><path d="M58.378 17.904c0-.216.117-.41.351-.58a1.22 1.22 0 0 1 .729-.257c.342 0 .549.126.621.378l3.699 9.936 3.483-9.936c.108-.252.306-.378.594-.378.234 0 .472.085.715.256.244.172.365.374.365.608 0 .108-.018.18-.054.216l-4.185 11.34-.486 1.323c-.09.234-.265.657-.526 1.269-.262.612-.482 1.053-.662 1.323l-.702 1.08c-.306.45-.598.774-.877.972a5.557 5.557 0 0 1-1.013.553 3.037 3.037 0 0 1-1.215.257c-.54 0-.81-.261-.81-.783 0-.54.18-.81.54-.81.828 0 1.597-.5 2.309-1.498.71-1 1.246-2.237 1.606-3.713l-4.401-11.313a.484.484 0 0 1-.081-.243zm12.66 7.155v-2.943c0-1.368.504-2.551 1.512-3.55 1.008-1 2.205-1.499 3.591-1.499 1.386 0 2.592.495 3.618 1.485 1.026.99 1.539 2.178 1.539 3.564v2.943c0 1.35-.517 2.542-1.552 3.578-1.036 1.035-2.237 1.552-3.605 1.552-1.35 0-2.538-.517-3.564-1.552-1.026-1.036-1.539-2.228-1.539-3.578zm1.755 0c0 .918.328 1.732.985 2.444.658.71 1.445 1.066 2.363 1.066.936 0 1.737-.355 2.403-1.066.666-.712.999-1.526.999-2.444v-2.943c0-.882-.337-1.674-1.013-2.376-.675-.702-1.471-1.053-2.389-1.053-.918 0-1.705.351-2.363 1.053-.657.702-.985 1.494-.985 2.376v2.943zm11.769.054v-7.209c0-.162.085-.315.257-.459a.951.951 0 0 1 .634-.216.93.93 0 0 1 .594.216c.18.144.27.297.27.459v7.209c0 .9.333 1.701.999 2.403.666.702 1.458 1.053 2.376 1.053.918 0 1.71-.351 2.376-1.053.666-.702.999-1.503.999-2.403v-7.236c0-.18.09-.333.27-.459.18-.126.387-.189.621-.189a1 1 0 0 1 .608.189c.17.126.256.279.256.459v7.236c0 1.35-.508 2.533-1.526 3.55-1.017 1.018-2.218 1.526-3.604 1.526-1.404 0-2.61-.508-3.618-1.526-1.008-1.017-1.512-2.2-1.512-3.55zm14.037 4.185V17.877c0-.18.081-.333.243-.459.162-.126.369-.189.621-.189.234 0 .432.063.594.189.162.126.243.279.243.459V19.2c.324-.594.801-1.098 1.431-1.512.63-.414 1.359-.621 2.187-.621h.945c.18 0 .342.081.486.243a.827.827 0 0 1 .216.567.827.827 0 0 1-.216.567c-.144.162-.306.243-.486.243h-.945c-.936 0-1.764.364-2.484 1.093-.72.73-1.08 1.679-1.08 2.849v6.669c0 .18-.085.342-.257.486a.951.951 0 0 1-.634.216.913.913 0 0 1-.607-.216c-.172-.144-.257-.306-.257-.486zm8.475-4.239v-2.943c0-1.386.472-2.574 1.418-3.564.945-.99 2.083-1.485 3.415-1.485.828 0 1.552.198 2.174.594.62.396 1.084.882 1.39 1.458v-9.072c0-.18.09-.333.27-.459.18-.126.396-.189.648-.189s.454.063.608.189a.574.574 0 0 1 .229.459v19.251c0 .18-.081.342-.243.486a.862.862 0 0 1-.594.216.877.877 0 0 1-.58-.216c-.172-.144-.257-.306-.257-.486V28.11c-.306.576-.796 1.066-1.472 1.471a4.248 4.248 0 0 1-2.227.608c-1.278 0-2.394-.517-3.348-1.552-.954-1.036-1.431-2.228-1.431-3.578zm1.755 0c0 .9.333 1.71.999 2.43.666.72 1.449 1.08 2.349 1.08.864 0 1.629-.324 2.295-.972.666-.648.999-1.215.999-1.701v-3.78c0-1.026-.328-1.854-.986-2.484-.657-.63-1.417-.945-2.281-.945-.918 0-1.71.351-2.376 1.053-.666.702-.999 1.494-.999 2.376v2.943zm12.309 4.239V17.877c0-.18.081-.333.243-.459.162-.126.369-.189.621-.189.234 0 .432.063.594.189.162.126.243.279.243.459V19.2c.324-.594.801-1.098 1.431-1.512.63-.414 1.359-.621 2.187-.621h.945c.18 0 .342.081.486.243a.827.827 0 0 1 .216.567.827.827 0 0 1-.216.567c-.144.162-.306.243-.486.243h-.945c-.936 0-1.764.364-2.484 1.093-.72.73-1.08 1.679-1.08 2.849v6.669c0 .18-.085.342-.257.486a.951.951 0 0 1-.634.216.913.913 0 0 1-.608-.216c-.17-.144-.256-.306-.256-.486zm9.096-16.983c0-.306.117-.567.351-.783.234-.216.522-.324.864-.324.324 0 .598.108.823.324.226.216.338.477.338.783 0 .306-.112.571-.338.796a1.12 1.12 0 0 1-.823.338c-.342 0-.63-.112-.864-.338a1.07 1.07 0 0 1-.351-.796zm.351 16.983V17.877c0-.18.081-.333.243-.459.162-.126.369-.189.621-.189s.463.063.634.189c.172.126.257.279.257.459v11.421c0 .18-.09.342-.27.486a.966.966 0 0 1-.621.216.913.913 0 0 1-.608-.216c-.17-.144-.256-.306-.256-.486zm4.371-11.313c0-.216.112-.405.338-.567.225-.162.463-.243.715-.243.324 0 .54.135.648.405l3.564 9.72 3.564-9.612c.144-.342.351-.513.621-.513.216 0 .45.081.702.243.252.162.378.342.378.54a.959.959 0 0 1-.108.432l-4.347 11.394c-.108.288-.378.432-.81.432-.432 0-.702-.144-.81-.432l-4.347-11.394a.715.715 0 0 1-.108-.405zm12.66 7.074v-3.024c0-1.35.504-2.515 1.512-3.497 1.008-.98 2.223-1.471 3.645-1.471 1.368 0 2.551.468 3.55 1.404 1 .936 1.499 2.106 1.499 3.51 0 .504-.058.909-.175 1.215-.118.306-.306.522-.567.648a2.69 2.69 0 0 1-.716.243 5.712 5.712 0 0 1-.891.054h-6.102v.999c0 1.062.382 1.912 1.147 2.552.766.639 1.751.958 2.957.958.612 0 1.147-.09 1.607-.27.459-.18.81-.36 1.053-.54.243-.18.436-.27.58-.27.198 0 .373.094.526.284.154.189.23.373.23.553 0 .378-.387.77-1.161 1.174-.774.406-1.737.608-2.889.608-1.71 0-3.105-.472-4.185-1.418-1.08-.945-1.62-2.182-1.62-3.712zm1.755-2.214h5.4c.54 0 .9-.058 1.08-.175.18-.118.27-.365.27-.743 0-.9-.32-1.692-.959-2.376-.639-.684-1.444-1.026-2.416-1.026-.936 0-1.732.324-2.39.972-.657.648-.985 1.422-.985 2.322v1.026zm11.607 6.453V17.877c0-.18.081-.333.243-.459.162-.126.369-.189.621-.189.234 0 .432.063.594.189.162.126.243.279.243.459V19.2c.324-.594.801-1.098 1.431-1.512.63-.414 1.359-.621 2.187-.621h.945c.18 0 .342.081.486.243a.827.827 0 0 1 .216.567.827.827 0 0 1-.216.567c-.144.162-.306.243-.486.243h-.945c-.936 0-1.764.364-2.484 1.093-.72.73-1.08 1.679-1.08 2.849v6.669c0 .18-.085.342-.257.486a.951.951 0 0 1-.634.216.913.913 0 0 1-.608-.216c-.17-.144-.256-.306-.256-.486zm8.34-2.646c0-1.458.54-2.484 1.62-3.078 1.08-.594 2.637-.891 4.671-.891h1.107v-.351c0-.666-.193-1.246-.58-1.742-.388-.495-.986-.742-1.796-.742s-1.503.14-2.079.419c-.576.279-.909.418-.999.418-.36 0-.648-.18-.864-.54a2.266 2.266 0 0 1-.324-1.188c0-.522.463-.976 1.39-1.364a7.528 7.528 0 0 1 2.93-.58c1.962 0 3.42.5 4.374 1.498.954 1 1.431 2.255 1.431 3.767v6.615c0 .306-.162.567-.486.783-.324.216-.729.324-1.215.324-.45 0-.823-.108-1.12-.324-.298-.216-.446-.477-.446-.783v-.783c-1.242 1.422-2.61 2.133-4.104 2.133-1.026 0-1.867-.306-2.524-.918-.658-.612-.986-1.503-.986-2.673zm3.483-.459c0 .486.13.85.392 1.093.26.244.607.365 1.039.365.576 0 1.134-.27 1.674-.81s.81-1.134.81-1.782v-.567h-.405c-1.098 0-1.957.112-2.579.337-.62.226-.931.68-.931 1.364zm10.527 8.667V18.255c0-.324.157-.585.472-.783.316-.198.707-.297 1.175-.297.468 0 .855.099 1.161.297.306.198.459.459.459.783v.81c.342-.576.832-1.062 1.471-1.458.64-.396 1.364-.594 2.174-.594 1.35 0 2.493.535 3.429 1.606.936 1.072 1.404 2.363 1.404 3.875v2.214c0 1.458-.477 2.745-1.431 3.861-.954 1.116-2.052 1.674-3.294 1.674a3.89 3.89 0 0 1-2.147-.634c-.657-.424-1.12-.923-1.39-1.499v6.75c0 .288-.175.544-.526.77-.352.225-.77.337-1.256.337s-.891-.112-1.215-.337c-.324-.226-.486-.482-.486-.77zm3.483-9.666c0 .36.243.783.729 1.269.486.486 1.035.729 1.647.729.63 0 1.188-.256 1.674-.77.486-.513.729-1.084.729-1.714v-2.214c0-.63-.243-1.192-.729-1.688-.486-.495-1.062-.742-1.728-.742-.612 0-1.152.225-1.62.675-.468.45-.702 1.035-.702 1.755v2.7zm11.04 9.666V18.255c0-.324.157-.585.472-.783.316-.198.707-.297 1.175-.297.468 0 .855.099 1.161.297.306.198.459.459.459.783v.81c.342-.576.832-1.062 1.471-1.458.64-.396 1.364-.594 2.174-.594 1.35 0 2.493.535 3.429 1.606.936 1.072 1.404 2.363 1.404 3.875v2.214c0 1.458-.477 2.745-1.431 3.861-.954 1.116-2.052 1.674-3.294 1.674a3.89 3.89 0 0 1-2.147-.634c-.657-.424-1.12-.923-1.39-1.499v6.75c0 .288-.175.544-.526.77-.352.225-.77.337-1.256.337s-.891-.112-1.215-.337c-.324-.226-.486-.482-.486-.77zm3.483-9.666c0 .36.243.783.729 1.269.486.486 1.035.729 1.647.729.63 0 1.188-.256 1.674-.77.486-.513.729-1.084.729-1.714v-2.214c0-.63-.243-1.192-.729-1.688-.486-.495-1.062-.742-1.728-.742-.612 0-1.152.225-1.62.675-.468.45-.702 1.035-.702 1.755v2.7z" fill="#484848"/><g transform="translate(0 .43)"><mask id="b" fill="#fff"><use xlink:href="#a"/></mask><path d="M43.832 22.285c0 12.057-9.812 21.833-21.916 21.833C9.812 44.118 0 34.342 0 22.285 0 10.227 9.812.452 21.916.452c12.104 0 21.916 9.775 21.916 21.833" fill="#13B2F3" mask="url(#b)"/></g><path d="M28.335 19.544c-.84 0-1.523-.68-1.523-1.518 0-.836.683-1.517 1.523-1.517.84 0 1.523.68 1.523 1.517 0 .838-.684 1.518-1.523 1.518m-5.15 10.16a1.52 1.52 0 0 1-1.523 1.515c-.84 0-1.524-.68-1.524-1.516 0-.837.684-1.517 1.524-1.517s1.522.68 1.522 1.517m-8.195-10.16c-.841 0-1.524-.68-1.524-1.517 0-.836.683-1.517 1.524-1.517.84 0 1.522.68 1.522 1.517 0 .838-.683 1.518-1.522 1.518m13.346-4.614a3.106 3.106 0 0 0-3.11 3.096c0 .285.043.56.116.822l-3.68 2.425-3.679-2.425c.073-.262.115-.537.115-.822a3.105 3.105 0 0 0-3.108-3.096 3.106 3.106 0 0 0-3.11 3.096 3.106 3.106 0 0 0 5.132 2.347l3.744 2.468v3.9a3.105 3.105 0 0 0-2.202 2.962 3.106 3.106 0 0 0 3.109 3.096 3.107 3.107 0 0 0 3.108-3.096 3.106 3.106 0 0 0-2.202-2.963v-3.899l3.744-2.469a3.106 3.106 0 0 0 5.132-2.346 3.106 3.106 0 0 0-3.11-3.096" fill="#FFF"/></g></svg>