<svg xmlns="http://www.w3.org/2000/svg" width="103" height="42.999" viewBox="0 0 103 42.999">
  <g id="logo" transform="translate(533.317 -2963.063)">
    <g id="_4eR1gC" data-name="4eR1gC" transform="translate(-533.317 2963.063)">
      <g id="Group_37406" data-name="Group 37406" transform="translate(0 0)">
        <path id="Path_6249" data-name="Path 6249" d="M-507.736,2973.875l3.809-2.847-.074-.11c-.59.337-1.186.665-1.769,1.014-.686.411-1.365.834-2.04,1.263-.949.6-1.9,1.2-2.837,1.82a14.857,14.857,0,0,1-1.777,1.2,6.714,6.714,0,0,1-1.728.355c-1.136.187-2.281.329-3.411.545-1.2.23-2.4.49-3.582.8-1.237.32-2.462.691-3.681,1.077a23.994,23.994,0,0,0-2.609.95,28.3,28.3,0,0,0-2.59,1.394.742.742,0,0,0-.235.539c-.047.882-.055,1.767-.084,2.65-.007.225-.042.449-.063.674-.025.264-.205.408-.427.345a.6.6,0,0,1-.314-.4,5.493,5.493,0,0,1,.035-.627c-.01-.117-.126-.225-.194-.336a1.558,1.558,0,0,0-.292.2,1.925,1.925,0,0,0-.5,1.388c-.008.675-.088,1.348-.144,2.022a.66.66,0,0,0,.353.663c.392.249.766.526,1.149.789a.988.988,0,0,1,.466.974c-.05.5-.08,1.012-.12,1.518,0,.028,0,.057-.008.085-.065.477-.353.933-.616.924-.479-.016-.51-.48-.851-.813.586.066.591-.253.589-.57a4.64,4.64,0,0,0-.031-.844,3.453,3.453,0,0,0-.3-.686c-.125.117-.191.149-.2.193a9.543,9.543,0,0,0-.519,3.51c.046.293.178.393.473.406,3.956.174,7.91.42,11.867.528,5.241.143,10.486.183,15.729.258.832.012,1.664-.032,2.5-.028.347,0,.5-.1.532-.475a33.3,33.3,0,0,1,.4-3.485,11.9,11.9,0,0,1,2.267-5.475,6.339,6.339,0,0,1,4.96-2.49,4.6,4.6,0,0,1,2.241.822,6.039,6.039,0,0,1,2.991,4.445,12.91,12.91,0,0,1-.009,4.587c-.147.8-.327,1.6-.5,2.4-.068.321.091.455.384.453.451,0,.9-.021,1.352-.036q2.64-.092,5.28-.185a.5.5,0,0,1,.368.119c-.143,0-.286-.008-.428,0q-2.838.184-5.676.372c-.464.031-.926.081-1.39.113-.4.027-.5-.116-.394-.513a17.4,17.4,0,0,0,.693-5.756A6.689,6.689,0,0,0-491,2984.5a4.246,4.246,0,0,0-4.019-.909,6.221,6.221,0,0,0-3.272,2.451,9.736,9.736,0,0,0-1.315,2.817,17.893,17.893,0,0,0-.78,5.5c-.023,1.187.14,1.115-1.03,1.127-3.467.037-6.935.151-10.4.116-4.525-.046-9.049-.2-13.573-.321-1.254-.033-2.507-.1-3.76-.173s-2.5-.163-3.75-.239c-.318-.019-.4-.2-.4-.479-.006-1.8-.023-3.608-.02-5.412a20.666,20.666,0,0,1,.078-2.24c.128-1.16.319-2.312.5-3.465a10.61,10.61,0,0,1,.268-1.058c.274-1.023,1.2-1.381,1.977-1.847a23.616,23.616,0,0,1,2.788-1.387c.858-.372,1.751-.668,2.638-.967.853-.288,1.71-.577,2.582-.793,1.338-.331,2.69-.6,4.038-.895.96-.206,1.921-.413,2.886-.6a6.453,6.453,0,0,1,1.3-.143,3.934,3.934,0,0,0,2.375-.851c.745-.522,1.515-1.01,2.283-1.5,1.271-.809,2.533-1.632,3.829-2.4,1.223-.723,2.483-1.385,3.73-2.066.542-.3,1.093-.578,1.643-.859a9.631,9.631,0,0,1,3.955-1.059c1.318-.066,2.63-.254,3.941-.415.122-.015.267-.2.321-.341a18.265,18.265,0,0,1,.652-1.776,1.667,1.667,0,0,1,1.75-.962c1.26.074,2.53-.043,3.8-.079.028,0,.056-.011.084-.013,1.122-.075,2.244-.186,3.368-.208a2.986,2.986,0,0,1,1.248.32c.179.083.3.391.357.618.113.478.172.97.238,1.458a.552.552,0,0,0,.64.551c2.072.017,4.148,0,6.216.115,2.051.116,4.108.293,6.137.6a16.832,16.832,0,0,1,5.512,1.65c1.223.657,2.5,1.2,3.749,1.82.789.392,1.559.821,2.336,1.238q.944.506,1.882,1.024a2.445,2.445,0,0,1,.263.194l-.056.11c-.307-.147-.615-.292-.921-.442-.773-.381-1.544-.765-2.317-1.145-1.169-.575-2.328-1.17-3.512-1.713a25.347,25.347,0,0,0-3.492-1.461,31.481,31.481,0,0,0-4.342-.834,37.409,37.409,0,0,0-4.539-.42c-3.51-.057-7.023-.027-10.534.005-1.308.012-2.616.114-3.922.2-2.249.157-4.5.331-6.744.509-.743.059-1.483.152-2.225.233a.352.352,0,0,0-.267.159c.27.021.54.063.81.059,2.482-.037,4.964-.094,7.446-.119,2.017-.021,4.034,0,6.051-.008.761,0,1.522-.031,2.283-.033a1.653,1.653,0,0,1,.419.113,1.34,1.34,0,0,1-.146.365c-1.529,1.913-3.019,3.861-4.62,5.712a19.483,19.483,0,0,1-2.581,2.285,1.681,1.681,0,0,1-1.446.289,8.591,8.591,0,0,0-1.589-.206q-6.831-.131-13.663-.225c-1.34-.02-2.68-.009-4.02-.016-.174,0-.349-.025-.523-.038l0-.109c.2-.027.4-.071.6-.079,4-.152,8-.351,12-.429,2.478-.049,4.959.1,7.438.13a1.532,1.532,0,0,0,.886-.275,26.3,26.3,0,0,0,4.471-4.75c.308-.385.633-.756.932-1.147a1.6,1.6,0,0,0,.162-.416,1.4,1.4,0,0,0-.407-.138c-4.85-.053-9.7-.06-14.55-.168a6.454,6.454,0,0,0-3.548,1c-1.535.91-3.08,1.8-4.608,2.724-.793.478-1.558,1-2.337,1.5-.08.052-.166.094-.25.141Z" transform="translate(533.317 -2963.063)" fill="#b57eb8"/>
        <path id="Path_6250" data-name="Path 6250" d="M44.643,3135.751a2.617,2.617,0,0,1,.408.046c1.352.372,2.693.785,4.054,1.118a28.3,28.3,0,0,0,6.16.643,48.657,48.657,0,0,0,7.252-.358c1.977-.255,3.95-.55,5.921-.849,1.262-.191,2.52-.41,3.777-.636a41.818,41.818,0,0,1,10.132-.639,24.126,24.126,0,0,1,5.406.831c1.529.459,3.063.9,4.579,1.405a15.341,15.341,0,0,1,1.674.791c.685.324,1.394.6,2.056.971.76.421,1.49.9,2.212,1.386.56.376.392.944.342,1.5-.04-.025-.06-.032-.059-.038.1-.925-.474-1.261-1.215-1.65a35.925,35.925,0,0,0-3.866-1.649,21.817,21.817,0,0,0-2.554-.722c-.952-.238-1.9-.492-2.872-.644q-2.473-.386-4.964-.646a33.438,33.438,0,0,0-7.118.266c-.938.1-1.88.188-2.813.325-1.236.183-2.462.426-3.7.613-1.321.2-2.644.4-3.972.541-1.582.172-3.167.357-4.755.409-1.7.055-3.409-.006-5.111-.08a32.367,32.367,0,0,1-3.316-.336,19.945,19.945,0,0,1-2.34-.544c-.92-.253-1.839-.518-2.738-.836s-1.758-.7-2.636-1.056Z" transform="translate(4.321 -3120.448)" fill="#f573b4"/>
        <path id="Path_6251" data-name="Path 6251" d="M323.594,3186.9c.025-.427.071-.854.07-1.281,0-1.931-.014-3.863-.028-5.794,0-.421.147-.606.561-.623.324-.013.649,0,.973-.014.309-.013.441.139.441.43s-.007.592-.007.888c0,3.061,0,6.122.014,9.183,0,.408-.122.578-.523.542-.042,0-.085,0-.127,0-1.416-.016-1.366.181-2.177-1.113-.7-1.115-1.547-2.136-2.315-3.208s-1.5-2.138-2.262-3.2a6.4,6.4,0,0,0-.462-.5c-.035.347-.077.572-.077.8,0,2.242-.011,4.485.011,6.727,0,.409-.149.523-.514.509a8.687,8.687,0,0,0-.888.008c-.4.025-.55-.132-.547-.541.014-2.242.008-4.485.01-6.728,0-1.043,0-2.087.009-3.131,0-.514.164-.668.69-.685.225-.007.454.022.676-.007a.992.992,0,0,1,.988.509c.977,1.359,1.971,2.705,2.949,4.063.5.694.966,1.411,1.469,2.1.283.389.609.746.915,1.118Z" transform="translate(-243.882 -3160.849)" fill="#b57eb8"/>
        <path id="Path_6252" data-name="Path 6252" d="M-303.316,3162.513c.14-.137.258-.351.424-.4,1.99-.565,3.987-1.106,5.982-1.652.435-.119.876-.217,1.3-.356a.521.521,0,0,0,.311-.289c.261-.945.5-1.9.761-2.928l-1.712-.085-.005-.111c.71-.119,1.421-.235,2.131-.356a8.983,8.983,0,0,0,1.485-.284,1.028,1.028,0,0,0,.512-.638,3.09,3.09,0,0,1,1.149-1.786c.484-.347.981-.677,1.47-1.018a1.889,1.889,0,0,0,.208-.24,5.448,5.448,0,0,0-.788.07c-.748.189-1.489.4-2.233.6-.772.21-1.533.477-2.318.614a4.486,4.486,0,0,0-2.623,1.565,1.6,1.6,0,0,1-.432.333,3.354,3.354,0,0,1,.89-1.4,6.327,6.327,0,0,1,3.021-1.5c1.478-.5,2.954-1.025,4.468-1.384a9.228,9.228,0,0,1,3.5-.419.661.661,0,0,1,.608.639.6.6,0,0,1-.439.755c-1.148.385-2.32.719-3.428,1.2a3.382,3.382,0,0,0-2.42,2.908c0,.078-.039.207-.087.222-.434.13-.327.487-.4.8-.378,1.587-.751,3.179-1.232,4.737a10.216,10.216,0,0,1-1.107,2.247,1.179,1.179,0,0,1-.872.478c-2.24-.043-4.479-.144-6.718-.236a1.122,1.122,0,0,1-.611-.225c.326-.025.651-.059.977-.073,2.026-.092,4.052-.173,6.077-.281a.673.673,0,0,0,.5-.294,20.216,20.216,0,0,0,1-2.4c.295-.937.485-1.907.688-2.871.034-.163-.1-.361-.156-.543-.142.151-.355.278-.414.457-.222.668-.4,1.351-.582,2.031a.875.875,0,0,1-.8.64c-1.163.213-2.322.451-3.485.668q-1.8.337-3.606.651c-.331.058-.668.086-1,.129Z" transform="translate(322.79 -3134.914)" fill="#b47fb7"/>
        <path id="Path_6253" data-name="Path 6253" d="M67.436,3019.313c.3-.352.592-.714.9-1.057a13.648,13.648,0,0,1,4.275-3.159,12.3,12.3,0,0,1,4.612-1.354,15.781,15.781,0,0,1,3.542.109,29.712,29.712,0,0,1,4.3,1.181,20.318,20.318,0,0,1,5.866,3.255,30.222,30.222,0,0,1,3.953,3.732,9.7,9.7,0,0,1,.876,1.133c-9-.012-17.988-.317-26.979-.594,8.156-.352,16.318-.409,24.482-.376l.071-.154a4.5,4.5,0,0,0-.534-.7c-.964-.859-1.912-1.745-2.937-2.527a26.328,26.328,0,0,0-2.946-1.927,18,18,0,0,0-2.353-1.03,19.274,19.274,0,0,0-5.783-1.322,11.635,11.635,0,0,0-4.384.5,13.416,13.416,0,0,0-4.081,2.05c-.876.67-1.664,1.454-2.493,2.186-.078.069-.165.129-.247.193Z" transform="translate(-16.594 -3009.41)" fill="#b67dbd"/>
        <path id="Path_6254" data-name="Path 6254" d="M600.566,3219.8c0,.888,0,1.777,0,2.665,0,.332-.11.459-.47.475a1.09,1.09,0,0,1-1.141-.523c-.055-.093-.358-.127-.5-.069a4.767,4.767,0,0,1-2.4.571,3.473,3.473,0,0,1-1.848-.636,2.392,2.392,0,0,1-.482-3.108,2.455,2.455,0,0,1,1.494-.982,7.557,7.557,0,0,1,2.849-.152c.331.022.507-.071.5-.439-.019-.69-.332-1.114-1.045-1.12a25.55,25.55,0,0,0-2.856.181c-.431.045-.58-.011-.6-.446-.052-1,.042-1.118,1.031-1.2a20.582,20.582,0,0,1,2.519-.147,5.485,5.485,0,0,1,1.667.421,1.945,1.945,0,0,1,1.249,1.845c.053.886.012,1.776.012,2.665Zm-3.093-.4c-.325,0-.537-.014-.746,0a3.94,3.94,0,0,0-.665.107c-.455.119-.616.365-.634.919a.818.818,0,0,0,.6.905,2.668,2.668,0,0,0,1.938-.134c.577-.269.757-.672.6-1.443-.107-.519-.567-.259-.872-.336A.882.882,0,0,0,597.473,3219.4Z" transform="translate(-498.014 -3193.555)" fill="#b57eb8"/>
        <path id="Path_6255" data-name="Path 6255" d="M503.094,3221.873c-.913-.149-1.7-.271-2.487-.413-.105-.019-.266-.125-.276-.206a6.031,6.031,0,0,1-.061-1.172c.018-.242.23-.35.479-.24a6.691,6.691,0,0,0,2.406.349,3.462,3.462,0,0,0,.994-.149c.415-.1.451-.458.461-.807a.577.577,0,0,0-.489-.643,3.405,3.405,0,0,0-.625-.086,10.421,10.421,0,0,0-1.394,0,2.2,2.2,0,0,1-2.282-2.011,2.267,2.267,0,0,1,.877-2.281,3.934,3.934,0,0,1,1.733-.583,8.174,8.174,0,0,1,3.351.254.542.542,0,0,1,.462.552c.078,1.144.094,1.089-1.032.907a17.914,17.914,0,0,0-2.517-.134,1.748,1.748,0,0,0-.637.2.649.649,0,0,0-.369.737.581.581,0,0,0,.534.571c.559.057,1.122.087,1.684.1a2.854,2.854,0,0,1,2.039.642,2.351,2.351,0,0,1,.468.713,2.477,2.477,0,0,1,.025,2.126,1.957,1.957,0,0,1-1.268,1.153C504.464,3221.656,503.727,3221.75,503.094,3221.873Z" transform="translate(-412.361 -3192.364)" fill="#b57eb8"/>
        <path id="Path_6256" data-name="Path 6256" d="M-492.06,3181.687a8.02,8.02,0,0,1,.145.831c.034.464.053.93.04,1.395a.492.492,0,0,0,.353.552q.941.294,1.892.558c.771.212,1.554.384,2.318.618a3.564,3.564,0,0,0,1.707.131c1.217-.217,2.43-.452,3.65-.65.8-.131,1.618-.2,2.425-.315a4.558,4.558,0,0,0,1.185-.274c.209-.093.353-.383.474-.612.7-1.315,1.372-2.64,2.063-3.958.17-.323.067-.568-.325-.637-.513-.091-1.029-.164-1.546-.227a64.371,64.371,0,0,0-9.123-.23c-1.153.023-2.305.115-3.458.171a.415.415,0,0,1-.224-.068,16.3,16.3,0,0,1,4.044-.6c2.093-.1,4.184-.286,6.277-.294,1.53-.006,3.061.206,4.59.343a8.863,8.863,0,0,1,1.111.24c.254.056.273.23.179.418-.341.678-.7,1.346-1.041,2.025-.405.815-.788,1.641-1.191,2.457-.249.5-.513,1-.78,1.5a1.366,1.366,0,0,1-1.134.635c-1.758.232-3.52.438-5.28.653-.741.09-1.48.211-2.223.263a3.373,3.373,0,0,1-1.2-.11c-1.583-.486-3.15-1.02-4.727-1.524-.259-.082-.444-.211-.442-.488.005-.86.027-1.719.048-2.578a.694.694,0,0,1,.083-.215Z" transform="translate(495.773 -3159.878)" fill="#b47fb7"/>
        <path id="Path_6257" data-name="Path 6257" d="M26.878,3191.4a10.112,10.112,0,0,1-1.233-.016.612.612,0,0,1-.378-.345q-.574-1.379-1.094-2.78c-.112-.3-.33-.3-.573-.306l-2.367-.023a1.129,1.129,0,0,1-.253-.013c-.2-.048-.492.031-.5-.314a.717.717,0,0,1,.551-.648c.662-.016,1.325-.01,1.988-.017.431,0,.539-.2.371-.6-.39-.92-.762-1.847-1.144-2.77-.2-.476-.389-.954-.6-1.422-.046-.1-.177-.164-.268-.244a1.236,1.236,0,0,0-.226.27c-.613,1.419-1.227,2.838-1.821,4.265-.225.542-.382,1.112-.6,1.656-.268.663-.571,1.312-.856,1.968a2.525,2.525,0,0,0-.247.627c-.092.687-.562.9-1.469.617.132-.324.258-.647.394-.965.448-1.047.909-2.088,1.346-3.14.5-1.206.964-2.427,1.471-3.628.31-.736.671-1.45,1.009-2.173.024-.051.061-.1.084-.146.324-.722.588-.88,1.384-.734a.726.726,0,0,1,.461.359q1.248,2.765,2.45,5.551c.228.527.4,1.076.618,1.608.309.765.626,1.527.955,2.283C26.466,3190.649,26.652,3190.961,26.878,3191.4Z" transform="translate(30.354 -3162.069)" fill="#f573b4"/>
        <path id="Path_6258" data-name="Path 6258" d="M167.753,3219.173c0,.832.013,1.664-.009,2.5-.006.206-.084.545-.205.583a1.624,1.624,0,0,1-.857-.02c-.09-.022-.158-.306-.16-.471-.015-1.112,0-2.225-.014-3.338-.007-.576-.034-1.154-.085-1.728a1.419,1.419,0,0,0-1.353-1.313,3.5,3.5,0,0,0-2.617.718.719.719,0,0,0-.258.4,5.206,5.206,0,0,0-.082.966c.006,1.451.014,2.9.049,4.351.01.409-.167.513-.526.514-.59,0-.711-.069-.706-.513.019-1.7.051-3.409.068-5.114.007-.674-.012-1.349-.018-2.024,0-.224.017-.437.317-.446a.4.4,0,0,1,.471.364c.13.646.508.787,1.022.377a3.274,3.274,0,0,1,3.416-.384,2.4,2.4,0,0,1,1.548,2.259c0,.775,0,1.551,0,2.326Z" transform="translate(-102.176 -3192.974)" fill="#f573b4"/>
        <path id="Path_6259" data-name="Path 6259" d="M-115.83,3213.84a2.832,2.832,0,0,1,1.774-1.292c2.045-.568,3.621.958,4.363,2.3a9.958,9.958,0,0,1,.893,6.531,8.434,8.434,0,0,1-2.768,5.27,3.6,3.6,0,0,1-3.13.941,3.612,3.612,0,0,1-2.38-1.805c-.039-.066-.005-.175.031-.29a3.925,3.925,0,0,0,2.069,1.521.835.835,0,0,0,.32.089,3.644,3.644,0,0,0,2.511-.976,7.587,7.587,0,0,0,2.049-3.631c.669-2.662.8-5.35-.648-7.841a2.987,2.987,0,0,0-3.977-1.494A6.152,6.152,0,0,0-115.83,3213.84Z" transform="translate(152.321 -3191.322)" fill="#b57eb8"/>
        <path id="Path_6260" data-name="Path 6260" d="M459.519,3217.874c0,1.185-.01,2.37.006,3.555,0,.361-.133.525-.486.525-.31,0-.621.011-.931.007-.527-.007-.615-.091-.615-.619q0-2.772.01-5.544c0-.508.016-1.015.007-1.523-.006-.338.122-.5.476-.471a6.73,6.73,0,0,0,.972.007c.417-.031.575.116.566.551-.024,1.17-.008,2.342-.008,3.512Z" transform="translate(-373.64 -3192.581)" fill="#b57eb8"/>
        <path id="Path_6261" data-name="Path 6261" d="M458.526,3179.329c.936-.006.936-.006.925.97-.006.52-.044.564-.579.589a8.673,8.673,0,0,1-.969.014c-.379-.025-.486-.305-.427-1.066.025-.329.145-.58.545-.544C458.189,3179.306,458.357,3179.316,458.526,3179.329Z" transform="translate(-373.61 -3160.988)" fill="#b57eb8"/>
        <path id="Path_6262" data-name="Path 6262" d="M-311.3,3289.024l-.732.805c-.065-.441.413-.887.742-.793Z" transform="translate(330.769 -3261.437)" fill="#f573b4"/>
      </g>
    </g>
    <g id="Group_37407" data-name="Group 37407" transform="translate(-511.58 3001.569)">
      <path id="Path_6263" data-name="Path 6263" d="M-273.891,3418.066a.2.2,0,0,1,.149.061.208.208,0,0,1,.061.153.21.21,0,0,1-.059.153.2.2,0,0,1-.151.061h-2.16v1.632h1.648a.2.2,0,0,1,.151.065.217.217,0,0,1,.062.154.2.2,0,0,1-.062.148.211.211,0,0,1-.151.059h-1.648v1.507a.2.2,0,0,1-.062.151.21.21,0,0,1-.151.059.207.207,0,0,1-.153-.061.2.2,0,0,1-.061-.149v-3.785a.216.216,0,0,1,.013-.071.212.212,0,0,1,.038-.067.2.2,0,0,1,.064-.049.219.219,0,0,1,.1-.02Z" transform="translate(276.478 -3418.064)" fill="#b57eb8" stroke="#b57eb8" stroke-width="0.5"/>
      <path id="Path_6264" data-name="Path 6264" d="M-243.117,3432.749a1.536,1.536,0,0,1,.123-.613,1.55,1.55,0,0,1,.336-.5,1.591,1.591,0,0,1,.5-.335,1.519,1.519,0,0,1,.607-.123,1.516,1.516,0,0,1,.609.123,1.578,1.578,0,0,1,.5.335,1.567,1.567,0,0,1,.335.5,1.539,1.539,0,0,1,.123.613,1.519,1.519,0,0,1-.123.607,1.589,1.589,0,0,1-.335.5,1.581,1.581,0,0,1-.5.335,1.519,1.519,0,0,1-.609.123,1.522,1.522,0,0,1-.607-.123,1.6,1.6,0,0,1-.5-.335,1.572,1.572,0,0,1-.336-.5A1.516,1.516,0,0,1-243.117,3432.749Zm.43,0a1.093,1.093,0,0,0,.089.438,1.155,1.155,0,0,0,.241.359,1.139,1.139,0,0,0,.361.245,1.114,1.114,0,0,0,.445.09,1.121,1.121,0,0,0,.448-.09,1.139,1.139,0,0,0,.361-.245,1.131,1.131,0,0,0,.24-.359,1.11,1.11,0,0,0,.087-.438,1.124,1.124,0,0,0-.089-.445,1.149,1.149,0,0,0-.241-.363,1.116,1.116,0,0,0-.36-.243,1.122,1.122,0,0,0-.447-.089,1.125,1.125,0,0,0-.445.089,1.111,1.111,0,0,0-.361.243,1.148,1.148,0,0,0-.241.363A1.124,1.124,0,0,0-242.687,3432.749Z" transform="translate(245.94 -3430.067)" fill="#b57eb8" stroke="#b57eb8" stroke-width="0.5"/>
      <path id="Path_6265" data-name="Path 6265" d="M-196.722,3431.4a.211.211,0,0,1,.064-.156.211.211,0,0,1,.156-.064h.975a1.121,1.121,0,0,1,.447.09,1.143,1.143,0,0,1,.364.247,1.177,1.177,0,0,1,.245.364,1.118,1.118,0,0,1,.09.448,1.057,1.057,0,0,1-.056.348.949.949,0,0,1-.158.287,1.048,1.048,0,0,1-.243.219,1.192,1.192,0,0,1-.309.141l.522.587a.21.21,0,0,1,.066.153.2.2,0,0,1-.062.149.208.208,0,0,1-.153.065.208.208,0,0,1-.153-.065l-.742-.837h-.627v.683a.221.221,0,0,1-.059.156.194.194,0,0,1-.148.064.214.214,0,0,1-.156-.064.212.212,0,0,1-.064-.156Zm.427.2v1.359h.755a.859.859,0,0,0,.3-.05.7.7,0,0,0,.231-.135.613.613,0,0,0,.149-.2.6.6,0,0,0,.054-.252.678.678,0,0,0-.054-.264.739.739,0,0,0-.151-.23.769.769,0,0,0-.23-.163.676.676,0,0,0-.291-.062Z" transform="translate(203.472 -3430.067)" fill="#b57eb8" stroke="#b57eb8" stroke-width="0.5"/>
      <path id="Path_6266" data-name="Path 6266" d="M-143.922,3419.942l.676,1.566,1.438-3.332a.2.2,0,0,1,.113-.116.2.2,0,0,1,.159,0,.2.2,0,0,1,.12.112.2.2,0,0,1,0,.164l-1.625,3.775a.228.228,0,0,1-.087.1.206.206,0,0,1-.123.032.218.218,0,0,1-.12-.034.205.205,0,0,1-.081-.1l-.7-1.628-.7,1.628a.2.2,0,0,1-.082.1.222.222,0,0,1-.118.034.206.206,0,0,1-.123-.032.209.209,0,0,1-.084-.1l-1.625-3.775a.2.2,0,0,1,0-.162.2.2,0,0,1,.118-.113.209.209,0,0,1,.161,0,.2.2,0,0,1,.115.116l1.431,3.336,1.445-3.336a.217.217,0,0,1,.115-.116.2.2,0,0,1,.164,0,.2.2,0,0,1,.115.113.208.208,0,0,1,0,.166Z" transform="translate(157.872 -3418.043)" fill="#b57eb8" stroke="#b57eb8" stroke-width="0.5"/>
      <path id="Path_6267" data-name="Path 6267" d="M-82.4,3432.749a1.538,1.538,0,0,1,.123-.613,1.552,1.552,0,0,1,.336-.5,1.593,1.593,0,0,1,.5-.335,1.519,1.519,0,0,1,.607-.123,1.516,1.516,0,0,1,.609.123,1.578,1.578,0,0,1,.5.335,1.567,1.567,0,0,1,.335.5,1.538,1.538,0,0,1,.123.613,1.518,1.518,0,0,1-.123.607,1.589,1.589,0,0,1-.335.5,1.582,1.582,0,0,1-.5.335,1.52,1.52,0,0,1-.609.123,1.523,1.523,0,0,1-.607-.123,1.6,1.6,0,0,1-.5-.335,1.574,1.574,0,0,1-.336-.5A1.518,1.518,0,0,1-82.4,3432.749Zm.43,0a1.093,1.093,0,0,0,.089.438,1.157,1.157,0,0,0,.241.359,1.14,1.14,0,0,0,.361.245,1.114,1.114,0,0,0,.445.09,1.122,1.122,0,0,0,.448-.09,1.139,1.139,0,0,0,.361-.245,1.134,1.134,0,0,0,.24-.359,1.111,1.111,0,0,0,.087-.438,1.123,1.123,0,0,0-.089-.445,1.147,1.147,0,0,0-.241-.363,1.115,1.115,0,0,0-.359-.243,1.122,1.122,0,0,0-.447-.089,1.126,1.126,0,0,0-.445.089,1.111,1.111,0,0,0-.361.243,1.15,1.15,0,0,0-.241.363A1.124,1.124,0,0,0-81.974,3432.749Z" transform="translate(98.829 -3430.067)" fill="#b57eb8" stroke="#b57eb8" stroke-width="0.5"/>
      <path id="Path_6268" data-name="Path 6268" d="M-33.337,3431.87l-.975,1.034a.216.216,0,0,1-.117.064.192.192,0,0,1-.12-.014.271.271,0,0,1-.079-.056l-.955-1.027v2.164a.221.221,0,0,1-.059.156.192.192,0,0,1-.148.064.212.212,0,0,1-.156-.064.211.211,0,0,1-.064-.156v-2.679a.167.167,0,0,1,.043-.1.25.25,0,0,1,.062-.056s0,0,0,0,0,0,0,0l.01-.007a.01.01,0,0,0,.007,0,.044.044,0,0,1,.02-.007.1.1,0,0,1,.03-.008l.026-.005h.031l.012,0a.1.1,0,0,1,.025,0l.025.007a.014.014,0,0,0,.01,0,.277.277,0,0,1,.072.046l1.165,1.228,1.179-1.228a.21.21,0,0,1,.148-.064.213.213,0,0,1,.151.058l.007.006.007,0v0l.02.02a.085.085,0,0,1,.016.023.179.179,0,0,1,.023.062.2.2,0,0,1,.007.046v2.656a.206.206,0,0,1-.064.154.215.215,0,0,1-.156.062.2.2,0,0,1-.148-.062.215.215,0,0,1-.059-.154Z" transform="translate(56.36 -3430.049)" fill="#b57eb8" stroke="#b57eb8" stroke-width="0.5"/>
      <path id="Path_6269" data-name="Path 6269" d="M14.849,3431.179a.193.193,0,0,1,.141.059.2.2,0,0,1,.059.144.191.191,0,0,1-.059.143.2.2,0,0,1-.141.057l-1.632,0v.933h1.06a.194.194,0,0,1,.146.053.182.182,0,0,1,.061.141.189.189,0,0,1-.061.143.206.206,0,0,1-.146.057h-1.06v.948H14.84a.2.2,0,0,1,.2.2.206.206,0,0,1-.059.15.183.183,0,0,1-.144.057H12.991a.172.172,0,0,1-.092-.026.2.2,0,0,1-.079-.075.22.22,0,0,1-.03-.115V3431.4a.2.2,0,0,1,.079-.167.158.158,0,0,1,.125-.052Z" transform="translate(11.69 -3430.067)" fill="#b57eb8" stroke="#b57eb8" stroke-width="0.5"/>
      <path id="Path_6270" data-name="Path 6270" d="M47.82,3431.36a.214.214,0,0,1,.064-.155.21.21,0,0,1,.156-.066.165.165,0,0,1,.112.04.242.242,0,0,1,.031.021.162.162,0,0,1,.028.028L50,3433.448v-2.085a.231.231,0,0,1,.057-.157.193.193,0,0,1,.153-.066.2.2,0,0,1,.156.066.224.224,0,0,1,.061.157v2.653a.215.215,0,0,1-.062.156.211.211,0,0,1-.158.064.207.207,0,0,1-.121-.037l-.031-.026a.235.235,0,0,1-.028-.029l-1.792-2.226v2.1a.237.237,0,0,1-.052.156.174.174,0,0,1-.141.064.207.207,0,0,1-.154-.064.214.214,0,0,1-.062-.156Z" transform="translate(-20.374 -3430.031)" fill="#b57eb8" stroke="#b57eb8" stroke-width="0.5"/>
      <path id="Path_6271" data-name="Path 6271" d="M109.207,3422.269a.208.208,0,0,1-.151-.061.2.2,0,0,1-.062-.149v-3.782a.2.2,0,0,1,.062-.151.213.213,0,0,1,.151-.059h1.513a1.047,1.047,0,0,1,.425.087,1.11,1.11,0,0,1,.346.236,1.112,1.112,0,0,1,.205,1.258,1.159,1.159,0,0,1-.3.382,1.192,1.192,0,0,1,.245.19,1.227,1.227,0,0,1,.187.245,1.209,1.209,0,0,1,.162.609,1.157,1.157,0,0,1-.1.474,1.178,1.178,0,0,1-.266.379,1.233,1.233,0,0,1-.4.251,1.3,1.3,0,0,1-.486.09Zm.213-3.775v1.359h1.27a.676.676,0,0,0,.274-.055.695.695,0,0,0,.363-.365.642.642,0,0,0,.052-.257.657.657,0,0,0-.052-.256.712.712,0,0,0-.143-.218.694.694,0,0,0-.215-.151.632.632,0,0,0-.269-.058Zm0,1.786v1.563h1.316a.844.844,0,0,0,.33-.064.8.8,0,0,0,.435-.429.759.759,0,0,0,.062-.305.742.742,0,0,0-.064-.309.722.722,0,0,0-.176-.241.834.834,0,0,0-.264-.157.923.923,0,0,0-.33-.058Z" transform="translate(-76.371 -3418.064)" fill="#b57eb8" stroke="#b57eb8" stroke-width="0.5"/>
      <path id="Path_6272" data-name="Path 6272" d="M150.729,3432.926l-1.044-1.408a.189.189,0,0,1-.039-.159.23.23,0,0,1,.089-.146.2.2,0,0,1,.159-.037.228.228,0,0,1,.143.092l.919,1.27.926-1.27a.228.228,0,0,1,.143-.092.2.2,0,0,1,.159.037.223.223,0,0,1,.087.146.2.2,0,0,1-.038.159l-1.074,1.431v1.1a.21.21,0,0,1-.062.155.2.2,0,0,1-.151.063.208.208,0,0,1-.154-.063.21.21,0,0,1-.062-.155Z" transform="translate(-113.579 -3430.06)" fill="#b57eb8" stroke="#b57eb8" stroke-width="0.5"/>
      <path id="Path_6273" data-name="Path 6273" d="M204.387,3419.942l.676,1.566,1.438-3.332a.215.215,0,0,1,.392,0,.2.2,0,0,1,0,.164l-1.625,3.775a.228.228,0,0,1-.087.1.206.206,0,0,1-.123.032.218.218,0,0,1-.12-.034.206.206,0,0,1-.081-.1l-.7-1.628-.7,1.628a.2.2,0,0,1-.082.1.222.222,0,0,1-.118.034.206.206,0,0,1-.123-.032.209.209,0,0,1-.084-.1l-1.625-3.775a.2.2,0,0,1,0-.162.2.2,0,0,1,.118-.113.209.209,0,0,1,.161,0,.2.2,0,0,1,.115.116l1.431,3.336,1.445-3.336a.217.217,0,0,1,.115-.116.2.2,0,0,1,.164,0,.2.2,0,0,1,.115.113.208.208,0,0,1,0,.166Z" transform="translate(-160.959 -3418.043)" fill="#b57eb8" stroke="#b57eb8" stroke-width="0.5"/>
      <path id="Path_6274" data-name="Path 6274" d="M265.905,3432.749a1.562,1.562,0,0,1,.46-1.111,1.593,1.593,0,0,1,.5-.335,1.562,1.562,0,0,1,1.216,0,1.566,1.566,0,0,1,.831.834,1.538,1.538,0,0,1,.123.613,1.518,1.518,0,0,1-.123.607,1.568,1.568,0,0,1-.831.832,1.568,1.568,0,0,1-1.216,0,1.6,1.6,0,0,1-.5-.335,1.573,1.573,0,0,1-.337-.5A1.518,1.518,0,0,1,265.905,3432.749Zm.43,0a1.094,1.094,0,0,0,.089.438,1.158,1.158,0,0,0,.241.359,1.14,1.14,0,0,0,.361.245,1.151,1.151,0,0,0,.893,0,1.132,1.132,0,0,0,.6-.6,1.153,1.153,0,0,0,0-.883,1.146,1.146,0,0,0-.241-.363,1.141,1.141,0,0,0-1.612,0,1.151,1.151,0,0,0-.241.363A1.125,1.125,0,0,0,266.335,3432.749Z" transform="translate(-220.003 -3430.067)" fill="#b57eb8" stroke="#b57eb8" stroke-width="0.5"/>
      <path id="Path_6275" data-name="Path 6275" d="M314.972,3431.87,314,3432.9a.215.215,0,0,1-.117.064.193.193,0,0,1-.12-.014.273.273,0,0,1-.079-.056l-.955-1.027v2.164a.221.221,0,0,1-.059.156.192.192,0,0,1-.148.064.218.218,0,0,1-.22-.219v-2.679a.167.167,0,0,1,.043-.1.252.252,0,0,1,.062-.056s0,0,0,0,0,0,0,0l.01-.007a.01.01,0,0,0,.007,0,.044.044,0,0,1,.02-.007.1.1,0,0,1,.03-.008l.026-.005h.031l.011,0a.1.1,0,0,1,.025,0l.025.007a.015.015,0,0,0,.01,0,.276.276,0,0,1,.072.046l1.165,1.228,1.179-1.228a.209.209,0,0,1,.148-.064.213.213,0,0,1,.151.058l.007.006.007,0v0l.02.02a.085.085,0,0,1,.016.023.178.178,0,0,1,.023.062.2.2,0,0,1,.007.046v2.656a.207.207,0,0,1-.064.154.215.215,0,0,1-.156.062.2.2,0,0,1-.148-.062.215.215,0,0,1-.059-.154Z" transform="translate(-262.471 -3430.049)" fill="#b57eb8" stroke="#b57eb8" stroke-width="0.5"/>
      <path id="Path_6276" data-name="Path 6276" d="M363.159,3431.179a.193.193,0,0,1,.141.059.2.2,0,0,1,.059.144.191.191,0,0,1-.059.143.2.2,0,0,1-.141.057l-1.632,0v.933h1.06a.194.194,0,0,1,.146.053.182.182,0,0,1,.061.141.189.189,0,0,1-.061.143.206.206,0,0,1-.146.057h-1.06v.948h1.622a.2.2,0,0,1,.2.2.206.206,0,0,1-.059.15.183.183,0,0,1-.144.057H361.3a.172.172,0,0,1-.092-.026.2.2,0,0,1-.079-.075.22.22,0,0,1-.03-.115V3431.4a.2.2,0,0,1,.079-.167.158.158,0,0,1,.125-.052Z" transform="translate(-307.141 -3430.067)" fill="#b57eb8" stroke="#b57eb8" stroke-width="0.5"/>
      <path id="Path_6277" data-name="Path 6277" d="M396.129,3431.36a.214.214,0,0,1,.064-.155.21.21,0,0,1,.156-.066.166.166,0,0,1,.112.04.239.239,0,0,1,.031.021.163.163,0,0,1,.028.028l1.786,2.219v-2.085a.231.231,0,0,1,.057-.157.193.193,0,0,1,.153-.066.2.2,0,0,1,.156.066.224.224,0,0,1,.061.157v2.653a.214.214,0,0,1-.062.156.211.211,0,0,1-.157.064.207.207,0,0,1-.122-.037l-.031-.026a.234.234,0,0,1-.028-.029l-1.792-2.226v2.1a.237.237,0,0,1-.053.156.173.173,0,0,1-.141.064.207.207,0,0,1-.154-.064.215.215,0,0,1-.062-.156Z" transform="translate(-339.206 -3430.031)" fill="#b57eb8" stroke="#b57eb8" stroke-width="0.5"/>
    </g>
  </g>
</svg>
