<svg width="223" height="53" viewBox="0 0 223 53" xmlns="http://www.w3.org/2000/svg"><title>Logo</title><g fill="none" fill-rule="evenodd"><path d="M52.787 26.478c0 14.624-11.817 26.478-26.393 26.478C11.817 52.956 0 41.102 0 26.478 0 11.854 11.817 0 26.394 0 40.97 0 52.787 11.854 52.787 26.478" fill="#13B2F3"/><path d="M35.186 22.389a2.012 2.012 0 0 1 0-4.026c1.106 0 2.007.903 2.007 2.013 0 1.11-.9 2.013-2.007 2.013m-6.785 13.246c0 1.11-.901 2.014-2.007 2.014a2.012 2.012 0 0 1-2.007-2.014c0-1.11.9-2.013 2.007-2.013 1.106 0 2.007.904 2.007 2.013M17.6 22.39a2.012 2.012 0 0 1-2.007-2.013c0-1.11.9-2.013 2.007-2.013 1.106 0 2.006.903 2.006 2.013 0 1.11-.9 2.013-2.006 2.013m17.585-6.123c-2.258 0-4.096 1.844-4.096 4.11 0 .378.056.741.151 1.09l-4.847 3.217-4.848-3.218c.095-.348.15-.711.15-1.09 0-2.265-1.836-4.109-4.095-4.109-2.258 0-4.096 1.844-4.096 4.11 0 2.265 1.838 4.109 4.096 4.109a4.07 4.07 0 0 0 2.665-.995l4.934 3.275v4.94a4.114 4.114 0 0 0-2.903 3.93c0 2.266 1.838 4.11 4.097 4.11 2.258 0 4.096-1.844 4.096-4.11a4.115 4.115 0 0 0-2.902-3.93v-4.94l4.933-3.275a4.068 4.068 0 0 0 2.665.995c2.259 0 4.097-1.844 4.097-4.11 0-2.265-1.838-4.109-4.097-4.109" fill="#FFF"/><path d="M66.447 16.096c0-.226.122-.428.367-.607.245-.178.499-.268.763-.268.357 0 .574.132.65.395l3.87 10.399 3.646-10.4c.112-.262.32-.394.62-.394.245 0 .496.09.75.268.253.179.382.391.382.636 0 .112-.019.189-.057.226l-4.38 11.908-.508 1.388c-.094.246-.279.69-.552 1.332-.273.643-.503 1.106-.691 1.39l-.735 1.133c-.32.474-.626.813-.92 1.022a5.925 5.925 0 0 1-1.057.582c-.416.178-.84.268-1.273.268-.565 0-.848-.284-.848-.85 0-.587.188-.88.566-.88.866 0 1.671-.522 2.416-1.568.744-1.045 1.304-2.34 1.682-3.885l-4.606-11.84a.498.498 0 0 1-.085-.255M81.364 23.602c0 .96.344 1.81 1.032 2.552.688.742 1.512 1.113 2.472 1.113.98 0 1.818-.371 2.515-1.113.697-.741 1.045-1.592 1.045-2.552v-3.073c0-.92-.353-1.747-1.059-2.48-.706-.732-1.54-1.1-2.501-1.1-.96 0-1.784.368-2.472 1.1-.688.733-1.032 1.56-1.032 2.48v3.073zm-1.835.009v-3.09c0-1.435.526-2.678 1.582-3.728 1.054-1.048 2.307-1.572 3.757-1.572 1.45 0 2.713.519 3.786 1.558 1.074 1.04 1.612 2.287 1.612 3.743v3.089c0 1.417-.543 2.669-1.626 3.755-1.083 1.087-2.34 1.63-3.772 1.63-1.413 0-2.657-.543-3.73-1.63-1.073-1.086-1.61-2.338-1.61-3.755zM93.514 23.667v-7.568c0-.17.09-.33.268-.481.18-.151.4-.227.665-.227.225 0 .433.076.62.226.188.152.283.311.283.48v7.55c0 .942.35 1.782 1.046 2.518.697.735 1.525 1.102 2.487 1.102.96 0 1.788-.367 2.486-1.102.696-.736 1.045-1.576 1.045-2.518V16.07c0-.189.095-.349.283-.482.188-.131.404-.197.649-.197s.457.066.636.198.27.293.27.482v7.596c0 1.417-.534 2.66-1.597 3.728-1.066 1.068-2.322 1.601-3.772 1.601-1.47 0-2.732-.533-3.787-1.6-1.056-1.069-1.582-2.312-1.582-3.729M108.036 28.061v-11.99c0-.188.085-.35.255-.482.17-.132.386-.198.65-.198.244 0 .452.066.621.2.17.135.255.298.255.489v1.407c.34-.63.837-1.166 1.496-1.607.66-.44 1.424-.659 2.29-.659h.99c.187 0 .356.086.507.26.15.171.227.374.227.604 0 .23-.077.433-.227.606-.15.172-.32.258-.508.258h-.99c-.98 0-1.845.382-2.599 1.146-.753.763-1.13 1.758-1.13 2.984v6.984c0 .189-.09.357-.268.508a.99.99 0 0 1-.664.226.947.947 0 0 1-.637-.227c-.179-.15-.268-.32-.268-.509M118.576 23.602c0 .94.348 1.786 1.046 2.538.696.751 1.516 1.127 2.457 1.127.904 0 1.705-.338 2.401-1.015.698-.676 1.046-1.268 1.046-1.776v-3.947c0-1.07-.344-1.934-1.031-2.593-.687-.658-1.483-.987-2.387-.987-.96 0-1.79.368-2.486 1.1-.698.733-1.046 1.56-1.046 2.48v3.073zm-1.837.009v-3.09c0-1.455.494-2.702 1.483-3.742.989-1.04 2.18-1.558 3.575-1.558.866 0 1.624.21 2.275.631.649.42 1.134.937 1.454 1.549V7.879c0-.188.095-.35.282-.482a1.15 1.15 0 0 1 .68-.198c.263 0 .474.066.634.198.16.133.24.294.24.48v20.185c0 .188-.084.36-.254.51a.9.9 0 0 1-.62.226.909.909 0 0 1-.61-.23c-.178-.152-.267-.325-.267-.516v-1.264c-.32.613-.833 1.133-1.54 1.564a4.404 4.404 0 0 1-2.33.644c-1.338 0-2.506-.543-3.505-1.63-.998-1.086-1.497-2.338-1.497-3.755zM131.29 28.061v-11.99c0-.188.084-.35.254-.482.17-.132.386-.198.65-.198.244 0 .452.066.621.2.17.135.255.298.255.489v1.407c.34-.63.837-1.166 1.497-1.607.66-.44 1.423-.659 2.288-.659h.99c.188 0 .357.086.509.26.15.171.226.374.226.604 0 .23-.077.433-.226.606-.152.172-.321.258-.509.258h-.99c-.978 0-1.845.382-2.599 1.146-.753.763-1.13 1.758-1.13 2.984v6.984c0 .189-.09.357-.268.508a.99.99 0 0 1-.664.226.945.945 0 0 1-.636-.227c-.179-.15-.269-.32-.269-.509M141.01 28.061v-11.99c0-.188.084-.35.253-.482.17-.132.387-.198.65-.198s.485.066.664.198c.18.133.268.294.268.482v11.99c0 .189-.094.36-.282.51a.998.998 0 0 1-.65.226.944.944 0 0 1-.635-.227c-.18-.15-.268-.32-.268-.509m0-16.992a1.126 1.126 0 0 1-.367-.837c0-.321.122-.596.367-.823a1.28 1.28 0 0 1 .903-.34c.34 0 .627.114.862.34.235.227.353.502.353.823 0 .321-.118.6-.353.837a1.174 1.174 0 0 1-.862.354c-.359 0-.66-.12-.903-.354M145.417 16.185c0-.227.117-.426.353-.597.235-.168.485-.253.749-.253.338 0 .565.14.678.424l3.73 10.205 3.729-10.091c.15-.358.368-.538.65-.538.226 0 .471.085.735.253.262.171.394.36.394.568 0 .15-.037.303-.112.453l-4.549 11.961c-.113.303-.396.454-.848.454-.451 0-.734-.15-.847-.454L145.53 16.61a.747.747 0 0 1-.113-.424M160.335 21.286h5.65c.567 0 .943-.06 1.131-.183.188-.121.283-.38.283-.774 0-.939-.334-1.765-1.002-2.48-.67-.713-1.512-1.07-2.53-1.07-.979 0-1.814.339-2.5 1.014-.688.676-1.032 1.484-1.032 2.423v1.07zM158.5 23.61v-3.175c0-1.418.526-2.64 1.581-3.67 1.055-1.03 2.327-1.545 3.814-1.545 1.432 0 2.67.492 3.717 1.475 1.044.984 1.567 2.213 1.567 3.688 0 .53-.061.953-.184 1.273-.123.32-.321.547-.593.68a2.78 2.78 0 0 1-.749.254 6.016 6.016 0 0 1-.932.056h-6.386v1.049c0 1.115.4 2.008 1.2 2.678.802.671 1.832 1.007 3.094 1.007.642 0 1.202-.096 1.682-.284.48-.189.848-.378 1.102-.567.254-.188.457-.283.607-.283.208 0 .391.1.552.298.16.198.24.391.24.58 0 .397-.406.808-1.216 1.233-.81.426-1.818.639-3.023.639-1.79 0-3.248-.497-4.378-1.49-1.13-.99-1.695-2.29-1.695-3.896zM172.315 28.061v-11.99c0-.188.084-.35.255-.482.169-.132.385-.198.649-.198.245 0 .453.066.622.2.169.135.253.298.253.489v1.407c.34-.63.839-1.166 1.498-1.607.66-.44 1.422-.659 2.29-.659h.989c.188 0 .357.086.507.26.15.171.227.374.227.604 0 .23-.076.433-.227.606-.15.172-.32.258-.507.258h-.99c-.98 0-1.845.382-2.599 1.146-.754.763-1.13 1.758-1.13 2.984v6.984c0 .189-.09.357-.268.508a.99.99 0 0 1-.665.226.945.945 0 0 1-.636-.227c-.18-.15-.268-.32-.268-.509M184.52 24.71c0 .484.138.847.411 1.089.273.242.635.363 1.087.363.604 0 1.187-.269 1.752-.806.565-.54.848-1.13.848-1.776v-.565h-.424c-1.15 0-2.049.112-2.698.337-.65.224-.976.677-.976 1.358m-3.643.457c0-1.489.564-2.536 1.695-3.142 1.129-.605 2.759-.909 4.887-.909h1.159v-.379c0-.719-.203-1.344-.608-1.88-.404-.535-1.031-.802-1.88-.802-.846 0-1.572.16-2.174.482-.603.321-.952.48-1.046.48-.377 0-.678-.187-.904-.566a2.385 2.385 0 0 1-.339-1.246c0-.548.485-1.025 1.455-1.432a7.853 7.853 0 0 1 3.066-.61c2.053 0 3.579.526 4.577 1.575.999 1.048 1.498 2.367 1.498 3.954v6.944c0 .322-.17.595-.51.82-.338.228-.761.341-1.27.341-.471 0-.862-.12-1.173-.363-.31-.242-.466-.535-.466-.879v-.878c-1.3 1.584-2.732 2.376-4.295 2.376-1.074 0-1.954-.33-2.642-.993-.688-.662-1.03-1.628-1.03-2.893M199.015 23.74c0 .375.254.816.764 1.322.507.507 1.082.76 1.722.76.66 0 1.244-.267 1.752-.802.509-.534.763-1.13.763-1.786v-2.308c0-.656-.254-1.242-.763-1.758-.508-.514-1.111-.773-1.808-.773-.641 0-1.206.236-1.695.704-.49.468-.735 1.079-.735 1.827v2.814zM195.37 33.9V16.468c0-.34.165-.615.495-.823.33-.207.739-.31 1.229-.31.489 0 .894.104 1.215.315.32.209.48.486.48.83v.857c.358-.61.871-1.124 1.54-1.544.669-.419 1.427-.63 2.274-.63 1.413 0 2.609.564 3.589 1.687.979 1.125 1.47 2.48 1.47 4.067v2.326c0 1.53-.5 2.881-1.499 4.053-.998 1.171-2.147 1.757-3.447 1.757-.81 0-1.559-.224-2.246-.672-.688-.448-1.172-.977-1.455-1.587v7.103c0 .303-.183.573-.551.81-.367.237-.805.355-1.314.355s-.933-.118-1.271-.354c-.34-.237-.509-.507-.509-.808zM214.047 23.74c0 .375.254.816.762 1.322.509.507 1.082.76 1.724.76.659 0 1.243-.267 1.752-.802.508-.534.762-1.13.762-1.786v-2.308c0-.656-.254-1.242-.762-1.758-.509-.514-1.113-.773-1.808-.773-.642 0-1.206.236-1.696.704-.49.468-.734 1.079-.734 1.827v2.814zM210.4 33.9V16.468c0-.34.166-.615.495-.823.33-.207.739-.31 1.229-.31.49 0 .895.104 1.214.315.321.209.482.486.482.83v.857c.357-.61.87-1.124 1.54-1.544.668-.419 1.426-.63 2.274-.63 1.412 0 2.609.564 3.587 1.687.98 1.125 1.47 2.48 1.47 4.067v2.326c0 1.53-.5 2.881-1.497 4.053-.999 1.171-2.148 1.757-3.447 1.757-.81 0-1.559-.224-2.247-.672-.687-.448-1.172-.977-1.454-1.587v7.103c0 .303-.184.573-.552.81-.368.237-.805.355-1.313.355-.509 0-.933-.118-1.271-.354-.34-.237-.51-.507-.51-.808zM79.28 38.2h1.953l-.987-3.165-.967 3.166zm-1.652 1.893c0-.036.004-.064.01-.083l1.955-5.98c.082-.22.316-.331.698-.331.39 0 .627.102.71.308l1.949 5.979c.013.04.02.068.02.087 0 .116-.076.216-.23.3a.994.994 0 0 1-.486.125c-.206 0-.336-.067-.385-.201l-.408-1.32h-2.419l-.402 1.316c-.046.137-.167.205-.363.205a.88.88 0 0 1-.442-.119c-.137-.08-.207-.176-.207-.286zM84.356 40.176v-6.108c0-.105.05-.183.153-.235a.788.788 0 0 1 .369-.079c.144 0 .267.026.369.08.1.051.151.13.151.234v5.563h2.559c.099 0 .176.043.232.13a.544.544 0 0 1 .083.303c0 .118-.027.22-.083.306a.262.262 0 0 1-.232.128h-3.139a.596.596 0 0 1-.325-.088.267.267 0 0 1-.137-.234M89.738 40.176v-6.108c0-.105.051-.183.153-.235a.788.788 0 0 1 .37-.079c.143 0 .266.026.368.08.101.051.153.13.153.234v5.563h2.557c.1 0 .176.043.232.13a.544.544 0 0 1 .084.303c0 .118-.028.22-.084.306a.262.262 0 0 1-.232.128h-3.138a.596.596 0 0 1-.325-.088.267.267 0 0 1-.138-.234M98.82 39.63h1.162c.78 0 1.17-.396 1.17-1.19v-2.629c0-.793-.39-1.19-1.17-1.19H98.82v5.01zm-1.042.554v-6.116c0-.086.044-.16.133-.222a.56.56 0 0 1 .33-.092h1.74c.67 0 1.206.166 1.609.498.404.333.605.853.605 1.56v2.629c0 .707-.2 1.226-.605 1.56-.403.33-.94.497-1.608.497H98.24a.56.56 0 0 1-.33-.092c-.089-.062-.133-.135-.133-.222zM105.138 36.817h1.18c.814 0 1.22-.366 1.22-1.099 0-.731-.406-1.097-1.22-1.097h-1.18v2.196zm-1.033 3.358v-6.107c0-.086.032-.16.097-.222a.352.352 0 0 1 .247-.092h1.87c1.508 0 2.263.628 2.263 1.883 0 .52-.125.928-.374 1.226-.25.297-.587.494-1.013.592l1.377 2.432a.26.26 0 0 1 .04.14c0 .123-.067.236-.202.342a.686.686 0 0 1-.429.157c-.17 0-.307-.096-.413-.287l-1.437-2.647h-.993v2.582c0 .1-.051.179-.152.236a.73.73 0 0 1-.37.088.709.709 0 0 1-.359-.088c-.102-.057-.152-.137-.152-.235zM110.294 40.176v-6.108c0-.105.05-.183.153-.235a.791.791 0 0 1 .369-.079c.144 0 .267.026.369.08.102.051.153.13.153.234v6.108c0 .098-.051.177-.153.234a.732.732 0 0 1-.37.088.734.734 0 0 1-.363-.088c-.105-.057-.158-.136-.158-.234M112.803 34.16c0-.11.07-.206.207-.286a.873.873 0 0 1 .442-.12c.198 0 .319.068.365.203l1.623 5.26 1.614-5.26c.045-.135.163-.204.352-.204a.89.89 0 0 1 .445.12c.14.081.21.176.21.286a.27.27 0 0 1-.019.083l-1.948 5.978c-.032.105-.11.186-.234.246a.978.978 0 0 1-.42.087c-.36 0-.58-.11-.658-.332l-1.969-5.977a.266.266 0 0 1-.01-.084M119.534 40.176v-6.1c0-.097.046-.175.137-.234a.596.596 0 0 1 .325-.088h3.503a.29.29 0 0 1 .256.13.514.514 0 0 1 .09.294.52.52 0 0 1-.095.314.292.292 0 0 1-.25.13h-2.924v2.112h1.516a.31.31 0 0 1 .252.116c.061.077.093.17.093.28 0 .1-.03.187-.089.264a.306.306 0 0 1-.256.116h-1.516v2.121h2.923c.106 0 .19.043.25.13a.52.52 0 0 1 .095.313c0 .11-.03.21-.089.296a.291.291 0 0 1-.256.128h-3.503a.596.596 0 0 1-.325-.088.267.267 0 0 1-.137-.234M126.402 36.817h1.181c.814 0 1.22-.366 1.22-1.099 0-.731-.406-1.097-1.22-1.097h-1.18v2.196zm-1.032 3.358v-6.107c0-.086.031-.16.097-.222a.35.35 0 0 1 .246-.092h1.87c1.508 0 2.264.628 2.264 1.883 0 .52-.126.928-.374 1.226-.25.297-.588.494-1.013.592l1.376 2.432a.26.26 0 0 1 .04.14c0 .123-.067.236-.201.342a.688.688 0 0 1-.429.157c-.17 0-.308-.096-.413-.287l-1.437-2.647h-.994v2.582c0 .1-.05.179-.152.236a.727.727 0 0 1-.37.088.704.704 0 0 1-.358-.088c-.103-.057-.152-.137-.152-.235zM131.194 39.483a.57.57 0 0 1 .138-.35c.092-.117.197-.175.316-.175.071 0 .158.04.26.118.101.08.201.164.3.254.098.093.247.178.448.256.2.08.424.119.674.119.374 0 .674-.084.9-.25.227-.168.339-.411.339-.733a.956.956 0 0 0-.33-.743 2.498 2.498 0 0 0-.796-.473 22.695 22.695 0 0 1-.94-.38 2.096 2.096 0 0 1-.802-.613c-.219-.27-.329-.611-.329-1.02 0-.325.067-.606.201-.846.135-.24.317-.424.546-.553.23-.128.472-.222.723-.28a3.56 3.56 0 0 1 .803-.088c.177 0 .363.011.556.032.193.021.386.057.576.105.19.049.347.12.472.21.124.09.187.196.187.31 0 .116-.04.233-.119.35a.361.361 0 0 1-.314.177.614.614 0 0 1-.266-.09 2.82 2.82 0 0 0-.448-.176 2.157 2.157 0 0 0-.644-.087c-.374 0-.673.069-.895.209-.224.138-.335.351-.335.634a.7.7 0 0 0 .177.479c.117.133.271.242.458.33.186.085.394.171.624.254.23.084.458.18.684.292.226.111.433.24.62.386.187.145.34.344.458.598.118.252.177.547.177.88 0 .636-.206 1.12-.616 1.454-.41.332-.952.5-1.628.5-.604 0-1.117-.12-1.54-.357-.423-.236-.635-.48-.635-.733M139.913 38.497v-4.43c0-.103.05-.182.152-.234a.788.788 0 0 1 .37-.08c.143 0 .266.027.369.08.1.052.152.13.152.234v4.43c0 .4.105.697.315.894.21.198.505.296.885.296.807 0 1.21-.397 1.21-1.19v-4.43c0-.103.051-.182.153-.234a.791.791 0 0 1 .37-.08c.143 0 .266.027.368.08.101.052.153.13.153.234v4.43c0 .707-.205 1.226-.615 1.559-.41.332-.956.497-1.64.497-.675 0-1.217-.165-1.627-.497-.41-.333-.615-.852-.615-1.56M146.368 40.176v-6.1c0-.214.173-.322.521-.322.184 0 .331.039.443.116.111.077.225.222.344.437l2.185 3.996v-4.235c0-.105.05-.183.152-.235a.796.796 0 0 1 .37-.079c.144 0 .267.026.369.08.1.051.151.13.151.234v6.108c0 .098-.05.177-.151.234a.732.732 0 0 1-.37.088.672.672 0 0 1-.62-.36l-2.352-4.198v4.236c0 .098-.05.177-.151.234a.732.732 0 0 1-.37.088.731.731 0 0 1-.363-.088c-.107-.057-.158-.136-.158-.234M152.892 40.176v-6.108c0-.105.05-.183.152-.235a.788.788 0 0 1 .37-.079c.143 0 .266.026.369.08.1.051.151.13.151.234v6.108c0 .098-.05.177-.151.234a.732.732 0 0 1-.37.088.728.728 0 0 1-.363-.088c-.107-.057-.158-.136-.158-.234M155.41 34.202c0-.118.03-.223.089-.313a.287.287 0 0 1 .256-.135h4.083c.112 0 .197.044.256.13.06.088.09.19.09.308a.568.568 0 0 1-.095.331.29.29 0 0 1-.25.136h-1.516v5.517c0 .098-.052.177-.158.234a.734.734 0 0 1-.363.089.73.73 0 0 1-.37-.089c-.1-.057-.152-.136-.152-.234v-5.517h-1.525a.291.291 0 0 1-.252-.136.558.558 0 0 1-.093-.321M161.659 40.176v-6.1c0-.097.046-.175.137-.234a.596.596 0 0 1 .325-.088h3.504c.112 0 .197.043.256.13.059.086.089.184.089.294a.52.52 0 0 1-.095.314.292.292 0 0 1-.25.13h-2.922v2.112h1.514c.106 0 .19.038.252.116.061.077.093.17.093.28 0 .1-.03.187-.089.264a.306.306 0 0 1-.256.116h-1.514v2.121h2.922c.105 0 .189.043.25.13a.52.52 0 0 1 .095.313c0 .11-.03.21-.09.296a.29.29 0 0 1-.255.128h-3.504a.596.596 0 0 1-.325-.088.267.267 0 0 1-.137-.234M167.356 34.14c0-.144.052-.255.156-.333a.658.658 0 0 1 .406-.117c.166 0 .287.04.365.121.077.082.116.19.116.329 0 .45-.009 1.184-.024 2.203a156.25 156.25 0 0 0-.025 2.203c0 .093-.047.166-.141.22a.582.582 0 0 1-.291.08c-.296 0-.444-.101-.444-.3 0-.451-.02-1.185-.058-2.203a64.319 64.319 0 0 1-.06-2.203m-.059 5.905c0-.14.062-.26.184-.358a.691.691 0 0 1 .448-.149c.154 0 .288.05.4.15a.463.463 0 0 1 0 .714.577.577 0 0 1-.4.151.682.682 0 0 1-.448-.152.452.452 0 0 1-.184-.356" fill="#5E5E5E"/></g></svg>