<?xml version="1.0" encoding="UTF-8"?>
<svg width="58px" height="68px" viewBox="0 0 58 68" version="1.1" xmlns="http://www.w3.org/2000/svg" xmlns:xlink="http://www.w3.org/1999/xlink">
    <title>Group 12</title>
    <defs>
        <polygon id="path-1" points="0.0004 0.7254 57.652 0.7254 57.652 66.9994 0.0004 66.9994"></polygon>
    </defs>
    <g id="Page-1" stroke="none" stroke-width="1" fill="none" fill-rule="evenodd">
        <g id="Support-our-community-Desktop" transform="translate(-323.000000, -980.000000)">
            <g id="Group-12" transform="translate(323.000000, 980.000000)">
                <g id="Group-3" transform="translate(0.000000, 0.274900)">
                    <mask id="mask-2" fill="white">
                        <use xlink:href="#path-1"></use>
                    </mask>
                    <g id="Clip-2"></g>
                    <path d="M57.6524,29.5514 C57.6524,13.6304 44.7464,0.7254 28.8264,0.7254 C12.9054,0.7254 0.0004,13.6304 0.0004,29.5514 C0.0004,43.5984 10.0474,55.2964 23.3484,57.8554 L28.8264,66.9994 L34.3044,57.8554 C47.6044,55.2964 57.6524,43.5984 57.6524,29.5514" id="Fill-1" fill="#13B2F3" mask="url(#mask-2)"></path>
                </g>
                <path d="M38.4888,18.3156 L38.4928,18.3136 C38.4798,18.2896 38.4678,18.2676 38.4528,18.2456 C38.4208,18.1826 38.3838,18.1186 38.3408,18.0536 C37.6578,16.9486 36.8798,16.4466 36.5808,16.2826 C36.3658,16.1486 36.1348,16.0366 35.8928,15.9616 C35.4958,15.8366 35.1138,15.8426 34.8378,15.8776 C34.4438,15.9196 34.0708,16.0766 33.7388,16.2826 C33.4398,16.4466 32.6608,16.9486 31.9798,18.0536 C31.9368,18.1186 31.8998,18.1826 31.8658,18.2456 C31.8528,18.2676 31.8398,18.2896 31.8268,18.3136 L31.8308,18.3156 C31.6808,18.6276 31.6278,18.9196 31.6258,19.1696 C31.6028,19.9406 31.9198,21.0046 32.1458,21.6656 C32.3188,22.2126 32.5208,22.6646 32.6888,22.9956 C32.7328,23.0736 32.7778,23.1476 32.8238,23.2166 C33.2408,23.8416 33.7428,24.1556 33.7428,24.1556 L33.7428,24.1626 C34.2378,24.4616 34.7108,24.5766 35.1418,24.5826 L35.1608,24.5826 L35.1788,24.5826 C35.6098,24.5766 36.0818,24.4616 36.5768,24.1626 L36.5768,24.1556 C36.5768,24.1556 37.0778,23.8416 37.4948,23.2166 C37.5408,23.1476 37.5868,23.0736 37.6298,22.9956 C37.7998,22.6646 37.9998,22.2126 38.1738,21.6656 C38.4018,21.0046 38.7168,19.9406 38.6938,19.1696 C38.6908,18.9196 38.6388,18.6276 38.4888,18.3156" id="Fill-4" fill="#FFFFFF"></path>
                <path d="M42.0557,25.6486 C42.0107,25.4696 41.8607,25.0526 41.4387,24.7126 C41.4397,24.7136 40.4657,24.1186 39.9357,23.9186 C39.9247,23.9156 39.9147,23.9106 39.9047,23.9066 C39.4227,23.7276 38.9577,23.5986 38.6137,23.5136 C38.6127,23.5156 38.6127,23.5186 38.6117,23.5196 C38.6057,23.5336 38.5987,23.5446 38.5917,23.5576 C38.5367,23.6566 38.4767,23.7536 38.4117,23.8506 C37.9937,24.4786 37.5067,24.8706 37.2807,25.0326 C37.2407,25.0666 37.1967,25.0976 37.1487,25.1266 C36.5377,25.4976 35.8927,25.6926 35.2287,25.7076 L35.1827,25.7076 L35.1757,25.7076 L35.1587,25.7076 L35.1367,25.7076 L35.0907,25.7076 C34.4277,25.6926 33.7817,25.4976 33.1707,25.1266 C33.1247,25.0976 33.0807,25.0666 33.0397,25.0326 C32.8137,24.8706 32.3257,24.4786 31.9067,23.8506 C31.8427,23.7526 31.7817,23.6556 31.7267,23.5576 C31.7197,23.5446 31.7137,23.5326 31.7077,23.5196 C31.7067,23.5186 31.7057,23.5156 31.7047,23.5136 C31.3627,23.5986 30.8967,23.7276 30.4157,23.9076 L30.3837,23.9196 C29.8527,24.1186 29.3087,24.3786 28.8887,24.7096 C28.8887,24.7096 28.3087,25.4696 28.2627,25.6486 C28.2117,25.9346 28.1377,26.3906 28.0667,26.9406 L27.7817,29.7146 C29.6777,31.5706 32.2717,32.7156 35.1347,32.7156 C38.0037,32.7156 40.6037,31.5646 42.5017,29.7016 L42.2527,26.9406 C42.1807,26.3906 42.1077,25.9346 42.0557,25.6486" id="Fill-6" fill="#FFFFFF"></path>
                <path d="M25.8579,26.7599 L25.8619,26.7579 C25.8489,26.7339 25.8369,26.7129 25.8219,26.6909 C25.7899,26.6269 25.7529,26.5629 25.7099,26.4979 C25.0269,25.3929 24.2489,24.8909 23.9499,24.7279 C23.7349,24.5939 23.5039,24.4819 23.2619,24.4069 C22.8649,24.2809 22.4829,24.2879 22.2069,24.3229 C21.8129,24.3639 21.4399,24.5209 21.1079,24.7279 C20.8089,24.8909 20.0299,25.3929 19.3489,26.4979 C19.3059,26.5629 19.2689,26.6269 19.2349,26.6909 C19.2219,26.7129 19.2089,26.7339 19.1959,26.7579 L19.1999,26.7599 C19.0499,27.0719 18.9969,27.3639 18.9949,27.6149 C18.9719,28.3849 19.2889,29.4489 19.5149,30.1099 C19.6879,30.6579 19.8899,31.1099 20.0579,31.4409 C20.1019,31.5179 20.1469,31.5919 20.1929,31.6609 C20.6099,32.2869 21.1119,32.6009 21.1119,32.6009 L21.1119,32.6069 C21.6069,32.9059 22.0799,33.0219 22.5109,33.0269 L22.5299,33.0269 L22.5479,33.0269 C22.9789,33.0219 23.4509,32.9059 23.9459,32.6069 L23.9459,32.6009 C23.9459,32.6009 24.4469,32.2869 24.8639,31.6609 C24.9109,31.5919 24.9559,31.5179 24.9999,31.4409 C25.1689,31.1099 25.3699,30.6579 25.5439,30.1099 C25.7709,29.4489 26.0859,28.3849 26.0629,27.6149 C26.0599,27.3639 26.0079,27.0719 25.8579,26.7599" id="Fill-8" fill="#FFFFFF"></path>
                <path d="M29.4248,34.0929 C29.3798,33.9139 29.2298,33.4979 28.8078,33.1569 C28.8088,33.1579 27.8348,32.5639 27.3048,32.3639 C27.2938,32.3599 27.2838,32.3559 27.2738,32.3519 C26.7918,32.1719 26.3268,32.0429 25.9838,31.9589 C25.9818,31.9609 25.9818,31.9629 25.9808,31.9639 C25.9748,31.9779 25.9678,31.9899 25.9608,32.0019 C25.9058,32.1009 25.8458,32.1979 25.7808,32.2949 C25.3628,32.9229 24.8758,33.3149 24.6498,33.4769 C24.6098,33.5119 24.5658,33.5419 24.5178,33.5709 C23.9068,33.9419 23.2618,34.1369 22.5978,34.1529 L22.5518,34.1529 L22.5448,34.1529 L22.5288,34.1529 L22.5058,34.1529 L22.4608,34.1529 C21.7968,34.1369 21.1508,33.9419 20.5398,33.5709 C20.4938,33.5419 20.4498,33.5119 20.4088,33.4779 C20.1828,33.3149 19.6948,32.9229 19.2758,32.2949 C19.2118,32.1979 19.1508,32.1009 19.0958,32.0019 C19.0888,31.9889 19.0828,31.9769 19.0768,31.9639 L19.0738,31.9589 C18.7318,32.0429 18.2658,32.1719 17.7858,32.3519 C17.7748,32.3559 17.7638,32.3599 17.7528,32.3639 C17.2228,32.5639 16.6778,32.8239 16.2578,33.1539 C16.2578,33.1539 15.6778,33.9139 15.6318,34.0929 C15.5808,34.3789 15.5068,34.8349 15.4358,35.3859 L15.1508,38.1589 C17.0468,40.0149 19.6408,41.1599 22.5038,41.1599 C25.3738,41.1599 27.9738,40.0099 29.8708,38.1459 L29.6218,35.3859 C29.5498,34.8349 29.4768,34.3789 29.4248,34.0929" id="Fill-10" fill="#FFFFFF"></path>
            </g>
        </g>
    </g>
</svg>