<?xml version="1.0" encoding="utf-8"?>
<!-- Generator: Adobe Illustrator 22.1.0, SVG Export Plug-In . SVG Version: 6.00 Build 0)  -->
<svg version="1.1" id="livetype" xmlns="http://www.w3.org/2000/svg" xmlns:xlink="http://www.w3.org/1999/xlink" x="0px" y="0px"
	 width="135.1px" height="40px" viewBox="0 0 135.1 40" style="enable-background:new 0 0 135.1 40;" xml:space="preserve">
<style type="text/css">
	.st0{fill:#14130F;}
	.st1{fill:#FFFFFF;stroke:#FFFFFF;stroke-width:0.2001;stroke-miterlimit:10;}
	.st2{fill:#FFFFFF;}
	.st3{fill:url(#SVGID_1_);}
	.st4{fill:url(#SVGID_2_);}
	.st5{fill:url(#SVGID_3_);}
	.st6{fill:url(#SVGID_4_);}
	.st7{opacity:0.2;fill:#000102;enable-background:new    ;}
	.st8{opacity:0.12;fill:#000102;enable-background:new    ;}
	.st9{opacity:0.25;fill:#FFFFFF;enable-background:new    ;}
</style>
<g>
	<g>
		<path class="st0" d="M130.1,40H5c-2.8,0-5-2.3-5-5V5c0-2.8,2.3-5,5-5h125.1c2.8,0,5,2.3,5,5v30C135.1,37.8,132.8,40,130.1,40z"/>
	</g>
	<g>
		<g>
			<path class="st0" d="M130.1,0.8c2.3,0,4.2,1.9,4.2,4.2v30c0,2.3-1.9,4.2-4.2,4.2H5c-2.3,0-4.2-1.9-4.2-4.2V5
				c0-2.3,1.9-4.2,4.2-4.2H130.1"/>
		</g>
	</g>
	<g>
		<path class="st1" d="M47.4,10.2c0,0.8-0.2,1.5-0.7,2c-0.6,0.6-1.3,0.9-2.2,0.9c-0.9,0-1.6-0.3-2.2-0.9c-0.6-0.6-0.9-1.3-0.9-2.2
			c0-0.9,0.3-1.6,0.9-2.2c0.6-0.6,1.3-0.9,2.2-0.9c0.4,0,0.8,0.1,1.2,0.3c0.4,0.2,0.7,0.4,0.9,0.7l-0.5,0.5
			c-0.4-0.5-0.9-0.7-1.6-0.7c-0.6,0-1.2,0.2-1.6,0.7c-0.5,0.4-0.7,1-0.7,1.7c0,0.7,0.2,1.3,0.7,1.7c0.5,0.4,1,0.7,1.6,0.7
			c0.7,0,1.2-0.2,1.7-0.7c0.3-0.3,0.5-0.7,0.5-1.2h-2.2V9.8h2.9C47.4,10,47.4,10.1,47.4,10.2z"/>
		<path class="st1" d="M52.1,7.7h-2.7v1.9h2.5v0.7h-2.5v1.9h2.7V13h-3.5V7h3.5V7.7z"/>
		<path class="st1" d="M55.3,13h-0.8V7.7h-1.7V7H57v0.7h-1.7V13z"/>
		<path class="st1" d="M60,13V7h0.8v6H60z"/>
		<path class="st1" d="M64.2,13h-0.8V7.7h-1.7V7h4.1v0.7h-1.7V13z"/>
		<path class="st1" d="M73.7,12.2c-0.6,0.6-1.3,0.9-2.2,0.9c-0.9,0-1.6-0.3-2.2-0.9c-0.6-0.6-0.9-1.3-0.9-2.2c0-0.9,0.3-1.6,0.9-2.2
			c0.6-0.6,1.3-0.9,2.2-0.9c0.9,0,1.6,0.3,2.2,0.9c0.6,0.6,0.9,1.3,0.9,2.2C74.5,10.9,74.2,11.6,73.7,12.2z M69.8,11.7
			c0.4,0.4,1,0.7,1.6,0.7c0.6,0,1.2-0.2,1.6-0.7c0.4-0.4,0.7-1,0.7-1.7c0-0.7-0.2-1.3-0.7-1.7c-0.4-0.4-1-0.7-1.6-0.7
			c-0.6,0-1.2,0.2-1.6,0.7c-0.4,0.4-0.7,1-0.7,1.7C69.2,10.7,69.4,11.3,69.8,11.7z"/>
		<path class="st1" d="M75.6,13V7h0.9l2.9,4.7h0l0-1.2V7h0.8v6h-0.8l-3.1-4.9h0l0,1.2V13H75.6z"/>
	</g>
	<path class="st2" d="M68.2,21.8c-2.4,0-4.3,1.8-4.3,4.3c0,2.5,1.9,4.3,4.3,4.3c2.4,0,4.3-1.8,4.3-4.3
		C72.4,23.6,70.5,21.8,68.2,21.8z M68.2,28.6c-1.3,0-2.4-1.1-2.4-2.6c0-1.5,1.1-2.6,2.4-2.6c1.3,0,2.4,1,2.4,2.6
		C70.6,27.5,69.5,28.6,68.2,28.6z M58.9,21.8c-2.4,0-4.3,1.8-4.3,4.3c0,2.5,1.9,4.3,4.3,4.3c2.4,0,4.3-1.8,4.3-4.3
		C63.1,23.6,61.2,21.8,58.9,21.8z M58.9,28.6c-1.3,0-2.4-1.1-2.4-2.6c0-1.5,1.1-2.6,2.4-2.6c1.3,0,2.4,1,2.4,2.6
		C61.3,27.5,60.1,28.6,58.9,28.6z M47.8,23.1v1.8h4.3c-0.1,1-0.5,1.8-1,2.3c-0.6,0.6-1.6,1.3-3.3,1.3c-2.7,0-4.7-2.1-4.7-4.8
		s2.1-4.8,4.7-4.8c1.4,0,2.5,0.6,3.3,1.3l1.3-1.3c-1.1-1-2.5-1.8-4.5-1.8c-3.6,0-6.7,3-6.7,6.6c0,3.6,3.1,6.6,6.7,6.6
		c2,0,3.4-0.6,4.6-1.9c1.2-1.2,1.6-2.9,1.6-4.2c0-0.4,0-0.8-0.1-1.1H47.8z M93.1,24.5c-0.4-1-1.4-2.7-3.6-2.7c-2.2,0-4,1.7-4,4.3
		c0,2.4,1.8,4.3,4.2,4.3c2,0,3.1-1.2,3.5-1.9l-1.5-1c-0.5,0.7-1.1,1.2-2.1,1.2c-1,0-1.6-0.4-2.1-1.3l5.7-2.4L93.1,24.5z M87.3,25.9
		c0-1.6,1.3-2.5,2.2-2.5c0.7,0,1.4,0.4,1.6,0.9L87.3,25.9z M82.7,30h1.9V17.5h-1.9V30z M79.6,22.7L79.6,22.7c-0.5-0.5-1.3-1-2.3-1
		c-2.1,0-4.1,1.9-4.1,4.3c0,2.4,2,4.2,4.1,4.2c1,0,1.8-0.5,2.2-1h0.1v0.6c0,1.6-0.9,2.5-2.3,2.5c-1.1,0-1.9-0.8-2.1-1.5l-1.6,0.7
		c0.5,1.1,1.7,2.5,3.8,2.5c2.2,0,4-1.3,4-4.4V22h-1.8V22.7z M77.5,28.6c-1.3,0-2.4-1.1-2.4-2.6c0-1.5,1.1-2.6,2.4-2.6
		c1.3,0,2.3,1.1,2.3,2.6C79.7,27.5,78.7,28.6,77.5,28.6z M101.9,17.5h-4.5V30h1.9v-4.7h2.6c2.1,0,4.1-1.5,4.1-3.9
		S103.9,17.5,101.9,17.5z M101.9,23.5h-2.7v-4.3h2.7c1.4,0,2.2,1.2,2.2,2.1C104.1,22.4,103.3,23.5,101.9,23.5z M113.4,21.7
		c-1.4,0-2.8,0.6-3.3,1.9l1.7,0.7c0.4-0.7,1-0.9,1.7-0.9c1,0,1.9,0.6,2,1.6v0.1c-0.3-0.2-1.1-0.5-1.9-0.5c-1.8,0-3.6,1-3.6,2.8
		c0,1.7,1.5,2.8,3.1,2.8c1.3,0,1.9-0.6,2.4-1.2h0.1v1h1.8v-4.8C117.2,23,115.6,21.7,113.4,21.7z M113.2,28.6c-0.6,0-1.5-0.3-1.5-1.1
		c0-1,1.1-1.3,2-1.3c0.8,0,1.2,0.2,1.7,0.4C115.3,27.8,114.3,28.6,113.2,28.6z M123.8,22l-2.1,5.4h-0.1l-2.2-5.4h-2l3.3,7.6
		l-1.9,4.2h1.9l5.1-11.8H123.8z M107,30h1.9V17.5H107V30z"/>
	<g>
		
			<linearGradient id="SVGID_1_" gradientUnits="userSpaceOnUse" x1="21.8117" y1="41.2854" x2="5.02" y2="24.4936" gradientTransform="matrix(1 0 0 -1 0 50)">
			<stop  offset="0" style="stop-color:#4699D0"/>
			<stop  offset="6.574450e-03" style="stop-color:#459AD1"/>
			<stop  offset="0.2601" style="stop-color:#1ABAEB"/>
			<stop  offset="0.5122" style="stop-color:#4EC3ED"/>
			<stop  offset="0.7604" style="stop-color:#6AC8E7"/>
			<stop  offset="1" style="stop-color:#72CAE5"/>
		</linearGradient>
		<path class="st3" d="M10.4,7.5C10.2,7.9,10,8.3,10,8.9v22.1c0,0.6,0.2,1.1,0.5,1.4l0.1,0.1l12.4-12.4V20v-0.1L10.4,7.5L10.4,7.5z"
			/>
		
			<linearGradient id="SVGID_2_" gradientUnits="userSpaceOnUse" x1="33.8531" y1="29.9873" x2="9.6427" y2="29.9873" gradientTransform="matrix(1 0 0 -1 0 50)">
			<stop  offset="0" style="stop-color:#FFE103"/>
			<stop  offset="0.4087" style="stop-color:#FDBD00"/>
			<stop  offset="0.7754" style="stop-color:#F8A500"/>
			<stop  offset="1" style="stop-color:#F69B00"/>
		</linearGradient>
		<path class="st4" d="M27,24.3l-4.1-4.1V20v-0.1l4.1-4.1l0.1,0.1l4.9,2.8c1.4,0.8,1.4,2.1,0,2.9L27,24.3L27,24.3z"/>
		
			<linearGradient id="SVGID_3_" gradientUnits="userSpaceOnUse" x1="24.8406" y1="27.6914" x2="2.0697" y2="4.9205" gradientTransform="matrix(1 0 0 -1 0 50)">
			<stop  offset="0" style="stop-color:#E93A3D"/>
			<stop  offset="1" style="stop-color:#C41463"/>
		</linearGradient>
		<path class="st5" d="M27.1,24.2L22.9,20L10.4,32.5c0.5,0.5,1.2,0.5,2.1,0.1L27.1,24.2"/>
		
			<linearGradient id="SVGID_4_" gradientUnits="userSpaceOnUse" x1="7.3013" y1="49.8236" x2="17.4694" y2="39.6555" gradientTransform="matrix(1 0 0 -1 0 50)">
			<stop  offset="0" style="stop-color:#33A071"/>
			<stop  offset="6.850000e-02" style="stop-color:#30A772"/>
			<stop  offset="0.4762" style="stop-color:#54B867"/>
			<stop  offset="0.8009" style="stop-color:#6BBE66"/>
			<stop  offset="1" style="stop-color:#72C066"/>
		</linearGradient>
		<path class="st6" d="M27.1,15.8L12.5,7.5c-0.9-0.5-1.6-0.4-2.1,0.1L22.9,20L27.1,15.8z"/>
		<g>
			<path class="st7" d="M27,24.1l-14.5,8.3c-0.8,0.5-1.5,0.4-2,0l0,0l-0.1,0.1l0,0l0.1,0.1l0,0c0.5,0.4,1.2,0.5,2,0L27,24.1L27,24.1
				z"/>
			<path class="st8" d="M10.4,32.3C10.2,32,10,31.6,10,30.9v0.1c0,0.6,0.2,1.1,0.5,1.4V32.3L10.4,32.3z"/>
		</g>
		<path class="st8" d="M32,21.3l-5,2.8l0.1,0.1l4.9-2.8c0.7-0.4,1-0.9,1-1.4l0,0C33,20.5,32.7,21,32,21.3z"/>
		<path class="st9" d="M12.5,7.6L32,18.7c0.6,0.4,1,0.8,1,1.3l0,0c0-0.5-0.3-1-1-1.4L12.5,7.5C11.1,6.7,10,7.3,10,8.9v0.1
			C10,7.5,11.1,6.8,12.5,7.6z"/>
	</g>
</g>
</svg>
