<svg width="473" height="520" viewBox="0 0 473 520" xmlns="http://www.w3.org/2000/svg"><title>Group 19</title><g fill="none" fill-rule="evenodd"><path d="M0 0h473v520H0V0zm237 489c125.369 0 227-101.631 227-227S362.369 35 237 35 10 136.631 10 262s101.631 227 227 227z" fill="#25B4F3"/><path d="M439.197 365.282C450.98 380.376 458 399.368 458 420c0 49.153-39.847 89-89 89-26.35 0-50.024-11.45-66.32-29.647 59.482-17.95 108.663-59.649 136.517-114.071z" fill="#585858"/><path d="M130.256 61.613A31.372 31.372 0 0 1 123 41.5c0-17.397 14.103-31.5 31.5-31.5 17.148 0 31.095 13.702 31.491 30.754a225.445 225.445 0 0 0-55.735 20.859z" fill="#FFF"/></g></svg>