<svg width="33" height="28" viewBox="0 0 33 28" xmlns="http://www.w3.org/2000/svg" xmlns:xlink="http://www.w3.org/1999/xlink"><title>Group 7</title><defs><path id="a" d="M0 .055h32.96V14H0z"/><path id="c" d="M.08.19h16.797v14.8H.081z"/></defs><g fill="none" fill-rule="evenodd"><g transform="translate(0 13)"><mask id="b" fill="#fff"><use xlink:href="#a"/></mask><path d="M31.69 1.79c-.797-.17-1.535.017-2.206.392-1.769.989-3.51 2.028-5.255 3.06-.08.047-.143.23-.124.333.197 1.045-.134 1.902-.98 2.47-.778.523-1.658.716-2.561.734-1.737.035-3.475.015-5.213.006a3.987 3.987 0 0 1-.757-.096c-1.01-.202-1.867-.725-2.676-1.342-.28-.214-.541-.455-.81-.684.548.107 1.053.294 1.573.416.76.177 1.528.412 2.299.437 1.94.062 3.885.036 5.827.011.603-.008 1.193-.163 1.706-.522.365-.256.499-.62.433-1.052-.055-.358-.205-.675-.59-.76-.514-.115-1.031-.24-1.553-.285-.727-.062-1.461-.027-2.188-.084a10.035 10.035 0 0 1-1.626-.264 8.595 8.595 0 0 1-2.75-1.196c-.246-.165-.49-.334-.734-.503.002-.028-2.622-1.91-4.375-2.483-.35-.115-.702-.22-1.055-.323A4.611 4.611 0 0 0 6.69.267c-.954.296-1.87.726-2.794 1.114-.722.303-1.436.627-2.147.954-.583.268-1.158.556-1.748.84l3.648 8.234c.063-.024.124-.037.173-.068.63-.416 1.25-.845 1.887-1.248.563-.355 1.171-.613 1.838-.363.482.18.941.432 1.401.67 1.586.823 3.171 1.647 4.75 2.483.889.47 1.795.887 2.775 1.117h1.23c.553-.225 1.153-.373 1.65-.689a378.471 378.471 0 0 0 6.38-4.158A393.275 393.275 0 0 0 30.697 5.8c.685-.469 1.385-.916 1.911-1.594.838-1.081.029-2.213-.919-2.415" fill="#FFF" mask="url(#b)"/></g><g transform="translate(8)"><mask id="d" fill="#fff"><use xlink:href="#c"/></mask><path d="M16.877 4.288v.497l-.015.077c-.02.148-.034.298-.061.444-.129.681-.394 1.314-.723 1.923-.515.951-1.166 1.81-1.875 2.63a29.226 29.226 0 0 1-2.537 2.56 40.113 40.113 0 0 1-3.114 2.54c-.052.038-.085.044-.14.003a38.807 38.807 0 0 1-4.396-3.757c-.958-.957-1.85-1.966-2.599-3.09C.972 7.446.59 6.747.335 5.985.098 5.275.013 4.552.14 3.813c.167-.985.62-1.828 1.382-2.493C2.63.35 3.936-.005 5.39.293c1.395.286 2.41 1.086 3.053 2.33.01.02.023.039.038.065l.036-.066C9.696.329 12.622-.471 14.83.909c1.093.682 1.751 1.663 1.982 2.912.028.154.043.311.064.467" fill="#FFF" mask="url(#d)"/></g></g></svg>