<?xml version="1.0" encoding="UTF-8"?>
<svg width="32px" height="14px" viewBox="0 0 32 14" version="1.1" xmlns="http://www.w3.org/2000/svg" xmlns:xlink="http://www.w3.org/1999/xlink">
    <title>YDA</title>
    <g id="Page-1" stroke="none" stroke-width="1" fill="#FFFFFF" fill-rule="evenodd">
        <g id="iPhone-8" transform="translate(-74.000000, -63.000000)" fill="#FFFFFF" fill-rule="nonzero">
            <path d="M79.13,77 C79.3326667,77 79.5163333,76.9525 79.681,76.8575 C79.8456667,76.7625 79.928,76.62 79.928,76.43 L79.928,76.43 L79.928,71.623 C79.928,71.547 79.947,71.4836667 79.985,71.433 L79.985,71.433 L83.918,64.099 C83.9433333,64.0356667 83.9623333,63.9755 83.975,63.9185 C83.9876667,63.8615 83.994,63.814 83.994,63.776 C83.994,63.6493333 83.9433333,63.5353333 83.842,63.434 C83.7406667,63.3326667 83.6171667,63.2535 83.4715,63.1965 C83.3258333,63.1395 83.1833333,63.111 83.044,63.111 C82.9173333,63.111 82.8096667,63.1458333 82.721,63.2155 C82.6323333,63.2851667 82.55,63.3896667 82.474,63.529 L82.474,63.529 L79.13,70.046 L75.805,63.529 C75.729,63.3896667 75.6498333,63.2851667 75.5675,63.2155 C75.4851667,63.1458333 75.3743333,63.111 75.235,63.111 C75.0956667,63.111 74.9531667,63.1395 74.8075,63.1965 C74.6618333,63.2535 74.5383333,63.3326667 74.437,63.434 C74.3356667,63.5353333 74.285,63.6493333 74.285,63.776 C74.285,63.814 74.2913333,63.8615 74.304,63.9185 C74.3166667,63.9755 74.3356667,64.0356667 74.361,64.099 L74.361,64.099 L78.294,71.433 C78.3193333,71.4836667 78.332,71.547 78.332,71.623 L78.332,71.623 L78.332,76.43 C78.332,76.62 78.4175,76.7625 78.5885,76.8575 C78.7595,76.9525 78.94,77 79.13,77 Z M89.713,77 C90.4856667,77 91.1823333,76.8638333 91.803,76.5915 C92.4236667,76.3191667 92.9145,75.8821667 93.2755,75.2805 C93.6365,74.6788333 93.817,73.8713333 93.817,72.858 L93.817,72.858 L93.817,67.253 C93.817,66.2396667 93.6365,65.4321667 93.2755,64.8305 C92.9145,64.2288333 92.4236667,63.7918333 91.803,63.5195 C91.1823333,63.2471667 90.4856667,63.111 89.713,63.111 L89.713,63.111 L86.35,63.111 C86.1346667,63.111 85.9605,63.1648333 85.8275,63.2725 C85.6945,63.3801667 85.628,63.51 85.628,63.662 L85.628,63.662 L85.628,76.449 C85.628,76.601 85.6945,76.7308333 85.8275,76.8385 C85.9605,76.9461667 86.1346667,77 86.35,77 L86.35,77 L89.713,77 Z M89.713,75.556 L87.224,75.556 L87.224,64.555 L89.713,64.555 C90.4983333,64.555 91.1126667,64.7735 91.556,65.2105 C91.9993333,65.6475 92.221,66.3283333 92.221,67.253 L92.221,67.253 L92.221,72.858 C92.221,73.7826667 91.9993333,74.4635 91.556,74.9005 C91.1126667,75.3375 90.4983333,75.556 89.713,75.556 L89.713,75.556 Z M104.153,77 C104.292333,77 104.438,76.9683333 104.59,76.905 C104.742,76.8416667 104.871833,76.7593333 104.9795,76.658 C105.087167,76.5566667 105.141,76.4426667 105.141,76.316 C105.141,76.278 105.128333,76.2336667 105.103,76.183 L105.103,76.183 L101.227,63.548 C101.176333,63.3706667 101.056,63.2345 100.866,63.1395 C100.676,63.0445 100.467,62.997 100.239,62.997 C100.023667,62.997 99.821,63.0413333 99.631,63.13 C99.441,63.2186667 99.3206667,63.358 99.27,63.548 L99.27,63.548 L95.375,76.183 C95.3623333,76.2336667 95.356,76.2843333 95.356,76.335 C95.356,76.4616667 95.4035,76.5756667 95.4985,76.677 C95.5935,76.7783333 95.7201667,76.8575 95.8785,76.9145 C96.0368333,76.9715 96.1793333,77 96.306,77 C96.458,77 96.5878333,76.9715 96.6955,76.9145 C96.8031667,76.8575 96.876,76.7656667 96.914,76.639 L96.914,76.639 L97.731,73.808 L102.728,73.808 L103.583,76.639 C103.621,76.7656667 103.690667,76.8575 103.792,76.9145 C103.893333,76.9715 104.013667,77 104.153,77 Z M102.367,72.497 L98.111,72.497 L100.239,65.353 L102.367,72.497 Z" id="YDA"></path>
        </g>
    </g>
</svg>