<?xml version="1.0" encoding="UTF-8"?>
<svg width="126px" height="23px" viewBox="0 0 126 23" version="1.1" xmlns="http://www.w3.org/2000/svg" xmlns:xlink="http://www.w3.org/1999/xlink">
    <title>YourDriverApp</title>
    <g id="Page-1" stroke="none" stroke-width="1" fill="none" fill-rule="evenodd">
        <g id="1" transform="translate(-99.000000, -95.000000)" fill="#FFFFFF" fill-rule="nonzero">
            <path d="M104.94,112 C105.174667,112 105.387333,111.945 105.578,111.835 C105.768667,111.725 105.864,111.56 105.864,111.34 L105.864,111.34 L105.864,105.774 C105.864,105.686 105.886,105.612667 105.93,105.554 L105.93,105.554 L110.484,97.062 C110.513333,96.9886667 110.535333,96.919 110.55,96.853 C110.564667,96.787 110.572,96.732 110.572,96.688 C110.572,96.5413333 110.513333,96.4093333 110.396,96.292 C110.278667,96.1746667 110.135667,96.083 109.967,96.017 C109.798333,95.951 109.633333,95.918 109.472,95.918 C109.325333,95.918 109.200667,95.9583333 109.098,96.039 C108.995333,96.1196667 108.9,96.2406667 108.812,96.402 L108.812,96.402 L104.94,103.948 L101.09,96.402 C101.002,96.2406667 100.910333,96.1196667 100.815,96.039 C100.719667,95.9583333 100.591333,95.918 100.43,95.918 C100.268667,95.918 100.103667,95.951 99.935,96.017 C99.7663333,96.083 99.6233333,96.1746667 99.506,96.292 C99.3886667,96.4093333 99.33,96.5413333 99.33,96.688 C99.33,96.732 99.3373333,96.787 99.352,96.853 C99.3666667,96.919 99.3886667,96.9886667 99.418,97.062 L99.418,97.062 L103.972,105.554 C104.001333,105.612667 104.016,105.686 104.016,105.774 L104.016,105.774 L104.016,111.34 C104.016,111.56 104.115,111.725 104.313,111.835 C104.511,111.945 104.72,112 104.94,112 Z M116.138,112.176 C116.915333,112.176 117.634,111.974333 118.294,111.571 C118.954,111.167667 119.485667,110.639667 119.889,109.987 C120.292333,109.334333 120.494,108.641333 120.494,107.908 L120.494,107.908 L120.494,105.664 C120.494,104.886667 120.292333,104.182667 119.889,103.552 C119.485667,102.921333 118.954,102.411667 118.294,102.023 C117.634,101.634333 116.915333,101.44 116.138,101.44 C115.346,101.44 114.62,101.638 113.96,102.034 C113.3,102.43 112.775667,102.947 112.387,103.585 C111.998333,104.223 111.804,104.916 111.804,105.664 L111.804,105.664 L111.804,107.908 C111.804,108.656 112.002,109.352667 112.398,109.998 C112.794,110.643333 113.322,111.167667 113.982,111.571 C114.642,111.974333 115.360667,112.176 116.138,112.176 Z M116.138,110.526 C115.668667,110.526 115.243333,110.401333 114.862,110.152 C114.480667,109.902667 114.18,109.576333 113.96,109.173 C113.74,108.769667 113.63,108.348 113.63,107.908 L113.63,107.908 L113.63,105.664 C113.63,105.238667 113.74,104.828 113.96,104.432 C114.18,104.036 114.480667,103.713333 114.862,103.464 C115.243333,103.214667 115.668667,103.09 116.138,103.09 C116.607333,103.09 117.032667,103.214667 117.414,103.464 C117.795333,103.713333 118.099667,104.036 118.327,104.432 C118.554333,104.828 118.668,105.238667 118.668,105.664 L118.668,105.664 L118.668,107.908 C118.668,108.348 118.550667,108.769667 118.316,109.173 C118.081333,109.576333 117.777,109.902667 117.403,110.152 C117.029,110.401333 116.607333,110.526 116.138,110.526 Z M126.962,112.176 C127.739333,112.176 128.458,111.978 129.118,111.582 C129.778,111.186 130.302333,110.669 130.691,110.031 C131.079667,109.393 131.274,108.7 131.274,107.952 L131.274,107.952 L131.274,102.21 C131.274,102.034 131.193333,101.883667 131.032,101.759 C130.870667,101.634333 130.650667,101.572 130.372,101.572 C130.137333,101.572 129.924667,101.634333 129.734,101.759 C129.543333,101.883667 129.448,102.034 129.448,102.21 L129.448,102.21 L129.448,107.952 C129.448,108.377333 129.338,108.788 129.118,109.184 C128.898,109.58 128.597333,109.902667 128.216,110.152 C127.834667,110.401333 127.409333,110.526 126.94,110.526 C126.470667,110.526 126.045333,110.401333 125.664,110.152 C125.282667,109.902667 124.978333,109.58 124.751,109.184 C124.523667,108.788 124.41,108.377333 124.41,107.952 L124.41,107.952 L124.41,102.232 C124.41,102.070667 124.322,101.920333 124.146,101.781 C123.97,101.641667 123.757333,101.572 123.508,101.572 C123.258667,101.572 123.042333,101.641667 122.859,101.781 C122.675667,101.920333 122.584,102.070667 122.584,102.232 L122.584,102.232 L122.584,107.952 C122.584,108.685333 122.782,109.374667 123.178,110.02 C123.574,110.665333 124.102,111.186 124.762,111.582 C125.422,111.978 126.155333,112.176 126.962,112.176 Z M134.662,112 C134.926,112 135.149667,111.930333 135.333,111.791 C135.516333,111.651667 135.608,111.501333 135.608,111.34 L135.608,111.34 L135.608,106.324 C135.608,105.649333 135.743667,105.073667 136.015,104.597 C136.286333,104.120333 136.634667,103.75 137.06,103.486 C137.485333,103.222 137.932667,103.09 138.402,103.09 L138.402,103.09 L139.15,103.09 C139.340667,103.09 139.505667,103.009333 139.645,102.848 C139.784333,102.686667 139.854,102.496 139.854,102.276 C139.854,102.041333 139.784333,101.843333 139.645,101.682 C139.505667,101.520667 139.340667,101.44 139.15,101.44 L139.15,101.44 L138.402,101.44 C137.947333,101.44 137.533,101.528 137.159,101.704 C136.785,101.88 136.458667,102.103667 136.18,102.375 C135.901333,102.646333 135.681333,102.936 135.52,103.244 L135.52,103.244 L135.52,102.21 C135.52,102.019333 135.439333,101.865333 135.278,101.748 C135.116667,101.630667 134.911333,101.572 134.662,101.572 C134.412667,101.572 134.203667,101.630667 134.035,101.748 C133.866333,101.865333 133.782,102.019333 133.782,102.21 L133.782,102.21 L133.782,111.34 C133.782,111.501333 133.866333,111.651667 134.035,111.791 C134.203667,111.930333 134.412667,112 134.662,112 Z M146.3,112 C147.194667,112 148.001333,111.842333 148.72,111.527 C149.438667,111.211667 150.007,110.705667 150.425,110.009 C150.843,109.312333 151.052,108.377333 151.052,107.204 L151.052,107.204 L151.052,100.714 C151.052,99.5406667 150.843,98.6056667 150.425,97.909 C150.007,97.2123333 149.438667,96.7063333 148.72,96.391 C148.001333,96.0756667 147.194667,95.918 146.3,95.918 L146.3,95.918 L142.406,95.918 C142.156667,95.918 141.955,95.9803333 141.801,96.105 C141.647,96.2296667 141.57,96.38 141.57,96.556 L141.57,96.556 L141.57,111.362 C141.57,111.538 141.647,111.688333 141.801,111.813 C141.955,111.937667 142.156667,112 142.406,112 L142.406,112 L146.3,112 Z M146.3,110.328 L143.418,110.328 L143.418,97.59 L146.3,97.59 C147.209333,97.59 147.920667,97.843 148.434,98.349 C148.947333,98.855 149.204,99.6433333 149.204,100.714 L149.204,100.714 L149.204,107.204 C149.204,108.274667 148.947333,109.063 148.434,109.569 C147.920667,110.075 147.209333,110.328 146.3,110.328 L146.3,110.328 Z M154.638,112 C154.902,112 155.125667,111.930333 155.309,111.791 C155.492333,111.651667 155.584,111.501333 155.584,111.34 L155.584,111.34 L155.584,106.324 C155.584,105.649333 155.719667,105.073667 155.991,104.597 C156.262333,104.120333 156.610667,103.75 157.036,103.486 C157.461333,103.222 157.908667,103.09 158.378,103.09 L158.378,103.09 L159.126,103.09 C159.316667,103.09 159.481667,103.009333 159.621,102.848 C159.760333,102.686667 159.83,102.496 159.83,102.276 C159.83,102.041333 159.760333,101.843333 159.621,101.682 C159.481667,101.520667 159.316667,101.44 159.126,101.44 L159.126,101.44 L158.378,101.44 C157.923333,101.44 157.509,101.528 157.135,101.704 C156.761,101.88 156.434667,102.103667 156.156,102.375 C155.877333,102.646333 155.657333,102.936 155.496,103.244 L155.496,103.244 L155.496,102.21 C155.496,102.019333 155.415333,101.865333 155.254,101.748 C155.092667,101.630667 154.887333,101.572 154.638,101.572 C154.388667,101.572 154.179667,101.630667 154.011,101.748 C153.842333,101.865333 153.758,102.019333 153.758,102.21 L153.758,102.21 L153.758,111.34 C153.758,111.501333 153.842333,111.651667 154.011,111.791 C154.179667,111.930333 154.388667,112 154.638,112 Z M162.184,98.712 C162.492,98.712 162.756,98.6056667 162.976,98.393 C163.196,98.1803333 163.306,97.9346667 163.306,97.656 C163.306,97.3773333 163.196,97.1353333 162.976,96.93 C162.756,96.7246667 162.492,96.622 162.184,96.622 C161.861333,96.622 161.59,96.7246667 161.37,96.93 C161.15,97.1353333 161.04,97.3773333 161.04,97.656 C161.04,97.9346667 161.15,98.1803333 161.37,98.393 C161.59,98.6056667 161.861333,98.712 162.184,98.712 Z M162.184,112 C162.433333,112 162.649667,111.930333 162.833,111.791 C163.016333,111.651667 163.108,111.501333 163.108,111.34 L163.108,111.34 L163.108,102.21 C163.108,102.019333 163.016333,101.865333 162.833,101.748 C162.649667,101.630667 162.433333,101.572 162.184,101.572 C161.92,101.572 161.703667,101.630667 161.535,101.748 C161.366333,101.865333 161.282,102.019333 161.282,102.21 L161.282,102.21 L161.282,111.34 C161.282,111.501333 161.366333,111.651667 161.535,111.791 C161.703667,111.930333 161.92,112 162.184,112 Z M169.18,112.198 C169.370667,112.198 169.546667,112.161333 169.708,112.088 C169.869333,112.014667 169.979333,111.919333 170.038,111.802 L170.038,111.802 L173.646,102.672 C173.660667,102.628 173.679,102.576667 173.701,102.518 C173.723,102.459333 173.734,102.393333 173.734,102.32 C173.734,102.173333 173.660667,102.037667 173.514,101.913 C173.367333,101.788333 173.206,101.693 173.03,101.627 C172.854,101.561 172.692667,101.528 172.546,101.528 C172.384667,101.528 172.256333,101.568333 172.161,101.649 C172.065667,101.729667 171.996,101.836 171.952,101.968 L171.952,101.968 L169.18,109.36 L166.408,101.88 C166.364,101.762667 166.283333,101.674667 166.166,101.616 C166.048667,101.557333 165.931333,101.528 165.814,101.528 C165.652667,101.528 165.480333,101.561 165.297,101.627 C165.113667,101.693 164.959667,101.788333 164.835,101.913 C164.710333,102.037667 164.648,102.173333 164.648,102.32 C164.648,102.378667 164.659,102.444667 164.681,102.518 C164.703,102.591333 164.721333,102.642667 164.736,102.672 L164.736,102.672 L168.344,111.802 C168.402667,111.934 168.509,112.033 168.663,112.099 C168.817,112.165 168.989333,112.198 169.18,112.198 Z M179.784,112.176 C180.488,112.176 181.100333,112.084333 181.621,111.901 C182.141667,111.717667 182.541333,111.505 182.82,111.263 C183.098667,111.021 183.238,110.804667 183.238,110.614 C183.238,110.511333 183.208667,110.394 183.15,110.262 C183.091333,110.13 183.007,110.016333 182.897,109.921 C182.787,109.825667 182.651333,109.778 182.49,109.778 C182.328667,109.778 182.145333,109.847667 181.94,109.987 C181.734667,110.126333 181.470667,110.269333 181.148,110.416 C180.825333,110.562667 180.392667,110.636 179.85,110.636 C178.926,110.636 178.170667,110.397667 177.584,109.921 C176.997333,109.444333 176.704,108.795333 176.704,107.974 L176.704,107.974 L176.704,107.314 L181.544,107.314 C181.866667,107.314 182.174667,107.284667 182.468,107.226 C182.761333,107.167333 183.003333,107.009667 183.194,106.753 C183.384667,106.496333 183.48,106.074667 183.48,105.488 C183.48,104.696 183.285667,103.999333 182.897,103.398 C182.508333,102.796667 181.995,102.32 181.357,101.968 C180.719,101.616 180.018667,101.44 179.256,101.44 C178.464,101.44 177.738,101.630667 177.078,102.012 C176.418,102.393333 175.886333,102.899333 175.483,103.53 C175.079667,104.160667 174.878,104.85 174.878,105.598 L174.878,105.598 L174.878,107.908 C174.878,108.758667 175.090667,109.503 175.516,110.141 C175.941333,110.779 176.520667,111.277667 177.254,111.637 C177.987333,111.996333 178.830667,112.176 179.784,112.176 Z M180.774,106.082 L176.704,106.082 L176.704,105.29 C176.704,104.85 176.821333,104.446667 177.056,104.08 C177.290667,103.713333 177.598667,103.423667 177.98,103.211 C178.361333,102.998333 178.779333,102.892 179.234,102.892 C179.718,102.892 180.150667,103.009333 180.532,103.244 C180.913333,103.478667 181.210333,103.783 181.423,104.157 C181.635667,104.531 181.742,104.938 181.742,105.378 C181.742,105.656667 181.679667,105.843667 181.555,105.939 C181.430333,106.034333 181.17,106.082 180.774,106.082 L180.774,106.082 Z M186.384,112 C186.648,112 186.871667,111.930333 187.055,111.791 C187.238333,111.651667 187.33,111.501333 187.33,111.34 L187.33,111.34 L187.33,106.324 C187.33,105.649333 187.465667,105.073667 187.737,104.597 C188.008333,104.120333 188.356667,103.75 188.782,103.486 C189.207333,103.222 189.654667,103.09 190.124,103.09 L190.124,103.09 L190.872,103.09 C191.062667,103.09 191.227667,103.009333 191.367,102.848 C191.506333,102.686667 191.576,102.496 191.576,102.276 C191.576,102.041333 191.506333,101.843333 191.367,101.682 C191.227667,101.520667 191.062667,101.44 190.872,101.44 L190.872,101.44 L190.124,101.44 C189.669333,101.44 189.255,101.528 188.881,101.704 C188.507,101.88 188.180667,102.103667 187.902,102.375 C187.623333,102.646333 187.403333,102.936 187.242,103.244 L187.242,103.244 L187.242,102.21 C187.242,102.019333 187.161333,101.865333 187,101.748 C186.838667,101.630667 186.633333,101.572 186.384,101.572 C186.134667,101.572 185.925667,101.630667 185.757,101.748 C185.588333,101.865333 185.504,102.019333 185.504,102.21 L185.504,102.21 L185.504,111.34 C185.504,111.501333 185.588333,111.651667 185.757,111.791 C185.925667,111.930333 186.134667,112 186.384,112 Z M202.29,112 C202.451333,112 202.62,111.963333 202.796,111.89 C202.972,111.816667 203.122333,111.721333 203.247,111.604 C203.371667,111.486667 203.434,111.354667 203.434,111.208 C203.434,111.164 203.419333,111.112667 203.39,111.054 L203.39,111.054 L198.902,96.424 C198.843333,96.2186667 198.704,96.061 198.484,95.951 C198.264,95.841 198.022,95.786 197.758,95.786 C197.508667,95.786 197.274,95.8373333 197.054,95.94 C196.834,96.0426667 196.694667,96.204 196.636,96.424 L196.636,96.424 L192.126,111.054 C192.111333,111.112667 192.104,111.171333 192.104,111.23 C192.104,111.376667 192.159,111.508667 192.269,111.626 C192.379,111.743333 192.525667,111.835 192.709,111.901 C192.892333,111.967 193.057333,112 193.204,112 C193.38,112 193.530333,111.967 193.655,111.901 C193.779667,111.835 193.864,111.728667 193.908,111.582 L193.908,111.582 L194.854,108.304 L200.64,108.304 L201.63,111.582 C201.674,111.728667 201.754667,111.835 201.872,111.901 C201.989333,111.967 202.128667,112 202.29,112 Z M200.222,106.786 L195.294,106.786 L197.758,98.514 L200.222,106.786 Z M205.986,117.038 C206.25,117.038 206.473667,116.968333 206.657,116.829 C206.840333,116.689667 206.932,116.539333 206.932,116.378 L206.932,116.378 L206.932,110.46 C207.166667,110.914667 207.548,111.314333 208.076,111.659 C208.604,112.003667 209.198,112.176 209.858,112.176 C210.562,112.176 211.207333,111.974333 211.794,111.571 C212.380667,111.167667 212.853667,110.639667 213.213,109.987 C213.572333,109.334333 213.752,108.641333 213.752,107.908 L213.752,107.908 L213.752,105.664 C213.752,104.886667 213.576,104.182667 213.224,103.552 C212.872,102.921333 212.395333,102.411667 211.794,102.023 C211.192667,101.634333 210.525333,101.44 209.792,101.44 C209.073333,101.44 208.464667,101.612333 207.966,101.957 C207.467333,102.301667 207.093333,102.686667 206.844,103.112 L206.844,103.112 L206.844,102.21 C206.844,102.019333 206.763333,101.865333 206.602,101.748 C206.440667,101.630667 206.235333,101.572 205.986,101.572 C205.736667,101.572 205.527667,101.630667 205.359,101.748 C205.190333,101.865333 205.106,102.019333 205.106,102.21 L205.106,102.21 L205.106,116.378 C205.106,116.539333 205.190333,116.689667 205.359,116.829 C205.527667,116.968333 205.736667,117.038 205.986,117.038 Z M209.418,110.526 C208.934,110.526 208.505,110.397667 208.131,110.141 C207.757,109.884333 207.463667,109.594667 207.251,109.272 C207.038333,108.949333 206.932,108.692667 206.932,108.502 L206.932,108.502 L206.932,105.664 C206.932,105.121333 207.053,104.663 207.295,104.289 C207.537,103.915 207.845,103.621667 208.219,103.409 C208.593,103.196333 208.978,103.09 209.374,103.09 C209.843333,103.09 210.268667,103.214667 210.65,103.464 C211.031333,103.713333 211.339333,104.036 211.574,104.432 C211.808667,104.828 211.926,105.238667 211.926,105.664 L211.926,105.664 L211.926,107.908 C211.926,108.333333 211.808667,108.751333 211.574,109.162 C211.339333,109.572667 211.031333,109.902667 210.65,110.152 C210.268667,110.401333 209.858,110.526 209.418,110.526 Z M216.854,117.038 C217.118,117.038 217.341667,116.968333 217.525,116.829 C217.708333,116.689667 217.8,116.539333 217.8,116.378 L217.8,116.378 L217.8,110.46 C218.034667,110.914667 218.416,111.314333 218.944,111.659 C219.472,112.003667 220.066,112.176 220.726,112.176 C221.43,112.176 222.075333,111.974333 222.662,111.571 C223.248667,111.167667 223.721667,110.639667 224.081,109.987 C224.440333,109.334333 224.62,108.641333 224.62,107.908 L224.62,107.908 L224.62,105.664 C224.62,104.886667 224.444,104.182667 224.092,103.552 C223.74,102.921333 223.263333,102.411667 222.662,102.023 C222.060667,101.634333 221.393333,101.44 220.66,101.44 C219.941333,101.44 219.332667,101.612333 218.834,101.957 C218.335333,102.301667 217.961333,102.686667 217.712,103.112 L217.712,103.112 L217.712,102.21 C217.712,102.019333 217.631333,101.865333 217.47,101.748 C217.308667,101.630667 217.103333,101.572 216.854,101.572 C216.604667,101.572 216.395667,101.630667 216.227,101.748 C216.058333,101.865333 215.974,102.019333 215.974,102.21 L215.974,102.21 L215.974,116.378 C215.974,116.539333 216.058333,116.689667 216.227,116.829 C216.395667,116.968333 216.604667,117.038 216.854,117.038 Z M220.286,110.526 C219.802,110.526 219.373,110.397667 218.999,110.141 C218.625,109.884333 218.331667,109.594667 218.119,109.272 C217.906333,108.949333 217.8,108.692667 217.8,108.502 L217.8,108.502 L217.8,105.664 C217.8,105.121333 217.921,104.663 218.163,104.289 C218.405,103.915 218.713,103.621667 219.087,103.409 C219.461,103.196333 219.846,103.09 220.242,103.09 C220.711333,103.09 221.136667,103.214667 221.518,103.464 C221.899333,103.713333 222.207333,104.036 222.442,104.432 C222.676667,104.828 222.794,105.238667 222.794,105.664 L222.794,105.664 L222.794,107.908 C222.794,108.333333 222.676667,108.751333 222.442,109.162 C222.207333,109.572667 221.899333,109.902667 221.518,110.152 C221.136667,110.401333 220.726,110.526 220.286,110.526 Z" id="YourDriverApp"></path>
        </g>
    </g>
</svg>