<?xml version="1.0" encoding="UTF-8"?>
<svg width="366px" height="448px" viewBox="0 0 366 448" version="1.1" xmlns="http://www.w3.org/2000/svg" xmlns:xlink="http://www.w3.org/1999/xlink">
    <!-- Generator: Sketch 44.1 (41455) - http://www.bohemiancoding.com/sketch -->
    <title>Group 3</title>
    <desc>Created with Sketch.</desc>
    <defs>
        <polygon id="path-1" points="18.1121628 263.05036 0 263.05036 0 0.867021583 327.180948 0.867021583 327.180948 263.05036 18.1121628 263.05036 18.1121628 244.906217 6.46135593e-05 244.906217 6.46135593e-05 263.050485 18.1121628 263.050485"></polygon>
        <polygon id="path-3" points="0 263.05036 327.180948 263.05036 327.180948 0.867021583 0 0.867021583"></polygon>
    </defs>
    <g id="Page-1" stroke="none" stroke-width="1" fill="none" fill-rule="evenodd">
        <g id="Driver-Portal" transform="translate(-322.000000, -2483.000000)">
            <g id="Group-3" transform="translate(322.000000, 2483.000000)">
                <rect id="Rectangle-14-Copy-3" fill="#FFFFFF" x="0" y="0" width="366" height="448"></rect>
                <g id="Page-1" transform="translate(19.000000, 92.000000)">
                    <polyline id="Stroke-1" stroke="#626262" stroke-width="2" stroke-dasharray="2,5,2,5,2,5" points="10.0040948 251.46076 67.0486035 166.776587 124.892257 206.677623 184.570245 100.363494 245.382962 163.183148 321.520673 35.6312633"></polyline>
                    <g id="Group-31" transform="translate(0.000000, 0.082619)">
                        <g id="Group-4">
                            <mask id="mask-2" fill="white">
                                <use xlink:href="#path-1"></use>
                            </mask>
                            <g id="Clip-3"></g>
                            <path d="M3.16984509,260.872265 C6.97028439,264.129531 12.6875329,263.68225 15.9381457,259.875142 C19.1887584,256.067085 18.7432092,250.340754 14.9427699,247.084437 C11.1413827,243.827171 5.42508208,244.274452 2.17446936,248.08156 C-1.07709133,251.889617 -0.63059422,257.615948 3.16984509,260.872265" id="Fill-2" fill="#FF1B0F" mask="url(#mask-2)"></path>
                        </g>
                        <path d="M60.9308347,175.515937 C64.731274,178.772253 70.4485225,178.325922 73.6991353,174.518814 C76.949748,170.710757 76.5041988,164.984426 72.7037595,161.72716 C68.9023723,158.470843 63.1860717,158.917174 59.935459,162.725232 C56.6838983,166.533289 57.1303954,172.25962 60.9308347,175.515937" id="Fill-5" fill="#01BF00"></path>
                        <path d="M119.703979,214.449764 C123.504418,217.706081 129.221667,217.25975 132.47228,213.452642 C135.722892,209.644584 135.277343,203.918253 131.476904,200.660987 C127.675517,197.404671 121.959216,197.851001 118.708603,201.659059 C115.457043,205.467117 115.90354,211.193447 119.703979,214.449764" id="Fill-7" fill="#FF1B0F"></path>
                        <path d="M178.683783,107.174788 C182.484222,110.431105 188.201471,109.984774 191.452083,106.177666 C194.702696,102.369609 194.257147,96.6432777 190.456708,93.3860115 C186.65532,90.129695 180.93902,90.5760259 177.688407,94.3840835 C174.436846,98.192141 174.883343,103.918472 178.683783,107.174788" id="Fill-9" fill="#01BF00"></path>
                        <path d="M312.238273,46.2410245 C316.038712,49.4982906 321.755961,49.0510101 325.006573,45.2439022 C328.257186,41.4358446 327.811637,35.7095137 324.011198,32.4531971 C320.20981,29.1959309 314.49351,29.6422619 311.242897,33.4503194 C307.991336,37.258377 308.436886,42.9847079 312.238273,46.2410245" id="Fill-11" fill="#01BF00"></path>
                        <path d="M240.162074,169.724365 C243.962513,172.980682 249.679762,172.534351 252.930375,168.727243 C256.180987,164.919186 255.735438,159.192855 251.934999,155.935588 C248.133612,152.679272 242.417311,153.125603 239.166698,156.93366 C235.915138,160.741718 236.361635,166.468049 240.162074,169.724365" id="Fill-13" fill="#FF1B0F"></path>
                        <mask id="mask-4" fill="white">
                            <use xlink:href="#path-3"></use>
                        </mask>
                        <g id="Clip-16"></g>
                        <polygon id="Fill-15" fill="#EDF9F9" mask="url(#mask-4)" points="2.47895954 71.2505612 263.839029 71.2505612 263.839029 0.867021583 2.47895954 0.867021583"></polygon>
                        <polygon id="Fill-17" fill="#AAC7CC" mask="url(#mask-4)" points="66.5403931 22.0696403 245.92037 22.0696403 245.92037 15.0328058 66.5403931 15.0328058"></polygon>
                        <polygon id="Fill-18" fill="#C6ECF4" mask="url(#mask-4)" points="82.738474 38.3550216 245.92037 38.3550216 245.92037 31.3181871 82.738474 31.3181871"></polygon>
                        <polygon id="Fill-19" fill="#C6ECF4" mask="url(#mask-4)" points="82.738474 54.7600576 223.968069 54.7600576 223.968069 47.6026187 82.738474 47.6026187"></polygon>
                        <path d="M65.8650543,35.8678187 C65.8650543,38.5553007 68.0397133,40.7337755 70.7215399,40.7337755 C73.4043145,40.7337755 75.5789734,38.5553007 75.5789734,35.8678187 C75.5789734,33.1803367 73.4043145,31.0018619 70.7215399,31.0018619 C68.0397133,31.0018619 65.8650543,33.1803367 65.8650543,35.8678187" id="Fill-20" fill="#01BF00" mask="url(#mask-4)"></path>
                        <path d="M65.8650543,50.6804029 C65.8650543,53.3678849 68.0397133,55.5463597 70.7215399,55.5463597 C73.4043145,55.5463597 75.5789734,53.3678849 75.5789734,50.6804029 C75.5789734,47.9929209 73.4043145,45.814446 70.7215399,45.814446 C68.0397133,45.814446 65.8650543,47.9929209 65.8650543,50.6804029" id="Fill-21" fill="#FF1B0F" mask="url(#mask-4)"></path>
                        <polygon id="Fill-22" fill="#EDD000" mask="url(#mask-4)" points="39.8292486 40.405295 46.945711 40.405295 46.945711 36.418705 39.8292486 36.418705"></polygon>
                        <polygon id="Fill-23" fill="#FFFFFF" mask="url(#mask-4)" points="47.2855607 34.5036604 23.0931908 34.5036604 26.5011676 25.3738187 44.6350173 25.3738187"></polygon>
                        <polygon id="Fill-24" fill="#EDD000" mask="url(#mask-4)" points="23.9582197 40.405295 31.0746821 40.405295 31.0746821 36.418705 23.9582197 36.418705"></polygon>
                        <polygon id="Fill-25" fill="#000000" mask="url(#mask-4)" points="23.4415723 47.9284403 27.4771098 47.9284403 27.9008555 44.6246417 23.4415723 44.6246417"></polygon>
                        <polygon id="Fill-26" fill="#000000" mask="url(#mask-4)" points="43.4411353 47.9284403 47.4766728 47.9284403 47.4766728 44.6246417 43.1188231 44.6246417"></polygon>
                        <polygon id="Fill-27" fill="#4B4B4B" mask="url(#mask-4)" points="27.9008555 44.6245468 43.1187283 44.6245468 43.1187283 44.6245468"></polygon>
                        <path d="M46.1811676,40.3215367 L40.5520809,40.3215367 L40.5520809,36.8743424 L46.5632023,36.8743424 L46.1811676,40.3215367 Z M24.5473873,33.807954 L27.059526,26.1348604 C27.1211445,25.9477813 27.1761272,25.7739971 27.4453526,25.7654504 L43.4130751,25.7654504 C43.6680809,25.7806446 43.7221156,25.9506302 43.7619306,26.0759827 L46.2949249,33.8089036 C42.8234335,33.6769036 39.1765665,33.6047309 35.4083584,33.6047309 C31.6496301,33.6047309 28.0103468,33.675954 24.5473873,33.807954 L24.5473873,33.807954 Z M30.5224855,40.3215367 L24.8933988,40.3215367 L24.5113642,36.8743424 L30.5224855,36.8743424 L30.5224855,40.3215367 Z M47.4846358,44.6243568 L48.5549017,36.1981986 L51.2424162,35.8971626 L51.2424162,32.4803568 L48.0079191,32.8630619 L45.4739769,25.5593784 C44.9478497,23.9782273 43.4130751,24.0655942 43.4130751,24.0655942 L40.468659,24.0655942 L39.8619538,21.0780259 L31.1822775,21.0780259 L30.5755723,24.0655942 L27.5354104,24.0655942 C27.5354104,24.0655942 26.0006358,23.9782273 25.4745087,25.5593784 L22.9225549,32.9114935 L19.3666936,32.4803568 L19.3666936,35.8971626 L22.3992717,36.2504288 L23.4420462,44.4562705 L23.4420462,44.6243568 L27.9013295,44.6243568 L27.9013295,44.6243568 L43.1192023,44.6243568 L43.1192023,44.6243568 L47.476104,44.6243568 L47.476104,44.6243568 L47.4846358,44.6243568 Z" id="Fill-28" fill="#626262" mask="url(#mask-4)"></path>
                        <path d="M40.394148,29.6478647 C38.5332694,29.6478647 36.9928069,31.0068 36.6960902,32.7864259 C37.0951884,32.7883252 37.4942867,32.7892748 37.890541,32.7921237 C38.1673503,31.6611022 39.1807376,30.8168719 40.394148,30.8168719 C41.6388416,30.8168719 42.6797202,31.7028863 42.9252462,32.8775914 C43.3215006,32.8870878 43.7177549,32.8975338 44.1102173,32.9089295 C43.8665873,31.0685266 42.2976855,29.6478647 40.394148,29.6478647" id="Fill-29" fill="#4B4B4B" mask="url(#mask-4)"></path>
                        <path d="M258.372046,15.032236 L301.397873,38.3544518 C301.397873,38.3544518 257.116925,41.8424806 258.372046,39.3468259 C259.627168,36.8511712 258.372046,15.032236 258.372046,15.032236" id="Fill-30" fill="#EDF9F9" mask="url(#mask-4)"></path>
                    </g>
                </g>
            </g>
        </g>
    </g>
</svg>