<?xml version="1.0" encoding="UTF-8"?>
<svg width="366px" height="448px" viewBox="0 0 366 448" version="1.1" xmlns="http://www.w3.org/2000/svg" xmlns:xlink="http://www.w3.org/1999/xlink">
    <!-- Generator: Sketch 44.1 (41455) - http://www.bohemiancoding.com/sketch -->
    <title>Group 3</title>
    <desc>Created with Sketch.</desc>
    <defs>
        <polygon id="path-1" points="0 292.984327 291.954451 292.984327 291.954451 0.508867516 0 0.508867516"></polygon>
    </defs>
    <g id="Page-1" stroke="none" stroke-width="1" fill="none" fill-rule="evenodd">
        <g id="Driver-Portal" transform="translate(-804.000000, -1325.000000)">
            <g id="Group-3" transform="translate(804.000000, 1325.000000)">
                <rect id="Rectangle-14" fill="#FFFFFF" x="0" y="0" width="366" height="448"></rect>
                <g id="Page-1" transform="translate(37.000000, 77.000000)">
                    <polygon id="Fill-1" fill="#AAC7CC" points="93.4237326 6.65748044 277.009582 6.65748044 277.009582 0.810779344 93.4237326 0.810779344"></polygon>
                    <polygon id="Fill-2" fill="#C6ECF4" points="106.933003 20.1858897 277.009582 20.1858897 277.009582 14.3400002 106.933003 14.3400002"></polygon>
                    <polygon id="Fill-3" fill="#C6ECF4" points="106.933003 33.8149363 258.700613 33.8149363 258.700613 27.8692211 106.933003 27.8692211"></polygon>
                    <g id="Group-46" transform="translate(0.000000, 0.302723)">
                        <path d="M92.8601482,17.8176674 C92.8601482,15.5857923 94.6739643,13.7759445 96.9107331,13.7759445 C99.1483153,13.7759445 100.962131,15.5857923 100.962131,17.8176674 C100.962131,20.0495425 99.1483153,21.8593902 96.9107331,21.8593902 C94.6739643,21.8593902 92.8601482,20.0495425 92.8601482,17.8176674 Z" id="Fill-4" fill="#01BF00"></path>
                        <path d="M92.8601482,30.1234961 C92.8601482,32.3553712 94.6739643,34.1652189 96.9107331,34.1652189 C99.1483153,34.1652189 100.962131,32.3553712 100.962131,30.1234961 C100.962131,27.891621 99.1483153,26.0817732 96.9107331,26.0817732 C94.6739643,26.0817732 92.8601482,27.891621 92.8601482,30.1234961" id="Fill-6" fill="#FF1B0F"></path>
                        <path d="M81.8808669,17.4487181 C81.8808669,25.5954679 75.2624713,32.1993834 67.0978585,32.1993834 C58.9332457,32.1993834 52.3140368,25.5954679 52.3140368,17.4487181 C52.3140368,9.30196834 58.9332457,2.6980529 67.0978585,2.6980529 C75.2624713,2.6980529 81.8808669,9.30196834 81.8808669,17.4487181" id="Fill-8" fill="#01BF00"></path>
                        <path d="M63.7829671,20.8242872 C63.7829671,20.8242872 65.2885159,22.2875856 67.2438585,22.2875856 C68.3004267,22.2875856 69.2585772,21.7413849 69.2585772,20.6100272 C69.2585772,18.2685873 62.6483153,18.5023255 62.6483153,14.307212 C62.6483153,12.2977128 64.1546774,10.7362118 66.3247499,10.3856046 L66.3247499,8.55140904 L68.0068,8.55140904 L68.0068,10.3458366 C70.2752903,10.54143 71.4481705,11.7709903 71.4481705,11.7709903 L70.3533738,13.8194458 C70.3533738,13.8194458 69.0235131,12.6093637 67.2829003,12.6093637 C66.1100201,12.6093637 65.1909114,13.2927233 65.1909114,14.2682556 C65.1909114,16.5902173 71.780839,16.1803638 71.780839,20.5515926 C71.780839,22.5416136 70.3924156,24.2394618 68.0068,24.5511127 L68.0068,26.3463519 L66.3247499,26.3463519 L66.3247499,24.5511127 C63.802488,24.2581284 62.4140646,22.7169172 62.4140646,22.7169172 L63.7829671,20.8242872 Z" id="Fill-10" fill="#FFFFFF"></path>
                        <mask id="mask-2" fill="white">
                            <use xlink:href="#path-1"></use>
                        </mask>
                        <g id="Clip-13"></g>
                        <polygon id="Fill-12" fill="#AAC7CC" mask="url(#mask-2)" points="93.4237326 78.1123811 277.009582 78.1123811 277.009582 72.2664916 93.4237326 72.2664916"></polygon>
                        <polygon id="Fill-14" fill="#C6ECF4" mask="url(#mask-2)" points="106.933003 91.641602 277.009582 91.641602 277.009582 85.7957125 106.933003 85.7957125"></polygon>
                        <polygon id="Fill-15" fill="#C6ECF4" mask="url(#mask-2)" points="106.933003 105.270649 258.700613 105.270649 258.700613 99.3241218 106.933003 99.3241218"></polygon>
                        <path d="M92.8601482,89.5761031 C92.8601482,91.8079781 94.6739643,93.6178259 96.9107331,93.6178259 C99.1483153,93.6178259 100.962131,91.8079781 100.962131,89.5761031 C100.962131,87.344228 99.1483153,85.5343802 96.9107331,85.5343802 C94.6739643,85.5343802 92.8601482,87.344228 92.8601482,89.5761031" id="Fill-16" fill="#01BF00" mask="url(#mask-2)"></path>
                        <path d="M92.8601482,101.881526 C92.8601482,104.113401 94.6739643,105.923249 96.9107331,105.923249 C99.1483153,105.923249 100.962131,104.113401 100.962131,101.881526 C100.962131,99.6496509 99.1483153,97.8398031 96.9107331,97.8398031 C94.6739643,97.8398031 92.8601482,99.6496509 92.8601482,101.881526" id="Fill-17" fill="#FF1B0F" mask="url(#mask-2)"></path>
                        <path d="M81.8808669,89.206748 C81.8808669,97.3534978 75.2624713,103.957413 67.0978585,103.957413 C58.9332457,103.957413 52.3140368,97.3534978 52.3140368,89.206748 C52.3140368,81.0599982 58.9332457,74.4560828 67.0978585,74.4560828 C75.2624713,74.4560828 81.8808669,81.0599982 81.8808669,89.206748" id="Fill-18" fill="#01BF00" mask="url(#mask-2)"></path>
                        <path d="M63.7829671,92.582317 C63.7829671,92.582317 65.2885159,94.0464271 67.2438585,94.0464271 C68.3004267,94.0464271 69.2585772,93.4994148 69.2585772,92.368057 C69.2585772,90.0266172 62.6483153,90.2603554 62.6483153,86.0652418 C62.6483153,84.0557427 64.1546774,82.4950533 66.3247499,82.1436344 L66.3247499,80.3094389 L68.0068,80.3094389 L68.0068,82.1046781 C70.2752903,82.2994599 71.4481705,83.5290202 71.4481705,83.5290202 L70.3533738,85.5774757 C70.3533738,85.5774757 69.0235131,84.3673936 67.2829003,84.3673936 C66.1100201,84.3673936 65.1909114,85.0507532 65.1909114,86.0262855 C65.1909114,88.3482471 71.780839,87.9383937 71.780839,92.3096225 C71.780839,94.2996435 70.3924156,95.9974917 68.0068,96.3091426 L68.0068,98.1043818 L66.3247499,98.1043818 L66.3247499,96.3091426 C63.802488,96.0169699 62.4140646,94.4749471 62.4140646,94.4749471 L63.7829671,92.582317 Z" id="Fill-19" fill="#FFFFFF" mask="url(#mask-2)"></path>
                        <polygon id="Fill-20" fill="#EDF9F9" mask="url(#mask-2)" points="39.9942396 190.728739 291.953638 190.728739 291.953638 132.256859 39.9942396 132.256859"></polygon>
                        <polygon id="Fill-21" fill="#AAC7CC" mask="url(#mask-2)" points="93.4237326 149.870817 277.009582 149.870817 277.009582 144.024116 93.4237326 144.024116"></polygon>
                        <polygon id="Fill-22" fill="#C6ECF4" mask="url(#mask-2)" points="106.933003 163.400038 277.009582 163.400038 277.009582 157.554148 106.933003 157.554148"></polygon>
                        <polygon id="Fill-23" fill="#C6ECF4" mask="url(#mask-2)" points="106.933003 177.028273 258.700613 177.028273 258.700613 171.082557 106.933003 171.082557"></polygon>
                        <path d="M92.8601482,161.334133 C92.8601482,163.566008 94.6739643,165.375856 96.9107331,165.375856 C99.1483153,165.375856 100.962131,163.566008 100.962131,161.334133 C100.962131,159.102258 99.1483153,157.29241 96.9107331,157.29241 C94.6739643,157.29241 92.8601482,159.102258 92.8601482,161.334133" id="Fill-24" fill="#01BF00" mask="url(#mask-2)"></path>
                        <path d="M92.8601482,173.639962 C92.8601482,175.871837 94.6739643,177.681684 96.9107331,177.681684 C99.1483153,177.681684 100.962131,175.871837 100.962131,173.639962 C100.962131,171.407275 99.1483153,169.598239 96.9107331,169.598239 C94.6739643,169.598239 92.8601482,171.407275 92.8601482,173.639962" id="Fill-25" fill="#FF1B0F" mask="url(#mask-2)"></path>
                        <path d="M81.8808669,160.965184 C81.8808669,169.111933 75.2624713,175.715849 67.0978585,175.715849 C58.9332457,175.715849 52.3140368,169.111933 52.3140368,160.965184 C52.3140368,152.818434 58.9332457,146.214518 67.0978585,146.214518 C75.2624713,146.214518 81.8808669,152.818434 81.8808669,160.965184" id="Fill-26" fill="#01BF00" mask="url(#mask-2)"></path>
                        <path d="M63.7829671,164.340753 C63.7829671,164.340753 65.2885159,165.804051 67.2438585,165.804051 C68.3004267,165.804051 69.2585772,165.25785 69.2585772,164.125681 C69.2585772,161.785053 62.6483153,162.018791 62.6483153,157.823678 C62.6483153,155.814178 64.1546774,154.252677 66.3247499,153.90207 L66.3247499,152.067875 L68.0068,152.067875 L68.0068,153.862302 C70.2752903,154.057896 71.4481705,155.287456 71.4481705,155.287456 L70.3533738,157.335911 C70.3533738,157.335911 69.0235131,156.125829 67.2829003,156.125829 C66.1100201,156.125829 65.1909114,156.809189 65.1909114,157.784721 C65.1909114,160.106683 71.780839,159.696829 71.780839,164.067247 C71.780839,166.058079 70.3924156,167.755927 68.0068,168.067578 L68.0068,169.862817 L66.3247499,169.862817 L66.3247499,168.067578 C63.802488,167.774594 62.4140646,166.233383 62.4140646,166.233383 L63.7829671,164.340753 Z" id="Fill-27" fill="#FFFFFF" mask="url(#mask-2)"></path>
                        <polygon id="Fill-28" fill="#EDF9F9" mask="url(#mask-2)" points="135.515817 199.730175 16.3684301 199.730175 16.3684301 124.591464 134.645511 124.591464 145.955427 159.709815"></polygon>
                        <polygon id="Fill-29" fill="#AAC7CC" mask="url(#mask-2)" points="85.0273092 147.226654 137.191198 147.226654 137.191198 139.713756 85.0273092 139.713756"></polygon>
                        <polygon id="Fill-30" fill="#C6ECF4" mask="url(#mask-2)" points="102.387889 164.611743 137.191198 164.611743 137.191198 157.099657 102.387889 157.099657"></polygon>
                        <polygon id="Fill-31" fill="#C6ECF4" mask="url(#mask-2)" points="102.387075 182.125064 137.702808 182.125064 137.702808 174.483935 102.387075 174.483935"></polygon>
                        <path d="M84.3033281,161.957516 C84.3033281,164.825678 86.6336345,167.151698 89.5088992,167.151698 C92.3841638,167.151698 94.7144702,164.825678 94.7144702,161.957516 C94.7144702,159.088542 92.3841638,156.763334 89.5088992,156.763334 C86.6336345,156.763334 84.3033281,159.088542 84.3033281,161.957516" id="Fill-32" fill="#01BF00" mask="url(#mask-2)"></path>
                        <path d="M84.3033281,177.770473 C84.3033281,180.639446 86.6336345,182.964655 89.5088992,182.964655 C92.3841638,182.964655 94.7144702,180.639446 94.7144702,177.770473 C94.7144702,174.901499 92.3841638,172.576291 89.5088992,172.576291 C86.6336345,172.576291 84.3033281,174.901499 84.3033281,177.770473" id="Fill-33" fill="#FF1B0F" mask="url(#mask-2)"></path>
                        <path d="M70.1944412,161.483141 C70.1944412,171.951852 61.6890262,180.438659 51.1973604,180.438659 C40.7056947,180.438659 32.2002797,171.951852 32.2002797,161.483141 C32.2002797,151.01443 40.7056947,142.527623 51.1973604,142.527623 C61.6890262,142.527623 70.1944412,151.01443 70.1944412,161.483141" id="Fill-34" fill="#01BF00" mask="url(#mask-2)"></path>
                        <path d="M46.9379019,165.820851 C46.9379019,165.820851 48.8729103,167.701307 51.3854117,167.701307 C52.742927,167.701307 53.9743699,166.999281 53.9743699,165.54491 C53.9743699,162.536343 45.4803421,162.837443 45.4803421,157.446044 C45.4803421,154.863562 47.4153504,152.857309 50.2043978,152.406065 L50.2043978,150.049204 L52.3655231,150.049204 L52.3655231,152.355746 C55.2806429,152.606528 56.7886318,154.186695 56.7886318,154.186695 L55.3815008,156.819496 C55.3815008,156.819496 53.6726095,155.264488 51.4358407,155.264488 C49.9286652,155.264488 48.7468379,156.142629 48.7468379,157.395726 C48.7468379,160.379945 57.2156513,159.853223 57.2156513,165.469432 C57.2156513,168.027567 55.4311164,170.209123 52.3655231,170.610049 L52.3655231,172.916591 L50.2043978,172.916591 L50.2043978,170.610049 C46.9631164,170.233471 45.1785816,168.253189 45.1785816,168.253189 L46.9379019,165.820851 Z" id="Fill-35" fill="#FFFFFF" mask="url(#mask-2)"></path>
                        <polygon id="Fill-36" fill="#AAC7CC" mask="url(#mask-2)" points="93.4237326 223.252434 277.009582 223.252434 277.009582 217.406545 93.4237326 217.406545"></polygon>
                        <polygon id="Fill-37" fill="#C6ECF4" mask="url(#mask-2)" points="106.933003 236.780844 277.009582 236.780844 277.009582 230.934954 106.933003 230.934954"></polygon>
                        <polygon id="Fill-38" fill="#C6ECF4" mask="url(#mask-2)" points="106.933003 250.40989 258.700613 250.40989 258.700613 244.463363 106.933003 244.463363"></polygon>
                        <path d="M92.8601482,234.71575 C92.8601482,236.947626 94.6739643,238.757473 96.9107331,238.757473 C99.1483153,238.757473 100.962131,236.947626 100.962131,234.71575 C100.962131,232.483875 99.1483153,230.674028 96.9107331,230.674028 C94.6739643,230.674028 92.8601482,232.483875 92.8601482,234.71575" id="Fill-39" fill="#01BF00" mask="url(#mask-2)"></path>
                        <path d="M92.8601482,247.021173 C92.8601482,249.253048 94.6739643,251.062896 96.9107331,251.062896 C99.1483153,251.062896 100.962131,249.253048 100.962131,247.021173 C100.962131,244.789298 99.1483153,242.979451 96.9107331,242.979451 C94.6739643,242.979451 92.8601482,244.789298 92.8601482,247.021173" id="Fill-40" fill="#FF1B0F" mask="url(#mask-2)"></path>
                        <path d="M81.8808669,234.346395 C81.8808669,242.493145 75.2624713,249.097061 67.0978585,249.097061 C58.9332457,249.097061 52.3140368,242.493145 52.3140368,234.346395 C52.3140368,226.199646 58.9332457,219.59573 67.0978585,219.59573 C75.2624713,219.59573 81.8808669,226.199646 81.8808669,234.346395" id="Fill-41" fill="#01BF00" mask="url(#mask-2)"></path>
                        <path d="M63.7829671,237.721964 C63.7829671,237.721964 65.2885159,239.185263 67.2438585,239.185263 C68.3004267,239.185263 69.2585772,238.639062 69.2585772,237.507704 C69.2585772,235.166265 62.6483153,235.400003 62.6483153,231.204889 C62.6483153,229.19539 64.1546774,227.633889 66.3247499,227.283282 L66.3247499,225.449086 L68.0068,225.449086 L68.0068,227.244325 C70.2752903,227.439107 71.4481705,228.668668 71.4481705,228.668668 L70.3533738,230.717123 C70.3533738,230.717123 69.0235131,229.507041 67.2829003,229.507041 C66.1100201,229.507041 65.1909114,230.190401 65.1909114,231.165933 C65.1909114,233.487895 71.780839,233.078041 71.780839,237.44927 C71.780839,239.439291 70.3924156,241.137139 68.0068,241.44879 L68.0068,243.244029 L66.3247499,243.244029 L66.3247499,241.44879 C63.802488,241.155806 62.4140646,239.614595 62.4140646,239.614595 L63.7829671,237.721964 Z" id="Fill-42" fill="#FFFFFF" mask="url(#mask-2)"></path>
                        <path d="M8.52282117,160.486507 C8.52282117,196.513029 37.8968825,225.822824 74.0023978,225.822824 C110.107913,225.822824 139.481974,196.513029 139.481974,160.486507 C139.481974,124.459986 110.107913,95.1501908 74.0023978,95.1501908 C37.8968825,95.1501908 8.52282117,124.459986 8.52282117,160.486507 M0.000325348189,160.486507 C0.000325348189,119.771425 33.1972279,86.6463409 74.0023978,86.6463409 C114.807568,86.6463409 148.005284,119.771425 148.005284,160.486507 C148.005284,201.202401 114.807568,234.327485 74.0023978,234.327485 C33.1972279,234.327485 0.000325348189,201.202401 0.000325348189,160.486507" id="Fill-43" fill="#626262" mask="url(#mask-2)"></path>
                        <polygon id="Fill-44" fill="#626262" mask="url(#mask-2)" points="125.282397 227.877042 141.612436 211.582731 132.086241 202.077378 115.756202 218.3725"></polygon>
                        <polygon id="Fill-45" fill="#626262" mask="url(#mask-2)" points="183.146467 292.984246 207.510166 268.67304 145.567938 206.866332 121.203425 231.177539"></polygon>
                    </g>
                </g>
            </g>
        </g>
    </g>
</svg>