<?xml version="1.0" encoding="UTF-8" standalone="no"?>
<svg width="139px" height="144px" viewBox="0 0 139 144" version="1.1" xmlns="http://www.w3.org/2000/svg" xmlns:xlink="http://www.w3.org/1999/xlink">
    <!-- Generator: Sketch 44.1 (41455) - http://www.bohemiancoding.com/sketch -->
    <title>Page 1 Copy 7</title>
    <desc>Created with Sketch.</desc>
    <defs>
        <polygon id="path-1" points="0.33574631 4.15588018 12.3475441 4.15588018 12.3475441 0.124953464 0.33574631 0.124953464 0.33574631 4.15588018"></polygon>
        <polygon id="path-3" points="0.322660813 4.15588018 12.3344586 4.15588018 12.3344586 0.124953464 0.322660813 0.124953464"></polygon>
        <polygon id="path-5" points="50.2985852 0.591173955 50.2985852 51.0061564 0.171075659 51.0061564 0.171075659 0.591173955 50.2985852 0.591173955"></polygon>
        <polygon id="path-7" points="0 143.612673 138.453514 143.612673 138.453514 0 0 0"></polygon>
    </defs>
    <g id="Page-1" stroke="none" stroke-width="1" fill="none" fill-rule="evenodd">
        <g id="About-Us" transform="translate(-993.000000, -1293.000000)">
            <g id="Page-1-Copy-7" transform="translate(993.000000, 1293.000000)">
                <path d="M78.3053372,13.2540023 C81.2158273,11.9802251 84.1139205,11.7966737 86.9328121,13.7021447 C87.5244143,12.9776363 88.0292391,12.2441234 88.6449461,11.6228194 C91.3426247,8.90071784 95.3020207,8.81205906 98.0699477,11.4926018 C98.8936453,12.2898381 99.6147251,12.5668968 100.74972,12.3431719 C102.801388,11.9379736 104.745617,12.5946027 105.804854,14.3366091 C106.63475,15.7025084 107.505969,16.2060625 108.965346,16.1236376 C109.458463,16.0959317 109.963287,16.2725566 110.48533,16.3598301 C111.342085,14.90735 112.025286,13.3655184 113.0432,12.0945118 C116.307687,8.01620801 121.791199,6.90312477 126.369746,9.12582802 C131.481354,11.6082738 133.369798,16.5239874 132.373234,21.8303537 C131.464825,26.6671056 126.672779,30.3076566 121.581143,30.3090419 C96.1945893,30.3152757 70.8073473,30.236314 45.4214827,30.3699948 C40.2534,30.3970081 36.2774749,26.7287512 35.6094259,23.0944339 C34.8229186,18.81457 36.2148023,14.1939239 41.4414254,11.9968486 C42.2217342,11.668534 42.8546591,10.4640214 43.1335868,9.53656751 C44.5426882,4.84873467 47.5282477,1.80663038 52.1777315,0.461510494 C56.9208799,-0.909929965 62.1240868,0.836925003 65.1420157,4.88267436 C66.1537312,6.23887659 66.9092465,6.9079733 68.8362582,6.27558686 C72.0022598,5.23661682 75.8514621,7.35195983 77.2564313,10.4363156 C77.6476188,11.2938122 77.9196594,12.2060279 78.3053372,13.2540023 Z" id="Fill-1" fill="#EBF8F9"></path>
                <path d="M51.3548603,28.2825655 C48.6034624,27.0787455 45.8637725,26.9048912 43.199152,28.7064653 C42.6399192,28.020745 42.1626429,27.3280983 41.5806826,26.7400413 C39.0303881,24.1675515 35.2872472,24.0837412 32.6708364,26.6174428 C31.891905,27.3717351 31.2100817,27.6335555 30.1377596,27.4216056 C28.1976625,27.0378794 26.3601832,27.6598761 25.3587983,29.30699 C24.5743572,30.5973907 23.7506596,31.0725464 22.3711727,30.99497 C21.904227,30.9686494 21.4269507,31.1362699 20.9345228,31.2186948 C20.1239107,29.8458691 19.4779004,28.3878478 18.515772,27.1861058 C15.4303495,23.3315269 10.2464264,22.2787039 5.91788169,24.380194 C1.08520095,26.726881 -0.69993636,31.3738477 0.242908151,36.3899951 C1.10173,40.9628486 5.63068946,44.4039173 10.444775,44.4053026 C34.4435769,44.4115365 58.4430676,44.3367306 82.4418695,44.4627923 C87.3268922,44.4884202 91.0858735,41.0217235 91.7167322,37.5855033 C92.4605394,33.5397539 91.1451026,29.1712312 86.2042943,27.0939838 C85.4666855,26.783678 84.8681962,25.6442742 84.6044201,24.7680762 C83.2724542,20.3365226 80.4508078,17.4606535 76.0547694,16.1896468 C71.5712648,14.8923196 66.6518066,16.5449746 63.7984795,20.3683843 C62.8418608,21.651166 62.1283568,22.2835525 60.3067179,21.6857984 C57.3135825,20.7029327 53.6751256,22.7032964 52.3466033,25.6186463 C51.9767658,26.4297356 51.7198768,27.2920807 51.3548603,28.2825655" id="Fill-3" fill="#C6ECF4"></path>
                <path d="M58.4655884,57.0950057 L55.8719051,74.1666688 C55.8719051,74.1666688 59.7231735,77.6444479 59.7231735,77.5260053 C59.7231735,77.5225421 59.7231735,77.50107 59.7231735,77.4636671 L59.7231735,77.5260053 C59.7231735,77.6444479 63.5737533,74.1666688 63.5737533,74.1666688 L60.9807587,57.0950057 L58.4655884,57.0950057 Z" id="Fill-5" fill="#FEBE1C"></path>
                <polygon id="Fill-7" fill="#FEBE1C" points="58.3502294 56.1372138 61.0961177 56.1372138 61.5286278 53.6582313 59.7627744 54.0717414 57.9177193 53.6582313"></polygon>
                <path d="M75.0823792,93.143803 C75.0823792,93.143803 75.729767,97.6127595 71.1808349,100.81625 L69.2166329,95.2972416 L75.0823792,93.143803 Z" id="Fill-9" fill="#DDC2B8"></path>
                <path d="M44.6035702,93.143803 C44.6035702,93.143803 43.9561825,97.6127595 48.5051145,100.81625 L50.4700052,95.2972416 L44.6035702,93.143803 Z" id="Fill-11" fill="#DDC2B8"></path>
                <path d="M65.0291361,53.2245652 L72.9809861,55.7707345 C72.9809861,55.7707345 75.8260487,56.8027781 75.6180582,60.3380468 L76.1029103,93.4562559 L71.6214718,94.9218963 L67.3728175,140.073457 L61.6592762,140.073457 L59.3155947,102.583954 L59.3155947,75.6206035 L65.0291361,53.2245652 Z" id="Fill-13" fill="#231F1F"></path>
                <path d="M54.4254756,53.2245652 L46.4743142,55.7707345 C46.4743142,55.7707345 43.5528048,57.1414823 43.8365535,60.3380468 L43.3131336,93.4562559 L47.8331398,94.9218963 L52.0817941,140.073457 L57.7953355,140.073457 L60.1390169,102.583954 L60.1390169,75.6206035 L54.4254756,53.2245652 Z" id="Fill-15" fill="#231F1F"></path>
                <path d="M67.2624172,44.6429497 C67.0805977,45.5738669 66.4779761,46.2381151 65.9159884,46.1272916 C65.3540007,46.0157755 65.0447698,45.1721318 65.2265893,44.2412146 C65.4084089,43.3102975 66.0110305,42.6460493 66.5730181,42.7568728 C67.1350058,42.8676962 67.4442368,43.7120326 67.2624172,44.6429497" id="Fill-17" fill="#DDC2B8"></path>
                <path d="M52.4649237,44.6429497 C52.6467433,45.5738669 53.2493648,46.2381151 53.8120412,46.1272916 C54.3733402,46.0157755 54.6825711,45.1721318 54.5007516,44.2412146 C54.3189321,43.3102975 53.7163105,42.6460493 53.1543228,42.7568728 C52.5923351,42.8676962 52.2837929,43.7120326 52.4649237,44.6429497" id="Fill-19" fill="#DDC2B8"></path>
                <path d="M66.2562802,43.246851 C66.2562802,48.1237764 63.3313272,52.0780964 59.7231735,52.0780964 C56.1150199,52.0780964 53.1900669,48.1237764 53.1900669,43.246851 C53.1900669,38.369233 56.1150199,34.4156057 59.7231735,34.4156057 C63.3313272,34.4156057 66.2562802,38.369233 66.2562802,43.246851" id="Fill-21" fill="#DDC2B8"></path>
                <path d="M65.0126759,35.4585931 C65.6035894,34.9855154 65.9348591,34.3933024 65.9348591,34.3933024 C65.0271388,34.9363374 64.1090879,34.8580684 63.3769887,34.6135641 C63.4541243,34.2513099 63.528505,33.900138 63.6166599,33.48455 C63.2543983,33.541347 62.9796028,33.6092264 62.7027413,33.6223867 C61.716508,33.668794 60.729586,33.7242057 59.7433528,33.7235131 C58.8122163,33.7228204 57.9058735,33.7990116 57.0539387,34.2111364 C56.2784508,34.5865509 55.6820276,35.1462094 55.2825756,35.9178178 C55.2398756,36.0009354 55.1510319,36.0951354 55.0670093,36.1166074 C52.9216764,36.6686468 52.5842084,37.9729006 52.5201583,39.4233027 C52.4719486,40.5162992 52.7267714,41.5746634 52.9361394,42.6357981 C52.9471587,42.6898246 52.9760846,42.7604745 53.0187846,42.7840245 C53.6324256,43.1268846 53.7784322,43.7530372 53.964384,44.3535619 L54.0091501,44.8772028 L54.2550197,44.8993675 L54.0697566,42.3628953 C54.0986825,41.7249677 54.1289857,41.0551784 54.1586003,40.5523169 C54.1820164,40.1450406 54.3039182,39.7405349 54.406536,39.3408778 C54.5752701,38.6870193 55.0346399,38.3746356 55.6785841,38.2922107 C56.5133011,38.1848505 57.3287342,38.2721239 58.0945801,38.6163693 C58.8342551,38.9495324 60.5071326,38.8643369 61.1848236,38.4764547 C61.4052109,38.350393 61.6242208,38.2139416 61.8198146,38.0518623 C62.3645845,37.6009493 61.9885486,37.530992 62.6318041,37.7443272 C64.1338814,38.2416475 64.9658436,39.3138646 65.26681,40.8563888 C65.3625408,41.3516311 65.4086844,41.8475662 65.4293457,42.3441939 L65.2420164,44.8993675 L65.4885748,44.8772028 L65.5326522,44.3535619 L65.6869233,43.7876696 C65.839817,43.3935536 66.0305898,43.0264509 66.4190225,42.7999554 C66.4761854,42.7667083 66.5209516,42.675279 66.5305936,42.6053217 C66.6752227,41.5843604 66.9059407,40.5640919 66.9321117,39.5396674 C66.9761892,37.7893492 66.2812804,36.3818911 65.0126759,35.4585931" id="Fill-23" fill="#000000"></path>
                <g id="Group-27" transform="translate(61.295224, 139.456793)">
                    <mask id="mask-2" fill="white">
                        <use xlink:href="#path-1"></use>
                    </mask>
                    <g id="Clip-26"></g>
                    <path d="M12.3475441,4.15615724 C12.2063584,1.91821576 8.59269506,0.124953464 4.143626,0.124953464 C2.76827137,0.124953464 1.47349586,0.297422491 0.33574631,0.599416451 L0.33574631,4.15615724 L12.3475441,4.15615724 Z" id="Fill-25" fill="#000000" mask="url(#mask-2)"></path>
                </g>
                <g id="Group-30" transform="translate(45.454885, 139.456793)">
                    <mask id="mask-4" fill="white">
                        <use xlink:href="#path-3"></use>
                    </mask>
                    <g id="Clip-29"></g>
                    <path d="M0.322660813,4.15615724 C0.463846441,1.91821576 4.07750981,0.124953464 8.52657887,0.124953464 C9.9019335,0.124953464 11.196709,0.297422491 12.3344586,0.599416451 L12.3344586,4.15615724 L0.322660813,4.15615724 Z" id="Fill-28" fill="#000000" mask="url(#mask-4)"></path>
                </g>
                <path d="M47.1556554,100.691158 L47.1556554,98.6499287 C47.1556554,98.0341657 46.6542742,97.5306116 46.0420107,97.5306116 C45.4297472,97.5306116 44.9290547,98.0341657 44.9290547,98.6499287 L44.9290547,100.691158 L42.243773,100.691158 L42.243773,122.032988 L49.8409372,122.032988 L49.8409372,100.691158 L47.1556554,100.691158 Z" id="Fill-31" fill="#594A42"></path>
                <path d="M58.2523637,48.9205972 C58.2523637,48.9205972 59.823312,49.6693483 61.7248414,48.338774" id="Stroke-33" stroke="#9B7A73" stroke-width="0.5"></path>
                <g id="Group-37" transform="translate(88.154929, 17.550975)">
                    <mask id="mask-6" fill="white">
                        <use xlink:href="#path-5"></use>
                    </mask>
                    <g id="Clip-36"></g>
                    <path d="M50.2988607,25.7986652 C50.2988607,39.7201711 39.0777025,51.0061564 25.2346238,51.0061564 C11.3922339,51.0061564 0.171075659,39.7201711 0.171075659,25.7986652 C0.171075659,11.8764666 11.3922339,0.591173955 25.2346238,0.591173955 C39.0777025,0.591173955 50.2988607,11.8764666 50.2988607,25.7986652" id="Fill-35" fill="#13B2F3" mask="url(#mask-6)"></path>
                </g>
                <mask id="mask-8" fill="white">
                    <use xlink:href="#path-7"></use>
                </mask>
                <g id="Clip-39"></g>
                <polygon id="Fill-38" fill="#EDD000" mask="url(#mask-8)" points="117.662036 47.6873397 124.379717 47.6873397 124.379717 43.908952 117.662036 43.908952"></polygon>
                <polygon id="Fill-40" fill="#FFFFFF" mask="url(#mask-8)" points="124.701138 42.0942177 101.862125 42.0942177 105.07978 33.4409825 122.198365 33.4409825"></polygon>
                <polygon id="Fill-41" fill="#EDD000" mask="url(#mask-8)" points="102.679142 47.6873397 109.397512 47.6873397 109.397512 43.908952 102.679142 43.908952"></polygon>
                <polygon id="Fill-42" fill="#000000" mask="url(#mask-8)" points="102.190915 54.8182067 106.000172 54.8182067 106.400313 51.686751 102.190915 51.686751"></polygon>
                <polygon id="Fill-43" fill="#000000" mask="url(#mask-8)" points="121.071635 54.8182067 124.880892 54.8182067 124.880892 51.686751 120.767913 51.686751"></polygon>
                <polygon id="Fill-44" fill="#4B4B4B" mask="url(#mask-8)" points="106.400864 51.6864047 106.400864 51.6864047 120.767362 51.6864047"></polygon>
                <path d="M123.658293,47.6083088 L118.344204,47.6083088 L118.344204,44.3404016 L124.019177,44.3404016 L123.658293,47.6083088 Z M103.235276,41.4347488 L105.607194,34.1626511 C105.664357,33.9846409 105.716699,33.8204836 105.970144,33.8121719 L121.045326,33.8121719 C121.285686,33.8274101 121.33665,33.9881041 121.37453,34.1065467 L123.765043,41.4354414 C120.488848,41.3100723 117.045985,41.2428856 113.488107,41.2428856 C109.939871,41.2428856 106.504584,41.3100723 103.235276,41.4347488 L103.235276,41.4347488 Z M108.875814,47.6083088 L103.561724,47.6083088 L103.20084,44.3404016 L108.875814,44.3404016 L108.875814,47.6083088 Z M124.889019,51.6866125 L125.899357,43.6997034 L128.435877,43.4150257 L128.435877,40.1769024 L125.383513,40.5398492 L122.990244,33.6168455 C122.493684,32.117958 121.044637,32.2010756 121.044637,32.2010756 L118.265002,32.2010756 L117.691995,29.3702286 L109.498408,29.3702286 L108.925401,32.2010756 L106.055545,32.2010756 C106.055545,32.2010756 104.606498,32.117958 104.109938,33.6168455 L101.700829,40.5848713 L98.3433657,40.1769024 L98.3433657,43.4150257 L101.207023,43.749574 L102.191191,51.5266111 L102.191191,51.6866125 L106.400588,51.6866125 L106.400588,51.6866125 L120.767776,51.6866125 L124.880754,51.6866125 L124.889019,51.6866125 Z" id="Fill-45" fill="#626262" mask="url(#mask-8)"></path>
                <path d="M118.195029,37.4919267 C116.438129,37.4919267 114.983573,38.7788643 114.704645,40.4668443 C115.080681,40.4682296 115.457405,40.4696148 115.830686,40.4723854 C116.093085,39.4001683 117.049704,38.6001614 118.195029,38.6001614 C119.369969,38.6001614 120.352759,39.4396492 120.584166,40.5527324 C120.958135,40.5624295 121.333482,40.5714339 121.70332,40.5825163 C121.473291,38.8384319 119.991875,37.4919267 118.195029,37.4919267" id="Fill-46" fill="#4B4B4B" mask="url(#mask-8)"></path>
                <polygon id="Fill-47" fill="#13B2F3" mask="url(#mask-8)" points="93.2101318 46.7222058 75.7354833 42.7214785 94.774193 36.3851465"></polygon>
            </g>
        </g>
    </g>
</svg>