<?xml version="1.0" encoding="UTF-8" standalone="no"?>
<svg width="151px" height="137px" viewBox="0 0 151 137" version="1.1" xmlns="http://www.w3.org/2000/svg" xmlns:xlink="http://www.w3.org/1999/xlink">
    <!-- Generator: Sketch 44.1 (41455) - http://www.bohemiancoding.com/sketch -->
    <title>Page 1 Copy 3</title>
    <desc>Created with Sketch.</desc>
    <defs>
        <path d="M110.067187,0.0370420849 C115.001403,8.63476532 117.822531,18.5988003 117.822531,29.2214262 C117.822531,61.661791 91.512858,87.9596148 59.0584383,87.9596148 C26.6040185,87.9596148 0.293783951,61.661791 0.293783951,29.2214262 C0.293783951,18.5988003 3.11497222,8.63476532 8.04926955,0.0370420849 L110.067195,0.037057377 L110.067187,0.0370420849 Z" id="path-1"></path>
        <polygon id="path-3" points="0 136.438525 181.604543 136.438525 181.604543 0.135877049 0 0.135877049"></polygon>
    </defs>
    <g id="Page-1" stroke="none" stroke-width="1" fill="none" fill-rule="evenodd">
        <g id="About-Us" transform="translate(-329.000000, -1301.000000)">
            <g id="Page-1-Copy-3" transform="translate(298.000000, 1301.000000)">
                <path d="M159.33308,75.6303447 C159.33308,108.039267 133.049246,134.311263 100.626283,134.311263 C68.2033204,134.311263 41.919487,108.039267 41.919487,75.6303447 C41.919487,43.221984 68.2033204,16.9499881 100.626283,16.9499881 C133.049246,16.9499881 159.33308,43.221984 159.33308,75.6303447" id="Fill-1" fill="#C6ECF4"></path>
                <g id="Group-6" transform="translate(41.567901, 46.466582)">
                    <mask id="mask-2" fill="white">
                        <use xlink:href="#path-1"></use>
                    </mask>
                    <g id="Clip-4"></g>
                    <path d="M75.2940741,19.0182951 L78.2425864,19.0182951 L78.2425864,13.5321189 L75.2940741,13.5321189 L75.2940741,19.0182951 Z M75.2862099,27.6543484 L78.2824691,27.6543484 L78.2824691,22.2001762 L75.2862099,22.2001762 L75.2862099,27.6543484 Z M118.108451,62.1704877 L121.18279,62.1704877 L121.18279,56.741582 L118.108451,56.741582 L118.108451,62.1704877 Z M110.662741,71.9598115 L113.630352,71.9598115 L113.630352,66.4629672 L110.662741,66.4629672 L110.662741,71.9598115 Z M75.0104012,10.8870082 L78.0751914,10.8870082 L78.0751914,5.45866393 L75.0104012,5.45866393 L75.0104012,10.8870082 Z M105.936358,52.8455041 L108.953401,52.8455041 L108.953401,47.3739262 L105.936358,47.3739262 L105.936358,52.8455041 Z M118.11463,52.8528033 L121.178296,52.8528033 L121.178296,47.3660656 L118.11463,47.3660656 L118.11463,52.8528033 Z M64.9841111,19.0121189 L68.0062099,19.0121189 L68.0062099,13.5057295 L64.9841111,13.5057295 L64.9841111,19.0121189 Z M64.3729506,44.5092787 L67.4607716,44.5092787 L67.4607716,39.0292787 L64.3729506,39.0292787 L64.3729506,44.5092787 Z M105.961636,44.4744672 L108.948346,44.4744672 L108.948346,39.011873 L105.961636,39.011873 L105.961636,44.4744672 Z M118.109574,44.455377 L121.164815,44.455377 L121.164815,39.021418 L118.109574,39.021418 L118.109574,44.455377 Z M105.968377,36.0253852 L108.976994,36.0253852 L108.976994,30.5341557 L105.968377,30.5341557 L105.968377,36.0253852 Z M118.128111,36.031 L121.167062,36.031 L121.167062,30.5515615 L118.128111,30.5515615 L118.128111,36.031 Z M105.951525,62.6629016 L108.962951,62.6629016 L108.962951,57.1772869 L105.951525,57.1772869 L105.951525,62.6629016 Z M74.4497963,64.7004959 L77.4494259,64.7004959 L77.4494259,59.2294795 L74.4497963,59.2294795 L74.4497963,64.7004959 Z M64.1269136,64.6741066 L67.1383395,64.6741066 L67.1383395,59.2272336 L64.1269136,59.2272336 L64.1269136,64.6741066 Z M53.3203827,64.6645615 L56.3969691,64.6645615 L56.3969691,59.2216189 L53.3203827,59.2216189 L53.3203827,64.6645615 Z M43.107037,64.6797213 L46.1128457,64.6797213 L46.1128457,59.2221803 L43.107037,59.2221803 L43.107037,64.6797213 Z M64.7465,10.9167664 L67.7871358,10.9167664 L67.7871358,5.46090984 L64.7465,5.46090984 L64.7465,10.9167664 Z M64.9655741,27.6571557 L68.0253086,27.6571557 L68.0253086,22.1726639 L64.9655741,22.1726639 L64.9655741,27.6571557 Z M105.95321,27.6425574 L108.992722,27.6425574 L108.992722,22.1451516 L105.95321,22.1451516 L105.95321,27.6425574 Z M118.128111,27.6178525 L121.162568,27.6178525 L121.162568,22.1204467 L118.128111,22.1204467 L118.128111,27.6178525 Z M114.410593,71.971041 L117.432691,71.971041 L117.432691,66.4657746 L114.410593,66.4657746 L114.410593,71.971041 Z M105.958265,18.3254344 L108.978117,18.3254344 L108.978117,12.8005164 L105.958265,12.8005164 L105.958265,18.3254344 Z M64.1269136,54.0217951 L67.1344074,54.0217951 L67.1344074,48.5227049 L64.1269136,48.5227049 L64.1269136,54.0217951 Z M43.1053519,54.0324631 L46.0971173,54.0324631 L46.0971173,48.5170902 L43.1053519,48.5170902 L43.1053519,54.0324631 Z M53.3299321,54.0369549 L56.4042716,54.0369549 L56.4042716,48.5266352 L53.3299321,48.5266352 L53.3299321,54.0369549 Z M74.4475494,54.0481844 L77.4527963,54.0481844 L77.4527963,48.5182131 L74.4475494,48.5182131 L74.4475494,54.0481844 Z M118.124179,18.3400328 L121.187846,18.3400328 L121.187846,12.7881639 L118.124179,12.7881639 L118.124179,18.3400328 Z M89.2114568,49.8039918 L92.5559877,49.8039918 L92.5559877,44.4009139 L89.2114568,44.4009139 L89.2114568,49.8039918 Z M74.6761728,44.5294918 L77.7404012,44.5294918 L77.7404012,39.043877 L74.6761728,39.043877 L74.6761728,44.5294918 Z M89.2114568,40.9792828 L92.5099259,40.9792828 L92.5099259,35.484123 L89.2114568,35.484123 L89.2114568,40.9792828 Z M89.2035926,67.5769344 L92.5340802,67.5769344 L92.5340802,62.0688607 L89.2035926,62.0688607 L89.2035926,67.5769344 Z M89.1974136,58.7022541 L92.5396975,58.7022541 L92.5396975,53.1868811 L89.1974136,53.1868811 L89.1974136,58.7022541 Z M38.147537,25.4303443 L41.5212778,25.4303443 L41.5212778,19.9458525 L38.147537,19.9458525 L38.147537,25.4303443 Z M38.1492222,34.2966025 L41.5038642,34.2966025 L41.5038642,28.8317623 L38.1492222,28.8317623 L38.1492222,34.2966025 Z M38.1295617,43.2094631 L41.5066728,43.2094631 L41.5066728,37.7165492 L38.1295617,37.7165492 L38.1295617,43.2094631 Z M-18.5477099,56.4176107 L-14.9262469,56.4176107 L-14.9262469,50.8556352 L-18.5477099,50.8556352 L-18.5477099,56.4176107 Z M-5.94196296,65.2945369 L-2.36094444,65.2945369 L-2.36094444,59.7881475 L-5.94196296,59.7881475 L-5.94196296,65.2945369 Z M-18.5375988,65.2209836 L-14.9189444,65.2209836 L-14.9189444,59.7864631 L-18.5375988,59.7864631 L-18.5375988,65.2209836 Z M-5.94926543,56.3923443 L-2.35195679,56.3923443 L-2.35195679,50.8994303 L-5.94926543,50.8994303 L-5.94926543,56.3923443 Z M-5.94364815,47.9814426 L-2.33398148,47.9814426 L-2.33398148,42.5171639 L-5.94364815,42.5171639 L-5.94364815,47.9814426 Z M-12.2181543,56.4148033 L-8.57141358,56.4148033 L-8.57141358,50.8707951 L-12.2181543,50.8707951 L-12.2181543,56.4148033 Z M-12.2389383,65.2187377 L-8.56354938,65.2187377 L-8.56354938,59.7684959 L-12.2389383,59.7684959 L-12.2389383,65.2187377 Z M-18.5387222,47.9904262 L-14.9470309,47.9904262 L-14.9470309,42.4200287 L-18.5387222,42.4200287 L-18.5387222,47.9904262 Z M-12.2423086,47.9926721 L-8.58601852,47.9926721 L-8.58601852,42.4419262 L-12.2423086,42.4419262 L-12.2423086,47.9926721 Z M0.44095679,56.4170492 L4.09724691,56.4170492 L4.09724691,50.8736025 L0.44095679,50.8736025 L0.44095679,56.4170492 Z M0.444888889,65.2479344 L4.10791975,65.2479344 L4.10791975,59.7656885 L0.444888889,59.7656885 L0.444888889,65.2479344 Z M0.453876543,47.9926721 L4.08432716,47.9926721 L4.08432716,42.4155369 L0.453876543,42.4155369 L0.453876543,47.9926721 Z M12.9225617,71.1484795 L17.4416667,71.1484795 L17.4416667,64.3422746 L12.9225617,64.3422746 L12.9225617,71.1484795 Z M-30.4934259,60.3490615 L-22.0776111,60.3490615 L-22.0776111,39.3824467 L7.1356358,39.3824467 L7.1356358,58.1952418 L20.1531296,58.1952418 L20.1531296,46.5491189 L35.4933704,46.5491189 L35.4933704,16.1412951 L55.5094383,16.1412951 L55.5094383,43.5699303 L60.8879877,43.5699303 L60.8879877,0.037057377 L81.6241914,0.037057377 L81.6241914,40.0202828 L87.7284938,40.0202828 L87.7284938,33.5380492 L92.3329815,33.5380492 L92.3329815,20.44725 L94.5815802,20.44725 L94.5815802,12.5209016 C94.6141605,12.5209016 94.646179,12.5203402 94.6787593,12.5203402 C94.7854877,15.1581516 94.8927778,17.7959631 95.0034383,20.5297869 L97.7109691,20.5297869 L97.7109691,37.858041 L103.033346,37.858041 L103.033346,9.62593443 L124.585741,9.62593443 L124.585741,32.7514221 L129.173377,32.7514221 L129.173377,22.7296475 L133.688549,22.7296475 L133.688549,72.0434713 C75.2356543,72.1552049 16.853537,72.2658156 -41.5679012,72.3769877 L-41.5679012,60.4349672 L-37.5026728,60.4349672 L-37.5026728,50.2177992 L-41.5667778,50.2177992 L-41.5667778,43.6726803 L-37.5082901,43.6726803 L-37.5082901,33.5498402 L-41.5656543,33.5498402 L-41.5656543,25.5089508 L-39.4350185,25.5089508 L-39.4350185,14.7898238 C-39.3552531,14.7903852 -39.2749259,14.7909467 -39.1945988,14.7920697 L-39.1945988,25.5482541 L-35.8618642,25.5482541 L-35.8618642,31.3780533 L-30.4934259,31.3780533 L-30.4934259,60.3490615 Z" id="Fill-3" fill="#AAC7CC" mask="url(#mask-2)"></path>
                    <polygon id="Fill-5" fill="#8D8D8D" mask="url(#mask-2)" points="14.9386049 89.7894631 102.91763 89.7894631 102.91763 72.2506557 14.9386049 72.2506557"></polygon>
                </g>
                <g id="Group-51" transform="translate(0.000000, 0.425598)">
                    <path d="M131.641106,34.5443816 C133.759945,33.6218775 135.869797,33.4893693 137.922352,34.8683529 C138.352636,34.3439348 138.720569,33.8133406 139.168828,33.3630373 C141.13263,31.3945045 144.01542,31.3293734 146.030902,33.2692709 C146.630266,33.8464676 147.155482,34.0469143 147.981223,33.884648 C149.475982,33.5915578 150.890976,34.066566 151.662229,35.3276398 C152.266087,36.315275 152.900278,36.6796725 153.963069,36.6201561 C154.322013,36.599943 154.689945,36.7285209 155.069673,36.7914061 C155.693192,35.7403242 156.191445,34.625234 156.931803,33.7049758 C159.308476,30.7544225 163.30068,29.9481439 166.633976,31.5573324 C170.355988,33.3529307 171.730538,36.9098775 171.005346,40.7498078 C170.34363,44.249484 166.855297,46.8839266 163.14789,46.8850496 C144.66534,46.8889799 126.182229,46.8322709 107.69968,46.9288447 C103.937223,46.9484963 101.042636,44.294402 100.55618,41.6650127 C99.9837784,38.5679143 100.997136,35.2243283 104.802285,33.6342299 C105.370192,33.3967258 105.830809,32.5247545 106.034155,31.8537914 C107.059871,28.4619184 109.233198,26.2609348 112.618735,25.287898 C116.07168,24.294648 119.860538,25.559652 122.057457,28.4866234 C122.794445,29.4680824 123.343815,29.9520742 124.747575,29.4944717 C127.052346,28.7426561 129.854248,30.2737996 130.877717,32.5051029 C131.161951,33.1260947 131.360241,33.7858283 131.641106,34.5443816 Z" id="Fill-7" fill="#EBF8F9"></path>
                    <path d="M60.8687765,39.8147828 C59.3801963,39.1674016 57.8972333,39.0741967 56.4558383,40.0427418 C56.1530667,39.6744139 55.8946716,39.3015943 55.579542,38.9849221 C54.1993753,37.6020082 52.1737827,37.5565287 50.7582272,38.9192295 C50.3369309,39.3246148 49.9678753,39.4655451 49.3876099,39.3515656 C48.3377395,39.1460656 47.3429185,39.479582 46.8014123,40.3650287 C46.3767457,41.0595738 45.9312951,41.3156066 45.184758,41.2740574 C44.9319802,41.259459 44.6735852,41.3498566 44.4073259,41.3942131 C43.968616,40.6553115 43.619221,39.8720533 43.0984988,39.2252336 C41.429042,37.1522664 38.6237704,36.5857377 36.281363,37.7165492 C33.6659556,38.9781844 32.7003444,41.4773115 33.2103938,44.1752008 C33.6749432,46.6344631 36.1257642,48.4850861 38.7304988,48.4856475 C51.7176593,48.4890164 64.7048198,48.4491516 77.6908568,48.5170902 C80.3343506,48.5305656 82.3683691,46.6659057 82.7104617,44.8180902 C83.1126593,42.6418115 82.4009494,40.2931598 79.7271222,39.1752623 C79.3277333,39.0085041 79.0041778,38.3964959 78.8614988,37.9248566 C78.1408012,35.5419549 76.6134617,33.9950902 74.234542,33.3112131 C71.808437,32.6132992 69.1464062,33.5021148 67.6027765,35.5587992 C67.084863,36.248291 66.6989556,36.5885451 65.7131222,36.2668197 C64.0930975,35.7384713 62.1242395,36.8142582 61.4057889,38.382459 C61.2058136,38.8187254 61.0665049,39.2825041 60.8687765,39.8147828" id="Fill-9" fill="#EBF8F9"></path>
                    <mask id="mask-4" fill="white">
                        <use xlink:href="#path-3"></use>
                    </mask>
                    <g id="Clip-12"></g>
                    <polygon id="Fill-11" fill="#FFFFFF" mask="url(#mask-4)" points="80.4844444 123.755918 121.924833 123.755918 121.924833 57.8005246 80.4844444 57.8005246"></polygon>
                    <polygon id="Fill-13" fill="#FFFFFF" mask="url(#mask-4)" points="93.5435062 55.3463156 109.615679 55.3463156 109.615679 45.2914139 93.5435062 45.2914139"></polygon>
                    <path d="M121.394449,122.269973 L80.9949432,122.269973 L80.9949432,58.8215676 L121.414672,58.8215676 L121.414672,122.269973 L121.394449,122.269973 Z M101.204807,133.632551 C98.9191346,133.632551 97.0541963,131.769014 97.0541963,129.484932 C97.0541963,127.199727 98.9191346,125.336191 101.204807,125.336191 C103.489919,125.336191 105.354857,127.199727 105.354857,129.484932 C105.334635,131.769014 103.470258,133.632551 101.204807,133.632551 L101.204807,133.632551 Z M97.0541963,52.7694242 C97.0541963,52.328666 97.4153877,51.9676373 97.8563444,51.9676373 L104.512826,51.9676373 C104.953783,51.9676373 105.314974,52.328666 105.314974,52.7694242 L105.314974,52.8693668 C105.314974,53.3106865 104.953783,53.6711537 104.512826,53.6711537 L97.8563444,53.6711537 C97.4153877,53.6711537 97.0541963,53.3106865 97.0541963,52.8693668 L97.0541963,52.7694242 Z M101.204807,48.2804283 C101.685647,48.2804283 102.066499,48.6605471 102.066499,49.1417316 C102.066499,49.622916 101.685647,50.0035963 101.204807,50.0035963 C100.723406,50.0035963 100.342554,49.622916 100.342554,49.1417316 C100.322332,48.6605471 100.723406,48.2804283 101.204807,48.2804283 L101.204807,48.2804283 Z M117.524702,44.3725594 L116.642789,44.3725594 L116.642789,43.8711619 L108.883635,43.8711619 L108.883635,44.3725594 L84.6237086,44.3725594 C80.774184,44.3725594 77.626258,47.7593791 77.626258,51.9075594 L77.626258,53.4504939 L77.626258,58.1197234 L76.904437,58.1197234 L76.904437,62.5087766 L77.626258,62.5087766 L77.626258,63.8916906 L77.626258,67.5794611 L77.0252086,67.5794611 L77.0252086,71.0257971 L77.626258,71.0257971 L77.626258,72.6894488 L77.626258,75.7753176 L77.0252086,75.7753176 L77.0252086,79.2227766 L77.626258,79.2227766 L77.626258,128.923457 C77.626258,133.071637 80.774184,136.438244 84.6237086,136.438244 L117.544925,136.438244 C121.394449,136.438244 124.542375,133.051424 124.542375,128.923457 L124.542375,51.9075594 C124.542375,47.7790307 121.374227,44.3725594 117.524702,44.3725594 L117.524702,44.3725594 Z" id="Fill-14" fill="#231F1F" mask="url(#mask-4)"></path>
                    <polygon id="Fill-15" fill="#BFBFBF" mask="url(#mask-4)" points="83.7834753 65.2535492 110.438611 65.2535492 110.438611 64.1968525 83.7834753 64.1968525"></polygon>
                    <path d="M118.551261,64.7253131 C118.551261,66.1537066 117.392415,67.3114689 115.96394,67.3114689 C114.534341,67.3114689 113.376057,66.1537066 113.376057,64.7253131 C113.376057,63.2963582 114.534341,62.1385959 115.96394,62.1385959 C117.392415,62.1385959 118.551261,63.2963582 118.551261,64.7253131" id="Fill-16" fill="#01BF00" mask="url(#mask-4)"></path>
                    <polygon id="Fill-17" fill="#FFFFFF" mask="url(#mask-4)" points="117.525714 64.008702 117.119022 63.6021939 115.686615 65.0350791 114.808072 64.157493 114.40138 64.5628783 115.279923 65.4410258 115.279362 65.4415873 115.686053 65.847534 115.686615 65.8469725 115.686615 65.847534 116.093306 65.4415873 116.092744 65.4410258"></polygon>
                    <polygon id="Fill-18" fill="#BFBFBF" mask="url(#mask-4)" points="83.7834753 73.6200943 110.438611 73.6200943 110.438611 72.5633975 83.7834753 72.5633975"></polygon>
                    <path d="M118.551261,73.0915213 C118.551261,74.5204762 117.392415,75.6782385 115.96394,75.6782385 C114.534341,75.6782385 113.376057,74.5204762 113.376057,73.0915213 C113.376057,71.6631279 114.534341,70.5053656 115.96394,70.5053656 C117.392415,70.5053656 118.551261,71.6631279 118.551261,73.0915213" id="Fill-19" fill="#01BF00" mask="url(#mask-4)"></path>
                    <polygon id="Fill-20" fill="#FFFFFF" mask="url(#mask-4)" points="117.525714 72.3754156 117.119022 71.9689074 115.686615 73.4012311 114.808072 72.5236451 114.40138 72.9295918 115.279923 73.8077393 115.279362 73.8083008 115.686053 74.2142475 115.686615 74.2136861 115.686615 74.2142475 116.093306 73.8083008 116.092744 73.8077393"></polygon>
                    <polygon id="Fill-21" fill="#BFBFBF" mask="url(#mask-4)" points="83.7834753 81.9860779 110.438611 81.9860779 110.438611 80.9299426 83.7834753 80.9299426"></polygon>
                    <path d="M118.551261,81.458291 C118.551261,82.8866844 117.392415,84.0444467 115.96394,84.0444467 C114.534341,84.0444467 113.376057,82.8866844 113.376057,81.458291 C113.376057,80.0298975 114.534341,78.8721352 115.96394,78.8721352 C117.392415,78.8721352 118.551261,80.0298975 118.551261,81.458291" id="Fill-22" fill="#C6ECF4" mask="url(#mask-4)"></path>
                    <polygon id="Fill-23" fill="#BFBFBF" mask="url(#mask-4)" points="83.7834753 90.3531844 110.438611 90.3531844 110.438611 89.2970492 83.7834753 89.2970492"></polygon>
                    <path d="M118.551261,89.8250045 C118.551261,91.253398 117.392415,92.4111602 115.96394,92.4111602 C114.534341,92.4111602 113.376057,91.253398 113.376057,89.8250045 C113.376057,88.3966111 114.534341,87.2388488 115.96394,87.2388488 C117.392415,87.2388488 118.551261,88.3966111 118.551261,89.8250045" id="Fill-24" fill="#01BF00" mask="url(#mask-4)"></path>
                    <polygon id="Fill-25" fill="#FFFFFF" mask="url(#mask-4)" points="117.525714 89.1083934 117.119022 88.7024467 115.686615 90.1347705 114.808072 89.2571844 114.40138 89.6631311 115.279923 90.5412787 115.279362 90.5412787 115.686053 90.9472254 115.686615 90.9466639 115.686615 90.9472254 116.093306 90.5412787 116.092744 90.5412787"></polygon>
                    <polygon id="Fill-26" fill="#BFBFBF" mask="url(#mask-4)" points="83.7834753 98.7197295 110.438611 98.7197295 110.438611 97.6630328 83.7834753 97.6630328"></polygon>
                    <path d="M118.551261,98.1917742 C118.551261,99.6201676 117.392415,100.77793 115.96394,100.77793 C114.534341,100.77793 113.376057,99.6201676 113.376057,98.1917742 C113.376057,96.7628193 114.534341,95.6056184 115.96394,95.6056184 C117.392415,95.6056184 118.551261,96.7628193 118.551261,98.1917742" id="Fill-27" fill="#C6ECF4" mask="url(#mask-4)"></path>
                    <polygon id="Fill-28" fill="#BFBFBF" mask="url(#mask-4)" points="83.7834753 107.086836 110.438611 107.086836 110.438611 106.030139 83.7834753 106.030139"></polygon>
                    <path d="M118.551261,106.557982 C118.551261,107.986937 117.392415,109.1447 115.96394,109.1447 C114.534341,109.1447 113.376057,107.986937 113.376057,106.557982 C113.376057,105.129589 114.534341,103.971827 115.96394,103.971827 C117.392415,103.971827 118.551261,105.129589 118.551261,106.557982" id="Fill-29" fill="#C6ECF4" mask="url(#mask-4)"></path>
                    <polygon id="Fill-30" fill="#13B2F3" mask="url(#mask-4)" points="83.7834753 119.127676 118.551093 119.127676 118.551093 112.368074 83.7834753 112.368074"></polygon>
                    <path d="M181.604206,23.3230709 C181.604206,36.129202 171.21841,46.5097594 158.40707,46.5097594 C145.595169,46.5097594 135.209373,36.129202 135.209373,23.3230709 C135.209373,10.5169398 145.595169,0.135820902 158.40707,0.135820902 C171.21841,0.135820902 181.604206,10.5169398 181.604206,23.3230709" id="Fill-31" fill="#13B2F3" mask="url(#mask-4)"></path>
                    <polygon id="Fill-32" fill="#13B2F3" mask="url(#mask-4)" points="143.090141 37.6193578 127.420166 43.0555627 139.281623 28.7867881"></polygon>
                    <polygon id="Fill-33" fill="#231F1F" mask="url(#mask-4)" points="172.667838 17.4577865 158.73585 5.9559627 144.803862 17.4577865 158.73585 28.0213848"></polygon>
                    <polygon id="Fill-34" fill="#231F1F" mask="url(#mask-4)" points="144.671912 17.3579561 144.671912 17.5898455 144.803357 17.4578988"></polygon>
                    <polygon id="Fill-35" fill="#231F1F" mask="url(#mask-4)" points="172.799788 17.3579561 172.667781 17.4578988 172.799788 17.5898455"></polygon>
                    <polygon id="Fill-36" fill="#FFFFFF" mask="url(#mask-4)" points="148.762531 32.3089795 169.226296 32.3089795 169.226296 9.48837295 148.762531 9.48837295"></polygon>
                    <polygon id="Fill-37" fill="#231F1F" mask="url(#mask-4)" points="144.803581 17.4577865 144.767069 17.4942824 154.305217 24.6620775"></polygon>
                    <polygon id="Fill-38" fill="#414042" mask="url(#mask-4)" points="172.799788 36.5583377 172.799788 19.1935877 172.799788 17.5900139 172.667781 17.4575057 158.755454 28.0070672 170.134948 36.5583377"></polygon>
                    <polygon id="Fill-39" fill="#231F1F" mask="url(#mask-4)" points="158.755454 28.0067865 154.30488 24.6620775 158.735794 28.0213848"></polygon>
                    <polygon id="Fill-40" fill="#58595B" mask="url(#mask-4)" points="144.671912 19.1937 144.671912 36.55845 170.13506 36.55845 158.755567 28.006618 158.735906 28.0217779 154.304993 24.661909 144.766844 17.4946754 144.671912 17.5901262"></polygon>
                    <path d="M66.3266981,33.2394004 C66.3266981,42.827716 58.5501302,50.6007816 48.9580562,50.6007816 C39.3648586,50.6007816 31.5888525,42.827716 31.5888525,33.2394004 C31.5888525,23.6516463 39.3648586,15.8785807 48.9580562,15.8785807 C58.5501302,15.8785807 66.3266981,23.6516463 66.3266981,33.2394004" id="Fill-41" fill="#13B2F3" mask="url(#mask-4)"></path>
                    <polygon id="Fill-42" fill="#13B2F3" mask="url(#mask-4)" points="60.2450895 43.9441537 71.9779105 48.0142889 63.0964228 37.3305348"></polygon>
                    <polygon id="Fill-43" fill="#231F1F" mask="url(#mask-4)" points="59.6356142 28.8479328 49.2037562 20.2354615 38.7718981 28.8479328 49.2037562 36.7579984"></polygon>
                    <polygon id="Fill-44" fill="#231F1F" mask="url(#mask-4)" points="38.6736519 28.7733689 38.6736519 28.9468648 38.7719543 28.8480451"></polygon>
                    <polygon id="Fill-45" fill="#231F1F" mask="url(#mask-4)" points="59.734366 28.7733689 59.6355019 28.8480451 59.734366 28.9468648"></polygon>
                    <polygon id="Fill-46" fill="#FFFFFF" mask="url(#mask-4)" points="41.7364198 39.9675041 57.0586852 39.9675041 57.0586852 22.8806844 41.7364198 22.8806844"></polygon>
                    <polygon id="Fill-47" fill="#231F1F" mask="url(#mask-4)" points="38.7721228 28.8479328 38.7451599 28.8754451 45.886413 34.242027"></polygon>
                    <polygon id="Fill-48" fill="#414042" mask="url(#mask-4)" points="59.734366 43.149666 59.734366 30.1481414 59.734366 28.946584 59.6355019 28.8477643 49.2188105 36.7466004 57.7391068 43.149666"></polygon>
                    <polygon id="Fill-49" fill="#231F1F" mask="url(#mask-4)" points="49.2186981 36.746432 45.8859636 34.2422516 49.2040932 36.758223"></polygon>
                    <polygon id="Fill-50" fill="#58595B" mask="url(#mask-4)" points="38.6736519 30.147973 38.6736519 43.1494975 57.7387136 43.1494975 49.2184173 36.746432 49.2038123 36.7576615 45.8862444 34.2422516 38.7449914 28.8751082 38.6736519 28.9464156"></polygon>
                </g>
            </g>
        </g>
    </g>
</svg>