<?xml version="1.0" encoding="UTF-8" standalone="no"?>
<svg width="154px" height="144px" viewBox="0 0 154 144" version="1.1" xmlns="http://www.w3.org/2000/svg" xmlns:xlink="http://www.w3.org/1999/xlink">
    <!-- Generator: Sketch 44.1 (41455) - http://www.bohemiancoding.com/sketch -->
    <title>Page 1 Copy 4</title>
    <desc>Created with Sketch.</desc>
    <defs>
        <polygon id="path-1" points="7.47607748e-15 29.177 7.47607748e-15 0.00125296052 94.284164 0.00125296052 94.284164 29.177"></polygon>
        <polygon id="path-3" points="7.18006066 6.91703057 0.402798361 6.91703057 0.402798361 0.164876856 7.18006066 0.164876856 7.18006066 6.91703057"></polygon>
        <polygon id="path-5" points="0 143.693764 153.614369 143.693764 153.614369 0 0 0"></polygon>
    </defs>
    <g id="Page-1" stroke="none" stroke-width="1" fill="none" fill-rule="evenodd">
        <g id="About-Us" transform="translate(-660.000000, -1294.000000)">
            <g id="Page-1-Copy-4" transform="translate(660.000000, 1294.000000)">
                <path d="M153.614243,57.7468926 C153.614243,66.7327441 147.129202,74.2056524 138.568316,75.7852507 L138.568316,75.8569362 L138.163751,75.8569362 C137.196833,76.0128838 136.206562,76.0977747 135.195464,76.0977747 C134.184997,76.0977747 133.194095,76.0128838 132.227808,75.8569362 L55.3540377,75.8569362 C54.303177,76.0147703 53.2277016,76.0977747 52.1320295,76.0977747 C40.2790787,76.0977747 30.6698574,66.5233467 30.6698574,54.7140891 C30.6698574,42.9042026 40.2790787,33.3297747 52.1320295,33.3297747 C53.0812754,33.3297747 54.0134803,33.3976873 54.9299066,33.5165345 C54.5600541,31.7074166 54.3650295,29.834159 54.3650295,27.916255 C54.3650295,12.4988227 66.909718,0.000377292566 82.3841934,0.000377292566 C97.7185541,0.000377292566 110.169202,12.2749624 110.393259,27.5006044 C112.178144,26.6592419 114.171939,26.1876262 116.278079,26.1876262 C123.889087,26.1876262 130.059185,32.3349799 130.059185,39.9173031 C130.059185,39.987731 130.054767,40.0562725 130.054136,40.1260716 C131.686284,39.6538271 133.410579,39.3953817 135.195464,39.3953817 C145.3683,39.3953817 153.614243,47.6121852 153.614243,57.7468926 Z" id="Fill-1" fill="#C6ECF4"></path>
                <g id="Group-5" transform="translate(0.000000, 33.650096)">
                    <mask id="mask-2" fill="white">
                        <use xlink:href="#path-1"></use>
                    </mask>
                    <g id="Clip-4"></g>
                    <path d="M52.681191,12.7344419 C49.8586992,11.5107563 47.0488303,11.3340576 44.3146992,13.1658131 C43.7409861,12.4684507 43.2518467,11.7641712 42.65415,11.1674201 C40.0386746,8.55278253 36.198773,8.46726288 33.5145025,11.0422847 C32.7154697,11.8081886 32.0161582,12.0741799 30.916068,11.8584943 C28.9260598,11.4692541 27.0408221,12.1012192 26.0139451,13.7745118 C25.209232,15.0862323 24.3641254,15.5697956 22.9490926,15.491193 C22.4700516,15.4641537 21.9802811,15.6345642 21.474732,15.7181974 C20.6435107,14.3228437 19.9808057,12.8419703 18.993691,11.6208 C15.8284861,7.70261659 10.511068,6.63299214 6.07031393,8.76846812 C1.11328115,11.1529572 -0.717677869,15.8754026 0.248609016,20.973883 C1.12969098,25.620241 5.77619918,29.1177432 10.7142975,29.1190009 C35.3334697,29.1246603 59.9526418,29.0485729 84.5705516,29.1768524 C89.5824943,29.2032629 93.4381746,25.679979 94.0863631,22.1881362 C94.8487893,18.0769048 93.4987648,13.6380576 88.43065,11.5264769 C87.6739041,11.2108087 87.0604287,10.0537782 86.7896664,9.16273886 C85.423232,4.65912314 82.5281582,1.73699214 78.0192402,0.444765065 C73.4194369,-0.873243668 68.3727811,0.805708297 65.4467811,4.69182183 C64.4647156,5.99473886 63.7332156,6.63802271 61.8637566,6.02995284 C58.7938549,5.03138515 55.0612484,7.06436332 53.6986008,10.0273677 C53.3192811,10.851752 53.0554615,11.7276996 52.681191,12.7344419" id="Fill-3" fill="#AAC7CC" mask="url(#mask-2)"></path>
                </g>
                <path d="M5.11248443,107.812486 C18.4044516,108.900975 29.2633451,116.709673 39.1079844,124.168748 C48.9519926,131.627193 59.7200008,139.488084 72.9924025,140.726861 C86.1524598,141.954948 98.6674844,136.38611 110.365804,131.254931" id="Stroke-6" stroke="#BFBFBF" stroke-width="1.25999995" stroke-dasharray="1.259999945163727,3.149999916553497,1.259999945163727,3.149999916553497,1.259999945163727,3.149999916553497"></path>
                <path d="M124.693043,28.9414847 C113.751469,28.9414847 104.88069,37.7795633 104.88069,48.6808035 C104.88069,51.9299214 105.682879,54.9872489 107.078977,57.6905502 L124.672215,89.0240699 L142.017411,58.2470568 C143.598436,55.4129607 144.505395,52.1537817 144.505395,48.6808035 C144.505395,37.7795633 135.634616,28.9414847 124.693043,28.9414847" id="Fill-8" fill="#00ADF3"></path>
                <path d="M128.222925,126.73113 C128.222925,128.595584 126.705646,130.10727 124.834293,130.10727 C122.962941,130.10727 121.445662,128.595584 121.445662,126.73113 C121.445662,124.866047 122.962941,123.35499 124.834293,123.35499 C126.705646,123.35499 128.222925,124.866047 128.222925,126.73113" id="Fill-10" fill="#626262"></path>
                <path d="M124.551918,93.1561782 L124.551918,103.660003" id="Stroke-12" stroke="#BFBFBF" stroke-width="0.629999973"></path>
                <path d="M70.2032352,73.6412227 C64.0053664,73.6412227 58.9808008,78.6472664 58.9808008,84.8222882 C58.9808008,86.6628472 59.4345959,88.3946201 60.2254238,89.9257991 L70.1912434,107.6749 L80.0163172,90.2414672 C80.9119156,88.6360873 81.4256697,86.789869 81.4256697,84.8222882 C81.4256697,78.6472664 76.4011041,73.6412227 70.2032352,73.6412227" id="Fill-14" fill="#626262"></path>
                <g id="Group-18" transform="translate(66.270492, 136.776734)">
                    <mask id="mask-4" fill="white">
                        <use xlink:href="#path-3"></use>
                    </mask>
                    <g id="Clip-17"></g>
                    <path d="M7.18006066,3.54101659 C7.18006066,5.40547074 5.66278197,6.91715633 3.79142951,6.91715633 C1.92007705,6.91715633 0.402798361,5.40547074 0.402798361,3.54101659 C0.402798361,1.67593362 1.92007705,0.164876856 3.79142951,0.164876856 C5.66278197,0.164876856 7.18006066,1.67593362 7.18006066,3.54101659" id="Fill-16" fill="#626262" mask="url(#mask-4)"></path>
                </g>
                <path d="M69.7797984,111.807071 L69.7797984,132.814721" id="Stroke-19" stroke="#BFBFBF" stroke-width="0.629999973"></path>
                <path d="M22.8135852,53.2303231 C17.7833393,53.2303231 13.7054951,57.2931354 13.7054951,62.3054672 C13.7054951,63.798917 14.0740852,65.2043319 14.7159623,66.4475109 L22.804118,80.8525415 L30.7786672,66.703441 C31.505118,65.400524 31.9223066,63.9020437 31.9223066,62.3054672 C31.9223066,57.2931354 27.8444623,53.2303231 22.8135852,53.2303231" id="Fill-21" fill="#626262"></path>
                <path d="M26.0207615,113.495203 C26.0207615,115.359658 24.5034828,116.871343 22.6321303,116.871343 C20.7607779,116.871343 19.242868,115.359658 19.242868,113.495203 C19.242868,111.630121 20.7607779,110.119064 22.6321303,110.119064 C24.5034828,110.119064 26.0207615,111.630121 26.0207615,113.495203" id="Fill-23" fill="#626262"></path>
                <path d="M22.3497549,85.5470672 L22.3497549,106.554718" id="Stroke-25" stroke="#BFBFBF" stroke-width="0.629999973"></path>
                <path d="M28.6513844,62.2076227 C28.6513844,65.4190114 26.0378025,68.0235878 22.8132697,68.0235878 C19.5899992,68.0235878 16.9757861,65.4190114 16.9757861,62.2076227 C16.9757861,58.9956052 19.5899992,56.3910288 22.8132697,56.3910288 C26.0378025,56.3910288 28.6513844,58.9956052 28.6513844,62.2076227" id="Fill-27" fill="#FFFFFF"></path>
                <path d="M77.3957926,84.7886463 C77.3957926,88.7464454 74.1756779,91.95469 70.2032352,91.95469 C66.2307926,91.95469 63.0106779,88.7464454 63.0106779,84.7886463 C63.0106779,80.8308472 66.2307926,77.6226026 70.2032352,77.6226026 C74.1756779,77.6226026 77.3957926,80.8308472 77.3957926,84.7886463" id="Fill-29" fill="#FFFFFF"></path>
                <path d="M139.066102,48.477317 C139.066102,56.3859983 132.630922,62.7974568 124.69298,62.7974568 C116.755037,62.7974568 110.319857,56.3859983 110.319857,48.477317 C110.319857,40.5686358 116.755037,34.1578061 124.69298,34.1578061 C132.630922,34.1578061 139.066102,40.5686358 139.066102,48.477317" id="Fill-31" fill="#FFFFFF"></path>
                <mask id="mask-6" fill="white">
                    <use xlink:href="#path-5"></use>
                </mask>
                <g id="Clip-34"></g>
                <polygon id="Fill-33" fill="#626262" mask="url(#mask-6)" points="117.264689 44.752559 132.0935 44.752559 132.0935 42.5579738 117.264689 42.5579738"></polygon>
                <polygon id="Fill-35" fill="#626262" mask="url(#mask-6)" points="117.264689 49.7347074 132.0935 49.7347074 132.0935 47.5394934 117.264689 47.5394934"></polygon>
                <polygon id="Fill-36" fill="#626262" mask="url(#mask-6)" points="117.264689 54.7168559 124.67941 54.7168559 124.67941 52.5222707 117.264689 52.5222707"></polygon>
                <polygon id="Fill-37" fill="#EDD000" mask="url(#mask-6)" points="129.731115 128.851074 137.77509 128.851074 137.77509 124.368838 129.731115 124.368838"></polygon>
                <polygon id="Fill-38" fill="#FFFFFF" mask="url(#mask-6)" points="138.159459 122.215818 110.813098 122.215818 114.665623 111.951574 135.16277 111.951574"></polygon>
                <polygon id="Fill-39" fill="#EDD000" mask="url(#mask-6)" points="111.791377 128.851074 119.835352 128.851074 119.835352 124.368838 111.791377 124.368838"></polygon>
                <polygon id="Fill-40" fill="#000000" mask="url(#mask-6)" points="111.206871 137.308716 115.768175 137.308716 116.247216 133.594271 111.206871 133.594271"></polygon>
                <polygon id="Fill-41" fill="#000000" mask="url(#mask-6)" points="133.813566 137.308716 138.37487 137.308716 138.37487 133.594271 133.449394 133.594271"></polygon>
                <polygon id="Fill-42" fill="#4B4B4B" mask="url(#mask-6)" points="116.247405 133.594145 116.247405 133.594145 133.449331 133.594145"></polygon>
                <path d="M136.910734,128.757003 L130.547504,128.757003 L130.547504,124.88095 L137.34307,124.88095 L136.910734,128.757003 Z M112.456922,121.433754 L115.297086,112.807588 C115.365881,112.597562 115.428365,112.401998 115.731947,112.392566 L133.782135,112.393195 C134.069939,112.409544 134.13116,112.601334 134.175971,112.740933 L137.038857,121.434383 C133.116275,121.28661 128.993619,121.206121 124.734004,121.206121 C120.485119,121.206121 116.37193,121.285981 112.456922,121.433754 L112.456922,121.433754 Z M119.211463,128.757003 L112.848234,128.757003 L112.415898,124.88095 L119.211463,124.88095 L119.211463,128.757003 Z M138.384463,133.593893 L139.594373,124.121334 L142.631455,123.783029 L142.631455,119.941562 L138.97648,120.372304 L136.11107,112.160531 C135.516529,110.382854 133.781504,110.482208 133.781504,110.482208 L130.453463,110.482208 L129.767406,107.123675 L119.956848,107.123675 L119.270791,110.482208 L115.834193,110.482208 C115.834193,110.482208 114.099168,110.382854 113.504627,112.160531 L110.620283,120.426383 L106.600504,119.941562 L106.600504,123.783029 L110.028898,124.179815 L111.206619,133.405247 L111.206619,133.593893 L116.247594,133.593893 L133.44952,133.593893 L138.374996,133.593893 L138.384463,133.593893 Z" id="Fill-43" fill="#626262" mask="url(#mask-6)"></path>
                <path d="M130.369331,116.757212 C128.265716,116.757212 126.52438,118.284618 126.189872,120.285527 C126.63988,120.287413 127.091782,120.288671 127.539266,120.291815 C127.852315,119.020968 128.998479,118.071448 130.369331,118.071448 C131.776159,118.071448 132.953249,119.066872 133.230323,120.387396 C133.677807,120.399343 134.126552,120.410662 134.570249,120.423238 C134.294438,118.354417 132.520913,116.757212 130.369331,116.757212" id="Fill-44" fill="#4B4B4B" mask="url(#mask-6)"></path>
            </g>
        </g>
    </g>
</svg>