<?xml version="1.0" encoding="UTF-8"?>
<svg width="58px" height="68px" viewBox="0 0 58 68" version="1.1" xmlns="http://www.w3.org/2000/svg" xmlns:xlink="http://www.w3.org/1999/xlink">
    <title>Group 15</title>
    <defs>
        <polygon id="path-1" points="0.0002 0.7254 57.652 0.7254 57.652 66.9994 0.0002 66.9994"></polygon>
        <polygon id="path-3" points="0 67.2749 57.652 67.2749 57.652 0.9999 0 0.9999"></polygon>
    </defs>
    <g id="Page-1" stroke="none" stroke-width="1" fill="none" fill-rule="evenodd">
        <g id="Support-our-community-Desktop" transform="translate(-1060.000000, -582.000000)">
            <g id="Group-15" transform="translate(1060.000000, 582.000000)">
                <g id="Group-3" transform="translate(0.000000, 0.274900)">
                    <mask id="mask-2" fill="white">
                        <use xlink:href="#path-1"></use>
                    </mask>
                    <g id="Clip-2"></g>
                    <path d="M57.6522,29.5514 C57.6522,13.6304 44.7462,0.7254 28.8262,0.7254 C12.9062,0.7254 0.0002,13.6304 0.0002,29.5514 C0.0002,43.5984 10.0482,55.2964 23.3482,57.8554 L28.8262,66.9994 L34.3042,57.8554 C47.6042,55.2964 57.6522,43.5984 57.6522,29.5514" id="Fill-1" fill="#13B2F3" mask="url(#mask-2)"></path>
                </g>
                <polygon id="Fill-4" fill="#FFFFFF" points="33.7625 25.049 28.8255 25.049 23.8895 25.049 19.8155 28.967 28.8255 37.742 37.8365 28.967"></polygon>
                <mask id="mask-4" fill="white">
                    <use xlink:href="#path-3"></use>
                </mask>
                <g id="Clip-7"></g>
                <polygon id="Fill-6" fill="#FFFFFF" mask="url(#mask-4)" points="27.812 17.0329 29.84 17.0329 29.84 13.3229 27.812 13.3229"></polygon>
                <polygon id="Fill-8" fill="#FFFFFF" mask="url(#mask-4)" points="27.812 47.1479 29.84 47.1479 29.84 43.4379 27.812 43.4379"></polygon>
                <polygon id="Fill-9" fill="#FFFFFF" mask="url(#mask-4)" points="42.029 31.2479 45.738 31.2479 45.738 29.2209 42.029 29.2209"></polygon>
                <polygon id="Fill-10" fill="#FFFFFF" mask="url(#mask-4)" points="11.913 31.2479 15.623 31.2479 15.623 29.2209 11.913 29.2209"></polygon>
                <polygon id="Fill-11" fill="#FFFFFF" mask="url(#mask-4)" points="18.7733 21.6154 16.1503 18.9924 17.5843 17.5584 20.2073 20.1814"></polygon>
                <polygon id="Fill-12" fill="#FFFFFF" mask="url(#mask-4)" points="40.0682 42.9103 37.4452 40.2873 38.8792 38.8533 41.5022 41.4763"></polygon>
                <polygon id="Fill-13" fill="#FFFFFF" mask="url(#mask-4)" points="37.4451 20.1818 40.0681 17.5588 41.5021 18.9928 38.8791 21.6158"></polygon>
                <polygon id="Fill-14" fill="#FFFFFF" mask="url(#mask-4)" points="16.1502 41.4767 18.7732 38.8537 20.2072 40.2877 17.5842 42.9107"></polygon>
            </g>
        </g>
    </g>
</svg>