<?xml version="1.0" encoding="UTF-8"?>
<svg width="58px" height="68px" viewBox="0 0 58 68" version="1.1" xmlns="http://www.w3.org/2000/svg" xmlns:xlink="http://www.w3.org/1999/xlink">
    <title>Group 10</title>
    <defs>
        <polygon id="path-1" points="0.0004 0.7254 57.652 0.7254 57.652 66.9994 0.0004 66.9994"></polygon>
    </defs>
    <g id="Page-1" stroke="none" stroke-width="1" fill="none" fill-rule="evenodd">
        <g id="Support-our-community-Desktop" transform="translate(-323.000000, -582.000000)">
            <g id="Group-10" transform="translate(323.000000, 582.000000)">
                <g id="Group-3" transform="translate(0.000000, 0.274900)">
                    <mask id="mask-2" fill="white">
                        <use xlink:href="#path-1"></use>
                    </mask>
                    <g id="Clip-2"></g>
                    <path d="M57.6524,29.5514 C57.6524,13.6304 44.7464,0.7254 28.8264,0.7254 C12.9054,0.7254 0.0004,13.6304 0.0004,29.5514 C0.0004,43.5984 10.0474,55.2964 23.3484,57.8554 L28.8264,66.9994 L34.3034,57.8554 C47.6044,55.2964 57.6524,43.5984 57.6524,29.5514" id="Fill-1" fill="#13B2F3" mask="url(#mask-2)"></path>
                </g>
                <polygon id="Fill-4" fill="#FFFFFF" points="40.628 24.1984 40.65 24.2204 39.961 24.9094 40.65 24.2204 40.628 24.1984 28.826 12.3964 17.024 24.1984 16.969 24.1984 16.969 41.6474 40.683 41.6474 40.683 24.1984"></polygon>
                <path d="M35.7286,29.9718 C35.6586,29.4378 35.5866,28.9938 35.5366,28.7158 C35.4926,28.5418 35.3466,28.1368 34.9366,27.8068 C34.9376,27.8078 33.9916,27.2288 33.4756,27.0338 C33.4646,27.0308 33.4556,27.0268 33.4456,27.0228 C32.9766,26.8478 32.5246,26.7228 32.1906,26.6408 C32.1896,26.6428 32.1896,26.6448 32.1886,26.6468 C32.1826,26.6588 32.1756,26.6708 32.1686,26.6838 C32.1156,26.7788 32.0566,26.8738 31.9946,26.9678 C31.5866,27.5778 31.1136,27.9588 30.8946,28.1168 C30.8546,28.1508 30.8116,28.1808 30.7666,28.2078 C30.1726,28.5688 29.5446,28.7588 28.8986,28.7738 L28.8546,28.7738 L28.8476,28.7738 L28.8316,28.7738 L28.8096,28.7738 L28.7656,28.7738 C28.1206,28.7588 27.4916,28.5688 26.8976,28.2078 C26.8536,28.1808 26.8106,28.1508 26.7706,28.1178 C26.5516,27.9588 26.0766,27.5778 25.6696,26.9678 C25.6076,26.8728 25.5476,26.7788 25.4946,26.6838 C25.4876,26.6698 25.4816,26.6588 25.4756,26.6468 C25.4756,26.6448 25.4746,26.6428 25.4736,26.6408 C25.1406,26.7228 24.6876,26.8478 24.2206,27.0238 C24.2096,27.0268 24.1996,27.0308 24.1886,27.0348 C23.6726,27.2288 23.1436,27.4818 22.7356,27.8028 C22.7356,27.8028 22.1716,28.5418 22.1256,28.7158 C22.0766,28.9938 22.0046,29.4378 21.9356,29.9718 L21.8506,31.1008 L25.6426,34.8928 C26.3386,33.8968 27.4896,33.2438 28.7976,33.2438 C30.1146,33.2438 31.2736,33.9058 31.9696,34.9108 L35.8026,31.0778 L35.7286,29.9718 Z" id="Fill-6" fill="#13B2F3"></path>
                <path d="M25.8956,24.4972 C26.0636,25.0302 26.2606,25.4692 26.4236,25.7902 C26.4666,25.8662 26.5106,25.9382 26.5556,26.0062 C26.9606,26.6132 27.4486,26.9182 27.4486,26.9182 L27.4486,26.9252 C27.9296,27.2162 28.3896,27.3272 28.8086,27.3332 L28.8276,27.3332 L28.8446,27.3332 C29.2636,27.3272 29.7226,27.2162 30.2046,26.9252 L30.2046,26.9182 C30.2046,26.9182 30.6906,26.6132 31.0966,26.0062 C31.1416,25.9382 31.1856,25.8662 31.2286,25.7902 C31.3926,25.4692 31.5876,25.0302 31.7566,24.4972 C31.9776,23.8552 32.2846,22.8202 32.2616,22.0712 C32.2586,21.8272 32.2086,21.5442 32.0626,21.2402 L32.0666,21.2382 C32.0536,21.2152 32.0416,21.1942 32.0276,21.1732 C31.9966,21.1112 31.9596,21.0492 31.9186,20.9852 C31.2546,19.9112 30.4986,19.4232 30.2076,19.2642 C29.9986,19.1342 29.7746,19.0242 29.5396,18.9532 C29.1526,18.8302 28.7816,18.8372 28.5126,18.8712 C28.1296,18.9102 27.7676,19.0622 27.4446,19.2642 C27.1536,19.4232 26.3966,19.9112 25.7346,20.9852 C25.6926,21.0492 25.6566,21.1112 25.6236,21.1732 C25.6116,21.1942 25.5986,21.2152 25.5856,21.2382 L25.5896,21.2402 C25.4436,21.5442 25.3926,21.8272 25.3906,22.0712 C25.3676,22.8202 25.6756,23.8552 25.8956,24.4972" id="Fill-8" fill="#13B2F3"></path>
            </g>
        </g>
    </g>
</svg>