<?xml version="1.0" encoding="UTF-8"?>
<svg width="366px" height="448px" viewBox="0 0 366 448" version="1.1" xmlns="http://www.w3.org/2000/svg" xmlns:xlink="http://www.w3.org/1999/xlink">
    <!-- Generator: Sketch 44.1 (41455) - http://www.bohemiancoding.com/sketch -->
    <title>Group 3</title>
    <desc>Created with Sketch.</desc>
    <defs>
        <polygon id="path-1" points="0 267.103679 316.957912 267.103679 316.957912 0.412307692 0 0.412307692"></polygon>
    </defs>
    <g id="Page-1" stroke="none" stroke-width="1" fill="none" fill-rule="evenodd">
        <g id="Driver-Portal" transform="translate(-320.000000, -1656.000000)">
            <g id="Group-3" transform="translate(320.000000, 1656.000000)">
                <rect id="Rectangle-14-Copy" fill="#FFFFFF" x="0" y="0" width="366" height="448"></rect>
                <g id="Page-1" transform="translate(25.000000, 90.000000)">
                    <polygon id="Fill-1" fill="#AAC7CC" points="76.7319096 7.35252174 278.851647 7.35252174 278.851647 0.89632107 76.7319096 0.89632107"></polygon>
                    <polygon id="Fill-2" fill="#C6ECF4" points="91.6058362 22.294194 278.851647 22.294194 278.851647 15.8379933 91.6058362 15.8379933"></polygon>
                    <polygon id="Fill-3" fill="#C6ECF4" points="91.6058362 37.3461137 258.694387 37.3461137 258.694387 30.7787692 91.6058362 30.7787692"></polygon>
                    <g id="Group-47" transform="translate(0.000000, 0.484013)">
                        <path d="M76.1123268,19.5286849 C76.1123268,17.0629057 78.1092477,15.065006 80.5718184,15.065006 C83.0352845,15.065006 85.0322054,17.0629057 85.0322054,19.5286849 C85.0322054,21.9935679 83.0352845,23.9923639 80.5718184,23.9923639 C78.1092477,23.9923639 76.1123268,21.9935679 76.1123268,19.5286849 Z" id="Fill-4" fill="#01BF00"></path>
                        <path d="M76.1123268,33.1187946 C76.1123268,35.5836776 78.1092477,37.5824736 80.5718184,37.5824736 C83.0352845,37.5824736 85.0322054,35.5836776 85.0322054,33.1187946 C85.0322054,30.6539117 83.0352845,28.6551157 80.5718184,28.6551157 C78.1092477,28.6551157 76.1123268,30.6539117 76.1123268,33.1187946" id="Fill-6" fill="#FF1B0F"></path>
                        <mask id="mask-2" fill="white">
                            <use xlink:href="#path-1"></use>
                        </mask>
                        <g id="Clip-9"></g>
                        <polygon id="Fill-8" fill="#EDD000" mask="url(#mask-2)" points="52.2056017 23.6915585 58.7399209 23.6915585 58.7399209 20.0336722 52.2056017 20.0336722"></polygon>
                        <polygon id="Fill-10" fill="#FFFFFF" mask="url(#mask-2)" points="59.0520853 18.276614 36.8379073 18.276614 39.9676107 9.89959732 56.6181701 9.89959732"></polygon>
                        <polygon id="Fill-11" fill="#EDD000" mask="url(#mask-2)" points="37.6325565 23.6915585 44.1668757 23.6915585 44.1668757 20.0336722 37.6325565 20.0336722"></polygon>
                        <polygon id="Fill-12" fill="#000000" mask="url(#mask-2)" points="37.1575938 30.5939478 40.863091 30.5939478 41.2526249 27.56259 37.1575938 27.56259"></polygon>
                        <polygon id="Fill-13" fill="#000000" mask="url(#mask-2)" points="55.5219232 30.5939478 59.2274203 30.5939478 59.2274203 27.56259 55.2264147 27.56259"></polygon>
                        <polygon id="Fill-14" fill="#4B4B4B" mask="url(#mask-2)" points="41.2524458 27.5623211 41.2524458 27.5623211 55.2264147 27.5623211"></polygon>
                        <path d="M58.0378644,23.6146542 L52.8691525,23.6146542 L52.8691525,20.4515371 L58.3888927,20.4515371 L58.0378644,23.6146542 Z M38.1734266,17.6388816 L40.4801836,10.5982796 C40.5357034,10.4270823 40.5867458,10.2675371 40.8338983,10.2594702 L55.4964915,10.2603666 C55.7302119,10.2738114 55.7794633,10.4297712 55.816178,10.543604 L58.1417401,17.6388816 C54.954726,17.5178783 51.6065254,17.4524468 48.1463898,17.4524468 C44.6943136,17.4524468 41.3532768,17.5178783 38.1734266,17.6388816 L38.1734266,17.6388816 Z M43.6600339,23.6146542 L38.491322,23.6146542 L38.1402938,20.4515371 L43.6600339,20.4515371 L43.6600339,23.6146542 Z M59.2351215,27.5620522 L60.2174633,19.8312829 L62.6854068,19.5552161 L62.6854068,16.4207813 L59.7159944,16.7721391 L57.3877458,10.0703465 C56.9050819,8.620099 55.495596,8.69987157 55.495596,8.69987157 L52.7921412,8.69987157 L52.2351525,5.95981806 L44.2653785,5.95981806 L43.7083898,8.69987157 L40.9162825,8.69987157 C40.9162825,8.69987157 39.5067966,8.620099 39.0241328,10.0703465 L36.680661,16.8160589 L33.4157401,16.4207813 L33.4157401,19.5552161 L36.2006836,19.8796843 L37.157952,27.4078849 L37.157952,27.5620522 L41.2520876,27.5620522 L55.2260565,27.5620522 L59.2270621,27.5620522 L59.2351215,27.5620522 Z" id="Fill-15" fill="#626262" mask="url(#mask-2)"></path>
                        <path d="M52.7239952,13.8216294 C51.0154189,13.8216294 49.6005602,15.068412 49.3283342,16.701509 C49.6945856,16.7024054 50.0617325,16.7033017 50.424402,16.706887 C50.6796138,15.6689472 51.6100178,14.8945258 52.7239952,14.8945258 C53.866628,14.8945258 54.8230008,15.7065926 55.0477664,16.7848669 C55.4113314,16.7938301 55.7757918,16.8027933 56.1366703,16.8135492 C55.9128003,15.1257766 54.4719726,13.8216294 52.7239952,13.8216294" id="Fill-16" fill="#4B4B4B" mask="url(#mask-2)"></path>
                        <polygon id="Fill-17" fill="#AAC7CC" mask="url(#mask-2)" points="76.7328051 236.389445 278.851647 236.389445 278.851647 229.933244 76.7328051 229.933244"></polygon>
                        <polygon id="Fill-18" fill="#C6ECF4" mask="url(#mask-2)" points="91.6058362 251.331117 278.851647 251.331117 278.851647 244.87402 91.6058362 244.87402"></polygon>
                        <polygon id="Fill-19" fill="#C6ECF4" mask="url(#mask-2)" points="91.6058362 266.38214 258.694387 266.38214 258.694387 259.815692 91.6058362 259.815692"></polygon>
                        <path d="M76.1123268,249.049532 C76.1123268,251.514415 78.1092477,253.513211 80.5718184,253.513211 C83.0352845,253.513211 85.0322054,251.514415 85.0322054,249.049532 C85.0322054,246.584649 83.0352845,244.585853 80.5718184,244.585853 C78.1092477,244.585853 76.1123268,246.584649 76.1123268,249.049532" id="Fill-20" fill="#01BF00" mask="url(#mask-2)"></path>
                        <path d="M76.1123268,262.639641 C76.1123268,265.104524 78.1092477,267.10332 80.5718184,267.10332 C83.0352845,267.10332 85.0322054,265.104524 85.0322054,262.639641 C85.0322054,260.174759 83.0352845,258.175963 80.5718184,258.175963 C78.1092477,258.175963 76.1123268,260.174759 76.1123268,262.639641" id="Fill-21" fill="#FF1B0F" mask="url(#mask-2)"></path>
                        <polygon id="Fill-22" fill="#EDD000" mask="url(#mask-2)" points="52.2056017 253.212495 58.7399209 253.212495 58.7399209 249.553712 52.2056017 249.553712"></polygon>
                        <polygon id="Fill-23" fill="#FFFFFF" mask="url(#mask-2)" points="59.0520853 247.797819 36.8379073 247.797819 39.9676107 239.420803 56.6181701 239.420803"></polygon>
                        <polygon id="Fill-24" fill="#EDD000" mask="url(#mask-2)" points="37.6325565 253.212495 44.1668757 253.212495 44.1668757 249.553712 37.6325565 249.553712"></polygon>
                        <polygon id="Fill-25" fill="#000000" mask="url(#mask-2)" points="37.1575938 260.114795 40.863091 260.114795 41.2526249 257.083437 37.1575938 257.083437"></polygon>
                        <polygon id="Fill-26" fill="#000000" mask="url(#mask-2)" points="55.5219232 260.114795 59.2274203 260.114795 59.2274203 257.083437 55.2264147 257.083437"></polygon>
                        <polygon id="Fill-27" fill="#4B4B4B" mask="url(#mask-2)" points="41.2520876 257.083706 55.2260565 257.083706 55.2260565 257.083706"></polygon>
                        <path d="M58.0378644,253.13586 L52.8691525,253.13586 L52.8691525,249.972742 L58.3888927,249.972742 L58.0378644,253.13586 Z M38.1734266,247.159191 L40.4801836,240.119485 C40.5357034,239.948288 40.5867458,239.787846 40.8338983,239.780676 L55.4964915,239.780676 C55.7302119,239.795017 55.7794633,239.950977 55.816178,240.064809 L58.1417401,247.160087 C54.954726,247.039084 51.6065254,246.973652 48.1463898,246.973652 C44.6943136,246.973652 41.3532768,247.039084 38.1734266,247.159191 L38.1734266,247.159191 Z M43.6600339,253.13586 L38.491322,253.13586 L38.1402938,249.972742 L43.6600339,249.972742 L43.6600339,253.13586 Z M59.2351215,257.083258 L60.2174633,249.352488 L62.6854068,249.076421 L62.6854068,245.941987 L59.7159944,246.292448 L57.3877458,239.591552 C56.9050819,238.140408 55.495596,238.221077 55.495596,238.221077 L52.7921412,238.221077 L52.2351525,235.480127 L44.2653785,235.480127 L43.7083898,238.221077 L40.9162825,238.221077 C40.9162825,238.221077 39.5067966,238.140408 39.0241328,239.591552 L36.680661,246.337264 L33.4157401,245.941987 L33.4157401,249.076421 L36.2006836,249.399993 L37.157952,256.928194 L37.157952,257.083258 L41.2520876,257.083258 L41.2520876,257.083258 L55.2260565,257.083258 L55.2260565,257.083258 L59.2270621,257.083258 L59.2270621,257.083258 L59.2351215,257.083258 Z" id="Fill-28" fill="#626262" mask="url(#mask-2)"></path>
                        <path d="M52.7239952,243.342476 C51.0154189,243.342476 49.6005602,244.589259 49.3283342,246.222356 C49.6945856,246.224148 50.0617325,246.225045 50.424402,246.227734 C50.6796138,245.189794 51.6100178,244.415373 52.7239952,244.415373 C53.866628,244.415373 54.8230008,245.227439 55.0477664,246.305714 C55.4113314,246.314677 55.7757918,246.32364 56.1366703,246.334396 C55.9128003,244.646623 54.4719726,243.342476 52.7239952,243.342476" id="Fill-29" fill="#4B4B4B" mask="url(#mask-2)"></path>
                        <polygon id="Fill-30" fill="#EDF9F9" mask="url(#mask-2)" points="0 207.512669 316.957912 207.512669 316.957912 63.3967893 0 63.3967893"></polygon>
                        <polygon id="Fill-31" fill="#AAC7CC" mask="url(#mask-2)" points="67.5917429 85.7492441 298.051638 85.7492441 298.051638 78.3303946 67.5917429 78.3303946"></polygon>
                        <polygon id="Fill-32" fill="#C6ECF4" mask="url(#mask-2)" points="84.6828785 102.918274 298.051638 102.918274 298.051638 95.4994247 84.6828785 95.4994247"></polygon>
                        <polygon id="Fill-33" fill="#C6ECF4" mask="url(#mask-2)" points="84.6828785 120.213686 274.889147 120.213686 274.889147 112.668455 84.6828785 112.668455"></polygon>
                        <path d="M66.8793884,100.296983 C66.8793884,103.130254 69.1736088,105.426629 72.0042218,105.426629 C74.8339393,105.426629 77.1290551,103.130254 77.1290551,100.296983 C77.1290551,97.4637124 74.8339393,95.1673378 72.0042218,95.1673378 C69.1736088,95.1673378 66.8793884,97.4637124 66.8793884,100.296983" id="Fill-34" fill="#01BF00" mask="url(#mask-2)"></path>
                        <path d="M66.8793884,115.912958 C66.8793884,118.746229 69.1736088,121.042603 72.0042218,121.042603 C74.8339393,121.042603 77.1290551,118.746229 77.1290551,115.912958 C77.1290551,113.079687 74.8339393,110.783312 72.0042218,110.783312 C69.1736088,110.783312 66.8793884,113.079687 66.8793884,115.912958" id="Fill-35" fill="#FF1B0F" mask="url(#mask-2)"></path>
                        <polygon id="Fill-36" fill="#EDD000" mask="url(#mask-2)" points="39.4082938 105.080201 46.9168955 105.080201 46.9168955 100.877351 39.4082938 100.877351"></polygon>
                        <polygon id="Fill-37" fill="#FFFFFF" mask="url(#mask-2)" points="47.2758935 98.858388 21.7502297 98.858388 25.3455828 89.232796 44.4793088 89.232796"></polygon>
                        <polygon id="Fill-38" fill="#EDD000" mask="url(#mask-2)" points="22.663709 105.080201 30.1723107 105.080201 30.1723107 100.877351 22.663709 100.877351"></polygon>
                        <polygon id="Fill-39" fill="#000000" mask="url(#mask-2)" points="22.1176452 113.011746 26.3756537 113.011746 26.8224983 109.528642 22.1176452 109.528642"></polygon>
                        <polygon id="Fill-40" fill="#000000" mask="url(#mask-2)" points="43.2193681 113.011746 47.4773766 113.011746 47.4773766 109.528642 42.8799811 109.528642"></polygon>
                        <polygon id="Fill-41" fill="#4B4B4B" mask="url(#mask-2)" points="26.8226774 109.528463 26.8226774 109.528463 42.8795333 109.528463"></polygon>
                        <path d="M46.110426,104.992092 L40.1707056,104.992092 L40.1707056,101.35751 L46.5142876,101.35751 L46.110426,104.992092 Z M23.284635,98.1244803 L25.9352565,90.0351826 C25.9997311,89.837992 26.0579373,89.6551425 26.3418045,89.6452829 L43.190265,89.6461793 C43.458909,89.662313 43.5153243,89.8415773 43.5574119,89.9733365 L46.2304203,98.1253766 C42.5679062,97.9864468 38.7200277,97.9111559 34.7440955,97.9111559 C30.7780136,97.9111559 26.9381944,97.9864468 23.284635,98.1244803 L23.284635,98.1244803 Z M29.5888158,104.992092 L23.649991,104.992092 L23.2461294,101.35751 L29.5888158,101.35751 L29.5888158,104.992092 Z M47.4858836,109.528373 L48.6150842,100.644935 L51.4501746,100.327637 L51.4501746,96.7253231 L48.0383949,97.1295639 L45.364491,89.4292696 C44.8092932,87.7612161 43.1893695,87.8544334 43.1893695,87.8544334 L40.0829486,87.8544334 L39.4426802,84.7047612 L30.284604,84.7047612 L29.6452311,87.8544334 L26.4367254,87.8544334 C26.4367254,87.8544334 24.8176972,87.7612161 24.2624994,89.4292696 L21.5697904,97.1806542 L17.8177282,96.7253231 L17.8177282,100.327637 L21.0181746,100.699611 L22.1178243,109.350902 L22.1178243,109.528373 L26.8226774,109.528373 L42.8795333,109.528373 L47.4769288,109.528373 L47.4858836,109.528373 Z" id="Fill-42" fill="#626262" mask="url(#mask-2)"></path>
                        <path d="M40.0045045,93.7391398 C38.0407164,93.7391398 36.4154198,95.1714609 36.1028972,97.0483572 C36.5237729,97.0501498 36.9446486,97.0510462 37.3628379,97.0546314 C37.6547644,95.8625244 38.7248633,94.9715813 40.0045045,94.9715813 C41.3172785,94.9715813 42.4160328,95.9055478 42.6748266,97.1442635 C43.0930158,97.1550194 43.5121006,97.1648789 43.9258124,97.1765311 C43.6679141,95.2368923 42.0130667,93.7391398 40.0045045,93.7391398" id="Fill-43" fill="#4B4B4B" mask="url(#mask-2)"></path>
                        <path d="M29.9753946,187.053244 C31.9356008,173.258863 41.145615,160.705886 53.7092025,154.705913 C66.2727901,148.70594 81.8147449,149.437338 93.7604511,156.58998 C106.151211,164.009726 116.746533,178.28812 131.04377,176.273191 C144.352397,174.397191 152.066064,158.891732 165.115897,155.673043 C177.350844,152.654234 189.081635,161.32614 198.867443,169.272027 C208.654146,177.217913 220.941926,185.441659 232.902855,181.472749 C240.121321,179.078676 245.227349,172.712107 249.411033,166.357191 C253.594717,160.001378 257.472146,153.139144 263.650064,148.702355 C269.828878,144.266462 279.209929,143.12186 284.628479,148.461244" id="Stroke-44" stroke="#626262" stroke-width="2" stroke-dasharray="2,5,2,5,2,5" mask="url(#mask-2)"></path>
                        <path d="M283.733178,140.920815 C282.196534,140.920815 280.897192,139.91335 280.453034,138.523156 C280.347368,138.192413 280.289161,137.840159 280.289161,137.47446 C280.289161,135.570674 281.831178,134.027209 283.733178,134.027209 C285.635178,134.027209 287.1763,135.570674 287.1763,137.47446 C287.1763,137.840159 287.118989,138.192413 287.013322,138.523156 C286.569164,139.91335 285.268927,140.920815 283.733178,140.920815 M283.733178,130.815691 C279.93276,130.815691 276.852308,133.899932 276.852308,137.703022 C276.852308,137.980882 276.869322,138.25426 276.902455,138.523156 C277.001853,139.352253 277.249901,140.134741 277.615257,140.84642 L283.726014,151.969765 L289.74991,141.041818 C290.173472,140.279049 290.455548,139.427544 290.563006,138.523156 C290.595243,138.25426 290.614048,137.980882 290.614048,137.703022 C290.614048,133.899932 287.533596,130.815691 283.733178,130.815691" id="Fill-45" fill="#47C628" mask="url(#mask-2)"></path>
                        <path d="M29.9756633,179.334306 C28.4390192,179.334306 27.1396774,178.326841 26.6955192,176.936647 C26.5898525,176.605905 26.5316463,176.252755 26.5316463,175.887056 C26.5316463,173.984166 28.0736633,172.440701 29.9756633,172.440701 C31.8776633,172.440701 33.4187847,173.984166 33.4187847,175.887056 C33.4187847,176.252755 33.361474,176.605905 33.2558073,176.936647 C32.8116492,178.326841 31.5114119,179.334306 29.9756633,179.334306 M29.9756633,169.229183 C26.1752452,169.229183 23.0947932,172.312527 23.0947932,176.116514 C23.0947932,176.394373 23.1118073,176.667751 23.1449401,176.936647 C23.2443384,177.764848 23.4923864,178.548233 23.8577424,179.259912 L29.9684994,190.38236 L35.9923949,179.454413 C36.4159571,178.69254 36.6980333,177.841035 36.805491,176.936647 C36.8377282,176.666855 36.8565333,176.394373 36.8565333,176.116514 C36.8565333,172.312527 33.7760814,169.229183 29.9756633,169.229183" id="Fill-46" fill="#FF1B0F" mask="url(#mask-2)"></path>
                    </g>
                </g>
            </g>
        </g>
    </g>
</svg>