<?xml version="1.0" encoding="UTF-8"?>
<svg width="58px" height="68px" viewBox="0 0 58 68" version="1.1" xmlns="http://www.w3.org/2000/svg" xmlns:xlink="http://www.w3.org/1999/xlink">
    <title>Group 10</title>
    <defs>
        <polygon id="path-1" points="0.0002 0.7254 57.652 0.7254 57.652 66.9994 0.0002 66.9994"></polygon>
    </defs>
    <g id="Page-1" stroke="none" stroke-width="1" fill="none" fill-rule="evenodd">
        <g id="Support-our-community-Desktop" transform="translate(-1060.000000, -980.000000)">
            <g id="Group-10" transform="translate(1060.000000, 980.000000)">
                <g id="Group-3" transform="translate(0.000000, 0.274900)">
                    <mask id="mask-2" fill="white">
                        <use xlink:href="#path-1"></use>
                    </mask>
                    <g id="Clip-2"></g>
                    <path d="M57.6522,29.5514 C57.6522,13.6304 44.7462,0.7254 28.8262,0.7254 C12.9062,0.7254 0.0002,13.6304 0.0002,29.5514 C0.0002,43.5984 10.0482,55.2964 23.3482,57.8554 L28.8262,66.9994 L34.3042,57.8554 C47.6042,55.2964 57.6522,43.5984 57.6522,29.5514" id="Fill-1" fill="#13B2F3" mask="url(#mask-2)"></path>
                </g>
                <path d="M27.1903,40.3693 L26.8563,40.0993 C25.9563,39.3753 24.2753,38.8293 23.1223,38.8873 L22.6923,38.9083 C22.3503,38.9253 22.0053,38.8603 21.6803,38.7323 L19.0593,47.6683 L23.5883,45.9863 L26.5143,49.8313 L29.1373,40.8943 C28.4453,40.9693 27.7193,40.7963 27.1903,40.3693" id="Fill-4" fill="#FFFFFF"></path>
                <path d="M34.9593,38.9084 L34.5303,38.8874 C33.3763,38.8294 31.6963,39.3754 30.7963,40.0994 L30.4613,40.3694 C30.2163,40.5674 29.9283,40.7094 29.6213,40.7994 L33.0143,46.5514 L34.8963,42.0994 L39.7013,42.6064 L37.0033,38.0334 C36.4763,38.5924 35.7103,38.9454 34.9593,38.9084" id="Fill-6" fill="#FFFFFF"></path>
                <path d="M31.7118,32.509 L26.1068,32.509 L26.1068,30.279 L27.7048,30.279 L27.7048,25.535 L26.1818,25.967 L26.1818,23.644 L30.1638,22.386 L30.1638,30.279 L31.7118,30.279 L31.7118,32.509 Z M40.3688,30.44 L40.2158,30.038 C39.7048,28.696 39.7048,26.671 40.2158,25.329 L40.3688,24.928 C40.5948,24.333 40.3168,23.476 39.7848,23.128 L39.4248,22.894 C38.2218,22.109 37.0318,20.47 36.6568,19.084 L36.5448,18.669 C36.3838,18.076 35.6938,17.556 35.0688,17.556 C35.0508,17.556 35.0328,17.557 35.0138,17.558 L34.5858,17.578 C34.5108,17.582 34.4358,17.584 34.3588,17.584 C32.9458,17.584 31.1568,16.97 30.1068,16.123 L29.7718,15.854 C29.5348,15.663 29.1908,15.554 28.8258,15.554 C28.4618,15.554 28.1168,15.663 27.8798,15.854 L27.5458,16.123 C26.4948,16.97 24.7068,17.584 23.2938,17.584 C23.2168,17.584 23.1408,17.582 23.0668,17.578 L22.6378,17.558 C22.6198,17.557 22.6018,17.556 22.5838,17.556 C21.9578,17.556 21.2688,18.076 21.1078,18.669 L20.9958,19.084 C20.6198,20.47 19.4298,22.109 18.2278,22.894 L17.8678,23.128 C17.3358,23.476 17.0568,24.333 17.2838,24.928 L17.4368,25.329 C17.9478,26.671 17.9478,28.696 17.4368,30.038 L17.2838,30.44 C17.0568,31.033 17.3358,31.891 17.8678,32.238 L18.2278,32.474 C19.4298,33.259 20.6198,34.897 20.9958,36.283 L21.1078,36.698 C21.2688,37.291 21.9578,37.811 22.5838,37.811 C22.6018,37.811 22.6198,37.811 22.6378,37.81 L23.0668,37.788 C23.1408,37.784 23.2168,37.782 23.2938,37.782 C24.7068,37.782 26.4948,38.397 27.5458,39.243 L27.8798,39.513 C28.1168,39.704 28.4618,39.814 28.8258,39.814 C29.1908,39.814 29.5348,39.704 29.7718,39.513 L30.1068,39.243 C31.1568,38.397 32.9458,37.782 34.3588,37.782 C34.4358,37.782 34.5108,37.784 34.5858,37.788 L35.0138,37.81 C35.0318,37.811 35.0508,37.811 35.0688,37.811 C35.6938,37.811 36.3838,37.291 36.5448,36.697 L36.6568,36.283 C37.0318,34.897 38.2218,33.259 39.4248,32.474 L39.7848,32.238 C40.3168,31.891 40.5948,31.033 40.3688,30.44 L40.3688,30.44 Z" id="Fill-8" fill="#FFFFFF"></path>
            </g>
        </g>
    </g>
</svg>