<?xml version="1.0" encoding="UTF-8"?>
<svg width="89px" height="110px" viewBox="0 0 89 110" version="1.1" xmlns="http://www.w3.org/2000/svg" xmlns:xlink="http://www.w3.org/1999/xlink">
    <!-- Generator: Sketch 53.1 (72631) - https://sketchapp.com -->
    <title>Group 4</title>
    <desc>Created with Sketch.</desc>
    <defs>
        <filter x="-50.0%" y="-36.0%" width="200.0%" height="172.0%" filterUnits="objectBoundingBox" id="filter-1">
            <feOffset dx="0" dy="0" in="SourceAlpha" result="shadowOffsetOuter1"></feOffset>
            <feGaussianBlur stdDeviation="7.5" in="shadowOffsetOuter1" result="shadowBlurOuter1"></feGaussianBlur>
            <feColorMatrix values="0 0 0 0 0   0 0 0 0 0   0 0 0 0 0  0 0 0 0.086475317 0" type="matrix" in="shadowBlurOuter1" result="shadowMatrixOuter1"></feColorMatrix>
            <feMerge>
                <feMergeNode in="shadowMatrixOuter1"></feMergeNode>
                <feMergeNode in="SourceGraphic"></feMergeNode>
            </feMerge>
        </filter>
        <polygon id="path-2" points="0 1.01498507 59 1.01498507 59 81.9216517 0 81.9216517"></polygon>
        <polygon id="path-4" points="0.000521052632 0.033775 32.967 0.033775 32.967 33.25 0.000521052632 33.25"></polygon>
        <polygon id="path-6" points="0 0.721440909 33.908608 0.721440909 33.908608 27.6818182 0 27.6818182"></polygon>
    </defs>
    <g id="Page-1" stroke="none" stroke-width="1" fill="none" fill-rule="evenodd">
        <g id="Contact" transform="translate(-343.000000, -370.000000)">
            <g id="Group-4" transform="translate(358.000000, 384.000000)">
                <g id="Group-3" filter="url(#filter-1)">
                    <mask id="mask-3" fill="white">
                        <use xlink:href="#path-2"></use>
                    </mask>
                    <g id="Clip-2"></g>
                    <path d="M59,30.2159232 C59,14.0890916 45.7919948,1.01498507 29.5,1.01498507 C13.2080052,1.01498507 0,14.0890916 0,30.2159232 C0,35.7700557 1.5960999,40.9445665 4.31567591,45.3645597 L4.29817132,45.3818868 L29.5206872,81.9216517 L54.7447945,45.3818868 L54.7002374,45.3393566 C57.4102654,40.9225138 59,35.7606045 59,30.2159232" id="Fill-1" stroke="#D9D9D9" stroke-width="1.09000003" fill="#FFFFFF" mask="url(#mask-3)"></path>
                </g>
                <g id="Group-8" transform="translate(37.000000, 45.000000)">
                    <g id="Group-3" transform="translate(0.000000, 1.716925)">
                        <mask id="mask-5" fill="white">
                            <use xlink:href="#path-4"></use>
                        </mask>
                        <g id="Clip-2"></g>
                        <path d="M32.9675211,16.641275 C32.9675211,25.814775 25.5876789,33.250525 16.4831526,33.250525 C7.38036316,33.250525 0.000521052632,25.814775 0.000521052632,16.641275 C0.000521052632,7.469525 7.38036316,0.033775 16.4831526,0.033775 C25.5876789,0.033775 32.9675211,7.469525 32.9675211,16.641275" id="Fill-1" fill="#707070" mask="url(#mask-5)"></path>
                    </g>
                    <polygon id="Fill-4" fill="#707070" points="24.1256053 31.835125 32.1011842 34.299125 29.5497632 26.369875"></polygon>
                    <path d="M14.9842579,22.196475 C15.0902053,19.860225 16.1323105,18.804975 17.1431526,17.781225 C18.0827842,16.829225 19.0571526,15.843975 19.0571526,13.952225 C19.0571526,12.319475 17.9681526,11.222225 16.3476789,11.222225 C15.0867316,11.222225 13.8153632,12.049975 13.6573105,13.883975 L10.3173632,13.883975 C10.4788895,10.303475 12.8618368,7.925225 16.3476789,7.925225 C19.8821526,7.925225 22.4474684,10.459225 22.4474684,13.952225 C22.4474684,16.132725 21.4175211,17.250975 20.3250474,18.435725 C19.3888895,19.450725 18.4232053,20.498975 18.2929421,22.196475 L14.9842579,22.196475 Z M16.5543632,28.585725 C15.3733105,28.585725 14.4475737,27.640725 14.4475737,26.433225 C14.4475737,25.230975 15.3924158,24.252725 16.5543632,24.252725 C17.6954684,24.252725 18.6594158,25.251975 18.6594158,26.433225 C18.6594158,27.600475 17.6954684,28.585725 16.5543632,28.585725 L16.5543632,28.585725 Z" id="Fill-6" fill="#FFFFFF"></path>
                </g>
                <g id="Group-6" transform="translate(13.000000, 14.000000)">
                    <g id="Group-3" transform="translate(0.000000, 0.597268)">
                        <mask id="mask-7" fill="white">
                            <use xlink:href="#path-6"></use>
                        </mask>
                        <g id="Clip-2"></g>
                        <path d="M22.536288,20.4401227 L22.536288,16.9060773 L28.931008,16.9060773 L28.524368,20.4401227 L22.536288,20.4401227 Z M5.511808,13.76485 L8.184208,5.90189545 C8.248128,5.71075909 8.307968,5.53280455 8.594928,5.52357727 L25.579968,5.52489545 C25.850608,5.53939545 25.909088,5.71339545 25.951248,5.84257727 L28.645408,13.7661682 C24.953008,13.6303955 21.072928,13.5565773 17.065008,13.5565773 C13.066608,13.5565773 9.194688,13.6303955 5.511808,13.76485 L5.511808,13.76485 Z M11.867088,20.4401227 L5.879008,20.4401227 L5.473728,16.9060773 L11.867088,16.9060773 L11.867088,20.4401227 Z M30.469168,12.7973045 L27.772288,5.31135 C27.211968,3.69262273 25.579968,3.78225909 25.579968,3.78225909 L22.447888,3.78225909 L21.801888,0.721440909 L12.568848,0.721440909 L11.924208,3.78225909 L8.690128,3.78225909 C8.690128,3.78225909 7.056768,3.69262273 6.497808,5.31135 L3.783248,12.8460773 L-0.000272,12.4044864 L-0.000272,15.9068955 L3.225648,16.2667591 L4.335408,24.6701682 L4.335408,27.6822136 L8.627568,27.6822136 L9.004288,24.8494409 L9.079088,24.8494409 L25.267168,24.8494409 L25.322928,24.8494409 L25.609888,27.6822136 L29.903408,27.6822136 L29.903408,24.8494409 L29.910208,24.8494409 L31.048528,16.2140318 L33.908608,15.9068955 L33.908608,12.4044864 L30.469168,12.7973045 Z" id="Fill-1" fill="#00A6E2" mask="url(#mask-7)"></path>
                    </g>
                    <path d="M22.368328,10.0993818 C20.388168,10.0993818 18.750728,11.4913818 18.435208,13.3157455 C18.859528,13.3170636 19.283848,13.3183818 19.705448,13.3210182 C20.000568,12.1623364 21.077688,11.2976091 22.368328,11.2976091 C23.691608,11.2976091 24.800008,12.2045182 25.059768,13.4093364 C25.482728,13.4198818 25.904328,13.4291091 26.321848,13.4409727 C26.062088,11.5546545 24.393368,10.0993818 22.368328,10.0993818" id="Fill-4" fill="#00A6E2"></path>
                </g>
            </g>
        </g>
    </g>
</svg>