<?xml version="1.0" encoding="UTF-8"?>
<svg width="58px" height="68px" viewBox="0 0 58 68" version="1.1" xmlns="http://www.w3.org/2000/svg" xmlns:xlink="http://www.w3.org/1999/xlink">
    <title>Group 8</title>
    <defs>
        <polygon id="path-1" points="0.0001 0.7254 57.652 0.7254 57.652 66.9994 0.0001 66.9994"></polygon>
    </defs>
    <g id="Page-1" stroke="none" stroke-width="1" fill="none" fill-rule="evenodd">
        <g id="Support-our-community-Desktop" transform="translate(-691.000000, -980.000000)">
            <g id="Group-8" transform="translate(691.000000, 980.000000)">
                <g id="Group-3" transform="translate(0.000000, 0.274900)">
                    <mask id="mask-2" fill="white">
                        <use xlink:href="#path-1"></use>
                    </mask>
                    <g id="Clip-2"></g>
                    <path d="M57.6521,29.5514 C57.6521,13.6304 44.7461,0.7254 28.8261,0.7254 C12.9061,0.7254 0.0001,13.6304 0.0001,29.5514 C0.0001,43.5984 10.0481,55.2964 23.3481,57.8554 L28.8261,66.9994 L34.3041,57.8554 C47.6041,55.2964 57.6521,43.5984 57.6521,29.5514" id="Fill-1" fill="#13B2F3" mask="url(#mask-2)"></path>
                </g>
                <path d="M42.0598,31.0138 C41.3868,30.8728 40.7628,31.0278 40.1968,31.3378 C38.7028,32.1588 37.2318,33.0208 35.7578,33.8758 C35.6898,33.9158 35.6368,34.0678 35.6538,34.1528 C35.8198,35.0198 35.5398,35.7308 34.8258,36.2018 C34.1678,36.6358 33.4258,36.7958 32.6628,36.8108 C31.1958,36.8398 29.7278,36.8228 28.2598,36.8158 C28.0468,36.8148 27.8308,36.7778 27.6208,36.7368 C26.7678,36.5688 26.0438,36.1338 25.3608,35.6218 C25.1238,35.4458 24.9038,35.2448 24.6758,35.0558 C25.1388,35.1438 25.5658,35.2988 26.0048,35.4008 C26.6468,35.5468 27.2958,35.7428 27.9468,35.7628 C29.5858,35.8148 31.2278,35.7928 32.8688,35.7718 C33.3768,35.7658 33.8758,35.6368 34.3098,35.3388 C34.6178,35.1268 34.7298,34.8258 34.6748,34.4658 C34.6278,34.1688 34.5008,33.9068 34.1768,33.8348 C33.7428,33.7408 33.3058,33.6368 32.8638,33.5998 C32.2508,33.5478 31.6308,33.5768 31.0168,33.5298 C30.5558,33.4928 30.0928,33.4208 29.6438,33.3118 C28.8178,33.1098 28.0318,32.7888 27.3208,32.3198 C27.1128,32.1818 26.9068,32.0408 26.7008,31.9018 C26.7028,31.8778 24.4858,30.3178 23.0058,29.8418 C22.7098,29.7458 22.4128,29.6588 22.1148,29.5737871 C21.7298,29.5728 21.3378,29.6298 20.9438,29.7498 C20.1388,29.9948 19.3658,30.3518 18.5838,30.6738 C17.9748,30.9248 17.3718,31.1938 16.7708,31.4648 C16.2788,31.6878 15.7938,31.9258 15.2948,32.1618 C16.3258,34.4488 17.3488,36.7138 18.3758,38.9928 C18.4298,38.9718 18.4808,38.9618 18.5218,38.9358 C19.0538,38.5908 19.5778,38.2348 20.1158,37.9008 C20.5908,37.6058 21.1048,37.3928 21.6678,37.5998 C22.0758,37.7488 22.4628,37.9578 22.8508,38.1558 C24.1908,38.8378 25.5298,39.5218 26.8638,40.2148 C27.6138,40.6058 28.3788,40.9508 29.2068,41.1418 L30.2468,41.1418 C30.7128,40.9538 31.2198,40.8308 31.6398,40.5708 C33.4498,39.4438 35.2398,38.2838 37.0268,37.1198 C38.4338,36.2058 39.8298,35.2758 41.2218,34.3388 C41.7998,33.9508 42.3918,33.5798 42.8358,33.0168 C43.5428,32.1198 42.8598,31.1818 42.0598,31.0138" id="Fill-4" fill="#FFFFFF"></path>
                <path d="M36.0974,22.092 L36.0974,22.509 C36.0934,22.53 36.0884,22.552 36.0854,22.574 C36.0684,22.698 36.0574,22.823 36.0354,22.946 C35.9294,23.518 35.7124,24.048 35.4424,24.559 C35.0204,25.357 34.4864,26.077 33.9054,26.765 C33.2604,27.528 32.5584,28.236 31.8254,28.912 C31.0104,29.664 30.1594,30.376 29.2734,31.043 C29.2304,31.074 29.2034,31.079 29.1584,31.045 C27.8814,30.081 26.6744,29.037 25.5544,27.894 C24.7694,27.092 24.0384,26.245 23.4244,25.302 C23.0594,24.741 22.7464,24.155 22.5374,23.516 C22.3424,22.92 22.2734,22.314 22.3764,21.694 C22.5134,20.867 22.8844,20.161 23.5094,19.604 C24.4194,18.79 25.4894,18.492 26.6814,18.742 C27.8254,18.982 28.6574,19.653 29.1844,20.696 C29.1924,20.713 29.2024,20.729 29.2164,20.751 C29.2284,20.727 29.2374,20.711 29.2444,20.696 C30.2104,18.773 32.6094,18.102 34.4204,19.259 C35.3154,19.831 35.8554,20.654 36.0444,21.701 C36.0684,21.83 36.0804,21.962 36.0974,22.092" id="Fill-6" fill="#FFFFFF"></path>
            </g>
        </g>
    </g>
</svg>